<svg width="257" height="258" viewBox="0 0 257 258" fill="none" xmlns="http://www.w3.org/2000/svg">
<g clip-path="url(#clip0_1_11)">
<g filter="url(#filter0_dii_1_11)">
<circle cx="100" cy="125" r="100" fill="rgba(1,1,1,0)"/>
</g>
<path d="M31.6 86.46L27.76 82.1L31.6 77.72H36.52L32.68 82.1L36.52 86.46H31.6ZM48.3483 69.96L43.0083 92.86H39.2283L44.5683 69.96H48.3483ZM50.4839 83.38C50.4839 82.22 50.6906 81.2067 51.1039 80.34C51.5306 79.4733 52.1106 78.8067 52.8439 78.34C53.5772 77.8733 54.3906 77.64 55.2839 77.64C56.0039 77.64 56.6439 77.7933 57.2039 78.1C57.7772 78.3933 58.2239 78.8 58.5439 79.32V74.2H62.4839V89H58.5439V87.44C58.2372 87.96 57.8039 88.3733 57.2439 88.68C56.6839 88.9867 56.0239 89.14 55.2639 89.14C54.3706 89.14 53.5572 88.9067 52.8239 88.44C52.1039 87.9733 51.5306 87.3067 51.1039 86.44C50.6906 85.56 50.4839 84.54 50.4839 83.38ZM58.5639 83.38C58.5639 82.66 58.3639 82.0933 57.9639 81.68C57.5772 81.2667 57.0972 81.06 56.5239 81.06C55.9372 81.06 55.4506 81.2667 55.0639 81.68C54.6772 82.08 54.4839 82.6467 54.4839 83.38C54.4839 84.1 54.6772 84.6733 55.0639 85.1C55.4506 85.5133 55.9372 85.72 56.5239 85.72C57.0972 85.72 57.5772 85.5133 57.9639 85.1C58.3639 84.6867 58.5639 84.1133 58.5639 83.38ZM68.6977 76.74C68.0043 76.74 67.4443 76.5533 67.0177 76.18C66.6043 75.7933 66.3977 75.3133 66.3977 74.74C66.3977 74.1533 66.6043 73.6667 67.0177 73.28C67.4443 72.8933 68.0043 72.7 68.6977 72.7C69.3777 72.7 69.9243 72.8933 70.3377 73.28C70.7643 73.6667 70.9777 74.1533 70.9777 74.74C70.9777 75.3133 70.7643 75.7933 70.3377 76.18C69.9243 76.5533 69.3777 76.74 68.6977 76.74ZM70.6377 77.78V89H66.7177V77.78H70.6377ZM80.25 85.3L82.35 77.78H86.53L82.67 89H77.79L73.93 77.78H78.11L80.25 85.3ZM89.5783 77.72H94.4783L98.3183 82.1L94.4783 86.46H89.5783L93.4183 82.1L89.5783 77.72ZM31.6 117.46L27.76 113.1L31.6 108.72H36.52L32.68 113.1L36.52 117.46H31.6ZM39.9683 114.38C39.9683 113.22 40.1749 112.207 40.5883 111.34C41.0149 110.473 41.5949 109.807 42.3283 109.34C43.0616 108.873 43.8749 108.64 44.7683 108.64C45.4883 108.64 46.1283 108.793 46.6883 109.1C47.2616 109.393 47.7083 109.8 48.0283 110.32V105.2H51.9683V120H48.0283V118.44C47.7216 118.96 47.2883 119.373 46.7283 119.68C46.1683 119.987 45.5083 120.14 44.7483 120.14C43.8549 120.14 43.0416 119.907 42.3083 119.44C41.5883 118.973 41.0149 118.307 40.5883 117.44C40.1749 116.56 39.9683 115.54 39.9683 114.38ZM48.0483 114.38C48.0483 113.66 47.8483 113.093 47.4483 112.68C47.0616 112.267 46.5816 112.06 46.0083 112.06C45.4216 112.06 44.9349 112.267 44.5483 112.68C44.1616 113.08 43.9683 113.647 43.9683 114.38C43.9683 115.1 44.1616 115.673 44.5483 116.1C44.9349 116.513 45.4216 116.72 46.0083 116.72C46.5816 116.72 47.0616 116.513 47.4483 116.1C47.8483 115.687 48.0483 115.113 48.0483 114.38ZM58.182 107.74C57.4887 107.74 56.9287 107.553 56.502 107.18C56.0887 106.793 55.882 106.313 55.882 105.74C55.882 105.153 56.0887 104.667 56.502 104.28C56.9287 103.893 57.4887 103.7 58.182 103.7C58.862 103.7 59.4087 103.893 59.822 104.28C60.2487 104.667 60.462 105.153 60.462 105.74C60.462 106.313 60.2487 106.793 59.822 107.18C59.4087 107.553 58.862 107.74 58.182 107.74ZM60.122 108.78V120H56.202V108.78H60.122ZM69.7344 116.3L71.8344 108.78H76.0144L72.1544 120H67.2744L63.4144 108.78H67.5944L69.7344 116.3ZM27.48 144.38C27.48 143.22 27.72 142.207 28.2 141.34C28.68 140.473 29.3467 139.807 30.2 139.34C31.0667 138.873 32.0533 138.64 33.16 138.64C34.5867 138.64 35.7867 139.033 36.76 139.82C37.7333 140.593 38.36 141.68 38.64 143.08H34.48C34.24 142.347 33.7733 141.98 33.08 141.98C32.5867 141.98 32.1933 142.187 31.9 142.6C31.62 143 31.48 143.593 31.48 144.38C31.48 145.167 31.62 145.767 31.9 146.18C32.1933 146.593 32.5867 146.8 33.08 146.8C33.7867 146.8 34.2533 146.433 34.48 145.7H38.64C38.36 147.087 37.7333 148.173 36.76 148.96C35.7867 149.747 34.5867 150.14 33.16 150.14C32.0533 150.14 31.0667 149.907 30.2 149.44C29.3467 148.973 28.68 148.307 28.2 147.44C27.72 146.573 27.48 145.553 27.48 144.38ZM46.1884 135.2V150H42.2684V135.2H46.1884Z" fill="#FF0C80"/>
<path d="M49.7808 144.38C49.7808 143.22 49.9874 142.207 50.4008 141.34C50.8274 140.473 51.4008 139.807 52.1208 139.34C52.8541 138.873 53.6674 138.64 54.5608 138.64C55.3341 138.64 56.0008 138.793 56.5608 139.1C57.1208 139.407 57.5541 139.82 57.8608 140.34V138.78H61.7808V150H57.8608V148.44C57.5541 148.96 57.1141 149.373 56.5408 149.68C55.9808 149.987 55.3208 150.14 54.5608 150.14C53.6674 150.14 52.8541 149.907 52.1208 149.44C51.4008 148.973 50.8274 148.307 50.4008 147.44C49.9874 146.56 49.7808 145.54 49.7808 144.38ZM57.8608 144.38C57.8608 143.66 57.6608 143.093 57.2608 142.68C56.8741 142.267 56.3941 142.06 55.8208 142.06C55.2341 142.06 54.7474 142.267 54.3608 142.68C53.9741 143.08 53.7808 143.647 53.7808 144.38C53.7808 145.1 53.9741 145.673 54.3608 146.1C54.7474 146.513 55.2341 146.72 55.8208 146.72C56.3941 146.72 56.8741 146.513 57.2608 146.1C57.6608 145.687 57.8608 145.113 57.8608 144.38ZM70.7945 150.14C69.7812 150.14 68.8745 149.973 68.0745 149.64C67.2879 149.293 66.6612 148.827 66.1945 148.24C65.7412 147.64 65.4879 146.967 65.4345 146.22H69.2345C69.2879 146.58 69.4545 146.86 69.7345 147.06C70.0145 147.26 70.3612 147.36 70.7745 147.36C71.0945 147.36 71.3479 147.293 71.5345 147.16C71.7212 147.027 71.8145 146.853 71.8145 146.64C71.8145 146.36 71.6612 146.153 71.3545 146.02C71.0479 145.887 70.5412 145.74 69.8345 145.58C69.0345 145.42 68.3679 145.24 67.8345 145.04C67.3012 144.84 66.8345 144.513 66.4345 144.06C66.0479 143.607 65.8545 142.993 65.8545 142.22C65.8545 141.553 66.0345 140.953 66.3945 140.42C66.7545 139.873 67.2812 139.44 67.9745 139.12C68.6812 138.8 69.5279 138.64 70.5145 138.64C71.9812 138.64 73.1345 139 73.9745 139.72C74.8145 140.44 75.3012 141.387 75.4345 142.56H71.8945C71.8279 142.2 71.6679 141.927 71.4145 141.74C71.1745 141.54 70.8479 141.44 70.4345 141.44C70.1145 141.44 69.8679 141.5 69.6945 141.62C69.5345 141.74 69.4545 141.907 69.4545 142.12C69.4545 142.387 69.6079 142.593 69.9145 142.74C70.2212 142.873 70.7145 143.013 71.3945 143.16C72.2079 143.333 72.8812 143.527 73.4145 143.74C73.9612 143.953 74.4345 144.3 74.8345 144.78C75.2479 145.247 75.4545 145.887 75.4545 146.7C75.4545 147.353 75.2612 147.94 74.8745 148.46C74.5012 148.98 73.9612 149.393 73.2545 149.7C72.5612 149.993 71.7412 150.14 70.7945 150.14ZM84.1617 150.14C83.1484 150.14 82.2417 149.973 81.4417 149.64C80.6551 149.293 80.0284 148.827 79.5617 148.24C79.1084 147.64 78.8551 146.967 78.8017 146.22H82.6017C82.6551 146.58 82.8217 146.86 83.1017 147.06C83.3817 147.26 83.7284 147.36 84.1417 147.36C84.4617 147.36 84.7151 147.293 84.9017 147.16C85.0884 147.027 85.1817 146.853 85.1817 146.64C85.1817 146.36 85.0284 146.153 84.7217 146.02C84.4151 145.887 83.9084 145.74 83.2017 145.58C82.4017 145.42 81.7351 145.24 81.2017 145.04C80.6684 144.84 80.2017 144.513 79.8017 144.06C79.4151 143.607 79.2217 142.993 79.2217 142.22C79.2217 141.553 79.4017 140.953 79.7617 140.42C80.1217 139.873 80.6484 139.44 81.3417 139.12C82.0484 138.8 82.8951 138.64 83.8817 138.64C85.3484 138.64 86.5017 139 87.3417 139.72C88.1817 140.44 88.6684 141.387 88.8017 142.56H85.2617C85.1951 142.2 85.0351 141.927 84.7817 141.74C84.5417 141.54 84.2151 141.44 83.8017 141.44C83.4817 141.44 83.2351 141.5 83.0617 141.62C82.9017 141.74 82.8217 141.907 82.8217 142.12C82.8217 142.387 82.9751 142.593 83.2817 142.74C83.5884 142.873 84.0817 143.013 84.7617 143.16C85.5751 143.333 86.2484 143.527 86.7817 143.74C87.3284 143.953 87.8017 144.3 88.2017 144.78C88.6151 145.247 88.8217 145.887 88.8217 146.7C88.8217 147.353 88.6284 147.94 88.2417 148.46C87.8684 148.98 87.3284 149.393 86.6217 149.7C85.9284 149.993 85.1084 150.14 84.1617 150.14ZM103.969 138.66V142.2H92.5089V138.66H103.969ZM103.969 144.02V147.54H92.5089V144.02H103.969ZM108.932 135.9H112.892L110.592 141.54H107.972L108.932 135.9ZM113.912 135.9H117.872L115.572 141.54H112.952L113.912 135.9ZM130.866 142.76C131.693 142.947 132.346 143.36 132.826 144C133.319 144.627 133.566 145.347 133.566 146.16C133.566 147.36 133.153 148.3 132.326 148.98C131.499 149.66 130.339 150 128.846 150H121.866V135.9H128.626C130.066 135.9 131.193 136.22 132.006 136.86C132.833 137.5 133.246 138.4 133.246 139.56C133.246 140.387 133.026 141.08 132.586 141.64C132.159 142.187 131.586 142.56 130.866 142.76ZM125.786 141.5H127.766C128.753 141.5 129.246 141.093 129.246 140.28C129.246 139.44 128.753 139.02 127.766 139.02H125.786V141.5ZM128.066 146.84C129.053 146.84 129.546 146.427 129.546 145.6C129.546 145.173 129.413 144.847 129.146 144.62C128.893 144.393 128.526 144.28 128.046 144.28H125.786V146.84H128.066ZM136.644 144.38C136.644 143.22 136.851 142.207 137.264 141.34C137.691 140.473 138.264 139.807 138.984 139.34C139.717 138.873 140.531 138.64 141.424 138.64C142.197 138.64 142.864 138.793 143.424 139.1C143.984 139.407 144.417 139.82 144.724 140.34V138.78H148.644V150H144.724V148.44C144.417 148.96 143.977 149.373 143.404 149.68C142.844 149.987 142.184 150.14 141.424 150.14C140.531 150.14 139.717 149.907 138.984 149.44C138.264 148.973 137.691 148.307 137.264 147.44C136.851 146.56 136.644 145.54 136.644 144.38ZM144.724 144.38C144.724 143.66 144.524 143.093 144.124 142.68C143.737 142.267 143.257 142.06 142.684 142.06C142.097 142.06 141.611 142.267 141.224 142.68C140.837 143.08 140.644 143.647 140.644 144.38C140.644 145.1 140.837 145.673 141.224 146.1C141.611 146.513 142.097 146.72 142.684 146.72C143.257 146.72 143.737 146.513 144.124 146.1C144.524 145.687 144.724 145.113 144.724 144.38ZM152.238 144.38C152.238 143.22 152.478 142.207 152.958 141.34C153.438 140.473 154.104 139.807 154.958 139.34C155.824 138.873 156.811 138.64 157.918 138.64C159.344 138.64 160.544 139.033 161.518 139.82C162.491 140.593 163.118 141.68 163.398 143.08H159.238C158.998 142.347 158.531 141.98 157.838 141.98C157.344 141.98 156.951 142.187 156.658 142.6C156.378 143 156.238 143.593 156.238 144.38C156.238 145.167 156.378 145.767 156.658 146.18C156.951 146.593 157.344 146.8 157.838 146.8C158.544 146.8 159.011 146.433 159.238 145.7H163.398C163.118 147.087 162.491 148.173 161.518 148.96C160.544 149.747 159.344 150.14 157.918 150.14C156.811 150.14 155.824 149.907 154.958 149.44C154.104 148.973 153.438 148.307 152.958 147.44C152.478 146.573 152.238 145.553 152.238 144.38ZM174.046 150L170.946 145.4V150H167.026V135.2H170.946V143.18L174.046 138.78H178.746L174.326 144.42L178.826 150H174.046ZM192.695 144.26C192.695 144.567 192.675 144.873 192.635 145.18H185.215C185.255 145.793 185.422 146.253 185.715 146.56C186.022 146.853 186.409 147 186.875 147C187.529 147 187.995 146.707 188.275 146.12H192.455C192.282 146.893 191.942 147.587 191.435 148.2C190.942 148.8 190.315 149.273 189.555 149.62C188.795 149.967 187.955 150.14 187.035 150.14C185.929 150.14 184.942 149.907 184.075 149.44C183.222 148.973 182.549 148.307 182.055 147.44C181.575 146.573 181.335 145.553 181.335 144.38C181.335 143.207 181.575 142.193 182.055 141.34C182.535 140.473 183.202 139.807 184.055 139.34C184.922 138.873 185.915 138.64 187.035 138.64C188.142 138.64 189.122 138.867 189.975 139.32C190.829 139.773 191.495 140.427 191.975 141.28C192.455 142.12 192.695 143.113 192.695 144.26ZM188.695 143.28C188.695 142.8 188.535 142.427 188.215 142.16C187.895 141.88 187.495 141.74 187.015 141.74C186.535 141.74 186.142 141.873 185.835 142.14C185.529 142.393 185.329 142.773 185.235 143.28H188.695ZM203.64 138.68C204.933 138.68 205.96 139.113 206.72 139.98C207.48 140.833 207.86 141.993 207.86 143.46V150H203.94V143.98C203.94 143.34 203.773 142.84 203.44 142.48C203.106 142.107 202.66 141.92 202.1 141.92C201.513 141.92 201.053 142.107 200.72 142.48C200.386 142.84 200.22 143.34 200.22 143.98V150H196.3V138.78H200.22V140.38C200.566 139.873 201.033 139.467 201.62 139.16C202.206 138.84 202.88 138.68 203.64 138.68ZM211.371 144.38C211.371 143.22 211.577 142.207 211.991 141.34C212.417 140.473 212.997 139.807 213.731 139.34C214.464 138.873 215.277 138.64 216.171 138.64C216.891 138.64 217.531 138.793 218.091 139.1C218.664 139.393 219.111 139.8 219.431 140.32V135.2H223.371V150H219.431V148.44C219.124 148.96 218.691 149.373 218.131 149.68C217.571 149.987 216.911 150.14 216.151 150.14C215.257 150.14 214.444 149.907 213.711 149.44C212.991 148.973 212.417 148.307 211.991 147.44C211.577 146.56 211.371 145.54 211.371 144.38ZM219.451 144.38C219.451 143.66 219.251 143.093 218.851 142.68C218.464 142.267 217.984 142.06 217.411 142.06C216.824 142.06 216.337 142.267 215.951 142.68C215.564 143.08 215.371 143.647 215.371 144.38C215.371 145.1 215.564 145.673 215.951 146.1C216.337 146.513 216.824 146.72 217.411 146.72C217.984 146.72 218.464 146.513 218.851 146.1C219.251 145.687 219.451 145.113 219.451 144.38ZM231.304 141.54H227.364L229.664 135.9H232.264L231.304 141.54ZM236.284 141.54H232.344L234.644 135.9H237.244L236.284 141.54ZM241.219 138.72H246.119L249.959 143.1L246.119 147.46H241.219L245.059 143.1L241.219 138.72Z" fill="#660A75"/>
</g>
<defs>
<filter id="filter0_dii_1_11" x="-20" y="15" width="253" height="243" filterUnits="userSpaceOnUse" color-interpolation-filters="sRGB">
<feFlood flood-opacity="0" result="BackgroundImageFix"/>
<feColorMatrix in="SourceAlpha" type="matrix" values="0 0 0 0 0 0 0 0 0 0 0 0 0 0 0 0 0 0 127 0" result="hardAlpha"/>
<feMorphology radius="2" operator="erode" in="SourceAlpha" result="effect1_dropShadow_1_11"/>
<feOffset dx="15" dy="15"/>
<feGaussianBlur stdDeviation="10"/>
<feComposite in2="hardAlpha" operator="out"/>
<feColorMatrix type="matrix" values="0 0 0 0 0.570833 0 0 0 0 0.306823 0 0 0 0 0.49691 0 0 0 0.7 0"/>
<feBlend mode="normal" in2="BackgroundImageFix" result="effect1_dropShadow_1_11"/>
<feBlend mode="normal" in="SourceGraphic" in2="effect1_dropShadow_1_11" result="shape"/>
<feColorMatrix in="SourceAlpha" type="matrix" values="0 0 0 0 0 0 0 0 0 0 0 0 0 0 0 0 0 0 127 0" result="hardAlpha"/>
<feOffset dx="-20" dy="-10"/>
<feGaussianBlur stdDeviation="10"/>
<feComposite in2="hardAlpha" operator="arithmetic" k2="-1" k3="1"/>
<feColorMatrix type="matrix" values="0 0 0 0 1 0 0 0 0 0 0 0 0 0 0.36 0 0 0 0.25 0"/>
<feBlend mode="normal" in2="shape" result="effect2_innerShadow_1_11"/>
<feColorMatrix in="SourceAlpha" type="matrix" values="0 0 0 0 0 0 0 0 0 0 0 0 0 0 0 0 0 0 127 0" result="hardAlpha"/>
<feOffset dx="8" dy="8"/>
<feGaussianBlur stdDeviation="4.5"/>
<feComposite in2="hardAlpha" operator="arithmetic" k2="-1" k3="1"/>
<feColorMatrix type="matrix" values="0 0 0 0 1 0 0 0 0 0 0 0 0 0 0.3 0 0 0 0.08 0"/>
<feBlend mode="normal" in2="effect2_innerShadow_1_11" result="effect3_innerShadow_1_11"/>
</filter>
<clipPath id="clip0_1_11">
<rect width="257" height="258" fill="white"/>
</clipPath>
</defs>
</svg>
