<svg width="1270" height="584" viewBox="0 0 1270 584" fill="none" xmlns="http://www.w3.org/2000/svg">
<g clip-path="url(#clip0_1_11)">
<g filter="url(#filter0_dii_1_11)">
<circle cx="100" cy="100" r="100" fill="#FDFDFD"/>
</g>
<path d="M43.52 125.952L38.912 120.72L43.52 115.464H49.424L44.816 120.72L49.424 125.952H43.52ZM53.5619 122.256C53.5619 120.864 53.8099 119.648 54.3059 118.608C54.8179 117.568 55.5139 116.768 56.3939 116.208C57.2739 115.648 58.2499 115.368 59.3219 115.368C60.1859 115.368 60.9539 115.552 61.6259 115.92C62.3139 116.272 62.8499 116.76 63.2339 117.384V111.24H67.9619V129H63.2339V127.128C62.8659 127.752 62.3459 128.248 61.6739 128.616C61.0019 128.984 60.2099 129.168 59.2979 129.168C58.2259 129.168 57.2499 128.888 56.3699 128.328C55.5059 127.768 54.8179 126.968 54.3059 125.928C53.8099 124.872 53.5619 123.648 53.5619 122.256ZM63.2579 122.256C63.2579 121.392 63.0179 120.712 62.5379 120.216C62.0739 119.72 61.4979 119.472 60.8099 119.472C60.1059 119.472 59.5219 119.72 59.0579 120.216C58.5939 120.696 58.3619 121.376 58.3619 122.256C58.3619 123.12 58.5939 123.808 59.0579 124.32C59.5219 124.816 60.1059 125.064 60.8099 125.064C61.4979 125.064 62.0739 124.816 62.5379 124.32C63.0179 123.824 63.2579 123.136 63.2579 122.256ZM75.4184 114.288C74.5864 114.288 73.9144 114.064 73.4024 113.616C72.9064 113.152 72.6584 112.576 72.6584 111.888C72.6584 111.184 72.9064 110.6 73.4024 110.136C73.9144 109.672 74.5864 109.44 75.4184 109.44C76.2344 109.44 76.8904 109.672 77.3864 110.136C77.8984 110.6 78.1544 111.184 78.1544 111.888C78.1544 112.576 77.8984 113.152 77.3864 113.616C76.8904 114.064 76.2344 114.288 75.4184 114.288ZM77.7464 115.536V129H73.0424V115.536H77.7464ZM89.2813 124.56L91.8013 115.536H96.8173L92.1853 129H86.3293L81.6973 115.536H86.7133L89.2813 124.56ZM107.037 122.256C107.037 120.864 107.325 119.648 107.901 118.608C108.477 117.568 109.277 116.768 110.301 116.208C111.341 115.648 112.525 115.368 113.853 115.368C115.565 115.368 117.005 115.84 118.173 116.784C119.341 117.712 120.093 119.016 120.429 120.696H115.437C115.149 119.816 114.589 119.376 113.757 119.376C113.165 119.376 112.693 119.624 112.341 120.12C112.005 120.6 111.837 121.312 111.837 122.256C111.837 123.2 112.005 123.92 112.341 124.416C112.693 124.912 113.165 125.16 113.757 125.16C114.605 125.16 115.165 124.72 115.437 123.84H120.429C120.093 125.504 119.341 126.808 118.173 127.752C117.005 128.696 115.565 129.168 113.853 129.168C112.525 129.168 111.341 128.888 110.301 128.328C109.277 127.768 108.477 126.968 107.901 125.928C107.325 124.888 107.037 123.664 107.037 122.256ZM129.487 111.24V129H124.783V111.24H129.487Z" fill="#FF0C80"/>
<path d="M133.798 122.256C133.798 120.864 134.046 119.648 134.542 118.608C135.054 117.568 135.742 116.768 136.606 116.208C137.486 115.648 138.462 115.368 139.534 115.368C140.462 115.368 141.262 115.552 141.934 115.92C142.606 116.288 143.126 116.784 143.494 117.408V115.536H148.198V129H143.494V127.128C143.126 127.752 142.598 128.248 141.91 128.616C141.238 128.984 140.446 129.168 139.534 129.168C138.462 129.168 137.486 128.888 136.606 128.328C135.742 127.768 135.054 126.968 134.542 125.928C134.046 124.872 133.798 123.648 133.798 122.256ZM143.494 122.256C143.494 121.392 143.254 120.712 142.774 120.216C142.31 119.72 141.734 119.472 141.046 119.472C140.342 119.472 139.758 119.72 139.294 120.216C138.83 120.696 138.598 121.376 138.598 122.256C138.598 123.12 138.83 123.808 139.294 124.32C139.758 124.816 140.342 125.064 141.046 125.064C141.734 125.064 142.31 124.816 142.774 124.32C143.254 123.824 143.494 123.136 143.494 122.256ZM159.014 129.168C157.798 129.168 156.71 128.968 155.75 128.568C154.806 128.152 154.054 127.592 153.494 126.888C152.95 126.168 152.646 125.36 152.582 124.464H157.142C157.206 124.896 157.406 125.232 157.742 125.472C158.078 125.712 158.494 125.832 158.99 125.832C159.374 125.832 159.678 125.752 159.902 125.592C160.126 125.432 160.238 125.224 160.238 124.968C160.238 124.632 160.054 124.384 159.686 124.224C159.318 124.064 158.71 123.888 157.862 123.696C156.902 123.504 156.102 123.288 155.462 123.048C154.822 122.808 154.262 122.416 153.782 121.872C153.318 121.328 153.086 120.592 153.086 119.664C153.086 118.864 153.302 118.144 153.734 117.504C154.166 116.848 154.798 116.328 155.63 115.944C156.478 115.56 157.494 115.368 158.678 115.368C160.438 115.368 161.822 115.8 162.83 116.664C163.838 117.528 164.422 118.664 164.582 120.072H160.334C160.254 119.64 160.062 119.312 159.758 119.088C159.47 118.848 159.078 118.728 158.582 118.728C158.198 118.728 157.902 118.8 157.694 118.944C157.502 119.088 157.406 119.288 157.406 119.544C157.406 119.864 157.59 120.112 157.958 120.288C158.326 120.448 158.918 120.616 159.734 120.792C160.71 121 161.518 121.232 162.158 121.488C162.814 121.744 163.382 122.16 163.862 122.736C164.358 123.296 164.606 124.064 164.606 125.04C164.606 125.824 164.374 126.528 163.91 127.152C163.462 127.776 162.814 128.272 161.966 128.64C161.134 128.992 160.15 129.168 159.014 129.168ZM175.055 129.168C173.839 129.168 172.751 128.968 171.791 128.568C170.847 128.152 170.095 127.592 169.535 126.888C168.991 126.168 168.687 125.36 168.623 124.464H173.183C173.247 124.896 173.447 125.232 173.783 125.472C174.119 125.712 174.535 125.832 175.031 125.832C175.415 125.832 175.719 125.752 175.943 125.592C176.167 125.432 176.279 125.224 176.279 124.968C176.279 124.632 176.095 124.384 175.727 124.224C175.359 124.064 174.751 123.888 173.903 123.696C172.943 123.504 172.143 123.288 171.503 123.048C170.863 122.808 170.303 122.416 169.823 121.872C169.359 121.328 169.127 120.592 169.127 119.664C169.127 118.864 169.343 118.144 169.775 117.504C170.207 116.848 170.839 116.328 171.671 115.944C172.519 115.56 173.535 115.368 174.719 115.368C176.479 115.368 177.863 115.8 178.871 116.664C179.879 117.528 180.463 118.664 180.623 120.072H176.375C176.295 119.64 176.103 119.312 175.799 119.088C175.511 118.848 175.119 118.728 174.623 118.728C174.239 118.728 173.943 118.8 173.735 118.944C173.543 119.088 173.447 119.288 173.447 119.544C173.447 119.864 173.631 120.112 173.999 120.288C174.367 120.448 174.959 120.616 175.775 120.792C176.751 121 177.559 121.232 178.199 121.488C178.855 121.744 179.423 122.16 179.903 122.736C180.399 123.296 180.647 124.064 180.647 125.04C180.647 125.824 180.415 126.528 179.951 127.152C179.503 127.776 178.855 128.272 178.007 128.64C177.175 128.992 176.191 129.168 175.055 129.168ZM198.824 115.392V119.64H185.072V115.392H198.824ZM198.824 121.824V126.048H185.072V121.824H198.824ZM40.496 149.08H45.248L42.488 155.848H39.344L40.496 149.08ZM46.472 149.08H51.224L48.464 155.848H45.32L46.472 149.08ZM67.4894 149.08V152.824H60.7214V155.8H65.7134V159.376H60.7214V166H56.0174V149.08H67.4894ZM76.5746 154.912C77.1026 154.144 77.7426 153.536 78.4946 153.088C79.2466 152.64 80.0546 152.416 80.9186 152.416V157.432H79.5986C78.5746 157.432 77.8146 157.632 77.3186 158.032C76.8226 158.432 76.5746 159.128 76.5746 160.12V166H71.8706V152.536H76.5746V154.912ZM91.2689 166.168C89.9249 166.168 88.7169 165.888 87.6449 165.328C86.5889 164.768 85.7569 163.968 85.1489 162.928C84.5409 161.888 84.2369 160.664 84.2369 159.256C84.2369 157.864 84.5409 156.648 85.1489 155.608C85.7729 154.568 86.6129 153.768 87.6689 153.208C88.7409 152.648 89.9489 152.368 91.2929 152.368C92.6369 152.368 93.8369 152.648 94.8929 153.208C95.9649 153.768 96.8049 154.568 97.4129 155.608C98.0369 156.648 98.3489 157.864 98.3489 159.256C98.3489 160.648 98.0369 161.872 97.4129 162.928C96.8049 163.968 95.9649 164.768 94.8929 165.328C93.8209 165.888 92.6129 166.168 91.2689 166.168ZM91.2689 162.088C91.9249 162.088 92.4689 161.848 92.9009 161.368C93.3489 160.872 93.5729 160.168 93.5729 159.256C93.5729 158.344 93.3489 157.648 92.9009 157.168C92.4689 156.688 91.9329 156.448 91.2929 156.448C90.6529 156.448 90.1169 156.688 89.6849 157.168C89.2529 157.648 89.0369 158.344 89.0369 159.256C89.0369 160.184 89.2449 160.888 89.6609 161.368C90.0769 161.848 90.6129 162.088 91.2689 162.088ZM111.471 152.416C113.023 152.416 114.255 152.936 115.167 153.976C116.079 155 116.535 156.392 116.535 158.152V166H111.831V158.776C111.831 158.008 111.631 157.408 111.231 156.976C110.831 156.528 110.295 156.304 109.623 156.304C108.919 156.304 108.367 156.528 107.967 156.976C107.567 157.408 107.367 158.008 107.367 158.776V166H102.663V152.536H107.367V154.456C107.783 153.848 108.343 153.36 109.047 152.992C109.751 152.608 110.559 152.416 111.471 152.416ZM129.46 161.992V166H127.42C123.98 166 122.26 164.296 122.26 160.888V156.448H120.604V152.536H122.26V149.272H126.988V152.536H129.436V156.448H126.988V160.96C126.988 161.328 127.068 161.592 127.228 161.752C127.404 161.912 127.692 161.992 128.092 161.992H129.46ZM146.881 159.112C146.881 159.48 146.857 159.848 146.809 160.216H137.905C137.953 160.952 138.153 161.504 138.505 161.872C138.873 162.224 139.337 162.4 139.897 162.4C140.681 162.4 141.241 162.048 141.577 161.344H146.593C146.385 162.272 145.977 163.104 145.369 163.84C144.777 164.56 144.025 165.128 143.113 165.544C142.201 165.96 141.193 166.168 140.089 166.168C138.761 166.168 137.577 165.888 136.537 165.328C135.513 164.768 134.705 163.968 134.113 162.928C133.537 161.888 133.249 160.664 133.249 159.256C133.249 157.848 133.537 156.632 134.113 155.608C134.689 154.568 135.489 153.768 136.513 153.208C137.553 152.648 138.745 152.368 140.089 152.368C141.417 152.368 142.593 152.64 143.617 153.184C144.641 153.728 145.441 154.512 146.017 155.536C146.593 156.544 146.881 157.736 146.881 159.112ZM142.081 157.936C142.081 157.36 141.889 156.912 141.505 156.592C141.121 156.256 140.641 156.088 140.065 156.088C139.489 156.088 139.017 156.248 138.649 156.568C138.281 156.872 138.041 157.328 137.929 157.936H142.081ZM160.015 152.416C161.567 152.416 162.799 152.936 163.711 153.976C164.623 155 165.079 156.392 165.079 158.152V166H160.375V158.776C160.375 158.008 160.175 157.408 159.775 156.976C159.375 156.528 158.839 156.304 158.167 156.304C157.463 156.304 156.911 156.528 156.511 156.976C156.111 157.408 155.911 158.008 155.911 158.776V166H151.207V152.536H155.911V154.456C156.327 153.848 156.887 153.36 157.591 152.992C158.295 152.608 159.103 152.416 160.015 152.416ZM169.292 159.256C169.292 157.864 169.54 156.648 170.036 155.608C170.548 154.568 171.244 153.768 172.124 153.208C173.004 152.648 173.98 152.368 175.052 152.368C175.916 152.368 176.684 152.552 177.356 152.92C178.044 153.272 178.58 153.76 178.964 154.384V148.24H183.692V166H178.964V164.128C178.596 164.752 178.076 165.248 177.404 165.616C176.732 165.984 175.94 166.168 175.028 166.168C173.956 166.168 172.98 165.888 172.1 165.328C171.236 164.768 170.548 163.968 170.036 162.928C169.54 161.872 169.292 160.648 169.292 159.256ZM178.988 159.256C178.988 158.392 178.748 157.712 178.268 157.216C177.804 156.72 177.228 156.472 176.54 156.472C175.836 156.472 175.252 156.72 174.788 157.216C174.324 157.696 174.092 158.376 174.092 159.256C174.092 160.12 174.324 160.808 174.788 161.32C175.252 161.816 175.836 162.064 176.54 162.064C177.228 162.064 177.804 161.816 178.268 161.32C178.748 160.824 178.988 160.136 178.988 159.256ZM193.212 155.848H188.484L191.244 149.08H194.364L193.212 155.848ZM199.188 155.848H194.46L197.22 149.08H200.34L199.188 155.848ZM205.11 152.464H210.99L215.598 157.72L210.99 162.952H205.11L209.718 157.72L205.11 152.464Z" fill="#9667B2"/>
<g filter="url(#filter1_dii_1_11)">
<circle cx="1170" cy="457" r="100" fill="#FDFDFD"/>
</g>
<path d="M1021.58 413.256C1021.58 411.864 1021.82 410.648 1022.32 409.608C1022.83 408.568 1023.52 407.768 1024.38 407.208C1025.26 406.648 1026.24 406.368 1027.31 406.368C1028.24 406.368 1029.04 406.552 1029.71 406.92C1030.38 407.288 1030.9 407.784 1031.27 408.408V406.536H1035.98V420H1031.27V418.128C1030.9 418.752 1030.38 419.248 1029.69 419.616C1029.02 419.984 1028.22 420.168 1027.31 420.168C1026.24 420.168 1025.26 419.888 1024.38 419.328C1023.52 418.768 1022.83 417.968 1022.32 416.928C1021.82 415.872 1021.58 414.648 1021.58 413.256ZM1031.27 413.256C1031.27 412.392 1031.03 411.712 1030.55 411.216C1030.09 410.72 1029.51 410.472 1028.82 410.472C1028.12 410.472 1027.54 410.72 1027.07 411.216C1026.61 411.696 1026.38 412.376 1026.38 413.256C1026.38 414.12 1026.61 414.808 1027.07 415.32C1027.54 415.816 1028.12 416.064 1028.82 416.064C1029.51 416.064 1030.09 415.816 1030.55 415.32C1031.03 414.824 1031.27 414.136 1031.27 413.256ZM1049.46 420L1047.03 416.616L1045.11 420H1039.95L1044.44 413.016L1039.76 406.536H1045.04L1047.46 409.92L1049.41 406.536H1054.57L1049.98 413.4L1054.74 420H1049.46ZM1060.9 405.288C1060.07 405.288 1059.4 405.064 1058.89 404.616C1058.39 404.152 1058.14 403.576 1058.14 402.888C1058.14 402.184 1058.39 401.6 1058.89 401.136C1059.4 400.672 1060.07 400.44 1060.9 400.44C1061.72 400.44 1062.37 400.672 1062.87 401.136C1063.38 401.6 1063.64 402.184 1063.64 402.888C1063.64 403.576 1063.38 404.152 1062.87 404.616C1062.37 405.064 1061.72 405.288 1060.9 405.288ZM1063.23 406.536V420H1058.53V406.536H1063.23ZM1074.57 420.168C1073.23 420.168 1072.02 419.888 1070.95 419.328C1069.89 418.768 1069.06 417.968 1068.45 416.928C1067.85 415.888 1067.54 414.664 1067.54 413.256C1067.54 411.864 1067.85 410.648 1068.45 409.608C1069.08 408.568 1069.92 407.768 1070.97 407.208C1072.05 406.648 1073.25 406.368 1074.6 406.368C1075.94 406.368 1077.14 406.648 1078.2 407.208C1079.27 407.768 1080.11 408.568 1080.72 409.608C1081.34 410.648 1081.65 411.864 1081.65 413.256C1081.65 414.648 1081.34 415.872 1080.72 416.928C1080.11 417.968 1079.27 418.768 1078.2 419.328C1077.13 419.888 1075.92 420.168 1074.57 420.168ZM1074.57 416.088C1075.23 416.088 1075.77 415.848 1076.21 415.368C1076.65 414.872 1076.88 414.168 1076.88 413.256C1076.88 412.344 1076.65 411.648 1076.21 411.168C1075.77 410.688 1075.24 410.448 1074.6 410.448C1073.96 410.448 1073.42 410.688 1072.99 411.168C1072.56 411.648 1072.34 412.344 1072.34 413.256C1072.34 414.184 1072.55 414.888 1072.97 415.368C1073.38 415.848 1073.92 416.088 1074.57 416.088ZM1091.7 420.168C1090.49 420.168 1089.4 419.968 1088.44 419.568C1087.5 419.152 1086.74 418.592 1086.18 417.888C1085.64 417.168 1085.34 416.36 1085.27 415.464H1089.83C1089.9 415.896 1090.1 416.232 1090.43 416.472C1090.77 416.712 1091.18 416.832 1091.68 416.832C1092.06 416.832 1092.37 416.752 1092.59 416.592C1092.82 416.432 1092.93 416.224 1092.93 415.968C1092.93 415.632 1092.74 415.384 1092.38 415.224C1092.01 415.064 1091.4 414.888 1090.55 414.696C1089.59 414.504 1088.79 414.288 1088.15 414.048C1087.51 413.808 1086.95 413.416 1086.47 412.872C1086.01 412.328 1085.78 411.592 1085.78 410.664C1085.78 409.864 1085.99 409.144 1086.42 408.504C1086.86 407.848 1087.49 407.328 1088.32 406.944C1089.17 406.56 1090.18 406.368 1091.37 406.368C1093.13 406.368 1094.51 406.8 1095.52 407.664C1096.53 408.528 1097.11 409.664 1097.27 411.072H1093.02C1092.94 410.64 1092.75 410.312 1092.45 410.088C1092.16 409.848 1091.77 409.728 1091.27 409.728C1090.89 409.728 1090.59 409.8 1090.38 409.944C1090.19 410.088 1090.1 410.288 1090.1 410.544C1090.1 410.864 1090.28 411.112 1090.65 411.288C1091.02 411.448 1091.61 411.616 1092.42 411.792C1093.4 412 1094.21 412.232 1094.85 412.488C1095.5 412.744 1096.07 413.16 1096.55 413.736C1097.05 414.296 1097.3 415.064 1097.3 416.04C1097.3 416.824 1097.06 417.528 1096.6 418.152C1096.15 418.776 1095.5 419.272 1094.66 419.64C1093.82 419.992 1092.84 420.168 1091.7 420.168ZM1104.29 420.192C1103.46 420.192 1102.78 419.968 1102.27 419.52C1101.78 419.056 1101.53 418.472 1101.53 417.768C1101.53 417.064 1101.78 416.48 1102.27 416.016C1102.78 415.552 1103.46 415.32 1104.29 415.32C1105.1 415.32 1105.76 415.552 1106.26 416.016C1106.77 416.48 1107.02 417.064 1107.02 417.768C1107.02 418.456 1106.77 419.032 1106.26 419.496C1105.76 419.96 1105.1 420.192 1104.29 420.192ZM1116.59 406.368C1117.51 406.368 1118.3 406.552 1118.97 406.92C1119.66 407.288 1120.19 407.784 1120.55 408.408V406.536H1125.26V419.856C1125.26 421.12 1125.02 422.256 1124.54 423.264C1124.06 424.288 1123.31 425.104 1122.28 425.712C1121.27 426.32 1119.99 426.624 1118.44 426.624C1116.36 426.624 1114.7 426.136 1113.45 425.16C1112.2 424.184 1111.49 422.856 1111.31 421.176H1115.95C1116.04 421.608 1116.28 421.944 1116.67 422.184C1117.05 422.424 1117.55 422.544 1118.15 422.544C1119.75 422.544 1120.55 421.648 1120.55 419.856V418.128C1120.19 418.752 1119.66 419.248 1118.97 419.616C1118.3 419.984 1117.51 420.168 1116.59 420.168C1115.52 420.168 1114.55 419.888 1113.67 419.328C1112.8 418.768 1112.11 417.968 1111.6 416.928C1111.11 415.872 1110.86 414.648 1110.86 413.256C1110.86 411.864 1111.11 410.648 1111.6 409.608C1112.11 408.568 1112.8 407.768 1113.67 407.208C1114.55 406.648 1115.52 406.368 1116.59 406.368ZM1120.55 413.256C1120.55 412.392 1120.31 411.712 1119.83 411.216C1119.37 410.72 1118.79 410.472 1118.11 410.472C1117.4 410.472 1116.82 410.72 1116.35 411.216C1115.89 411.696 1115.66 412.376 1115.66 413.256C1115.66 414.12 1115.89 414.808 1116.35 415.32C1116.82 415.816 1117.4 416.064 1118.11 416.064C1118.79 416.064 1119.37 415.816 1119.83 415.32C1120.31 414.824 1120.55 414.136 1120.55 413.256ZM1143.2 413.112C1143.2 413.48 1143.18 413.848 1143.13 414.216H1134.23C1134.28 414.952 1134.48 415.504 1134.83 415.872C1135.2 416.224 1135.66 416.4 1136.22 416.4C1137 416.4 1137.56 416.048 1137.9 415.344H1142.92C1142.71 416.272 1142.3 417.104 1141.69 417.84C1141.1 418.56 1140.35 419.128 1139.44 419.544C1138.52 419.96 1137.52 420.168 1136.41 420.168C1135.08 420.168 1133.9 419.888 1132.86 419.328C1131.84 418.768 1131.03 417.968 1130.44 416.928C1129.86 415.888 1129.57 414.664 1129.57 413.256C1129.57 411.848 1129.86 410.632 1130.44 409.608C1131.01 408.568 1131.81 407.768 1132.84 407.208C1133.88 406.648 1135.07 406.368 1136.41 406.368C1137.74 406.368 1138.92 406.64 1139.94 407.184C1140.96 407.728 1141.76 408.512 1142.34 409.536C1142.92 410.544 1143.2 411.736 1143.2 413.112ZM1138.4 411.936C1138.4 411.36 1138.21 410.912 1137.83 410.592C1137.44 410.256 1136.96 410.088 1136.39 410.088C1135.81 410.088 1135.34 410.248 1134.97 410.568C1134.6 410.872 1134.36 411.328 1134.25 411.936H1138.4ZM1155.47 415.992V420H1153.43C1149.99 420 1148.27 418.296 1148.27 414.888V410.448H1146.62V406.536H1148.27V403.272H1153V406.536H1155.45V410.448H1153V414.96C1153 415.328 1153.08 415.592 1153.24 415.752C1153.42 415.912 1153.7 415.992 1154.1 415.992H1155.47Z" fill="#FF0C80"/>
<path d="M1165.33 425.256C1163.8 423.784 1162.59 421.864 1161.71 419.496C1160.83 417.128 1160.39 414.576 1160.39 411.84C1160.39 409.072 1160.83 406.496 1161.71 404.112C1162.61 401.712 1163.85 399.776 1165.43 398.304H1170.04V398.736C1168.41 400.384 1167.13 402.368 1166.22 404.688C1165.33 406.992 1164.88 409.376 1164.88 411.84C1164.88 414.272 1165.32 416.632 1166.2 418.92C1167.09 421.208 1168.33 423.176 1169.92 424.824V425.256H1165.33ZM1061.75 446.848H1057.02L1059.78 440.08H1062.9L1061.75 446.848ZM1067.73 446.848H1063L1065.76 440.08H1068.88L1067.73 446.848ZM1084.79 448.312C1085.78 448.536 1086.56 449.032 1087.14 449.8C1087.73 450.552 1088.03 451.416 1088.03 452.392C1088.03 453.832 1087.53 454.96 1086.54 455.776C1085.55 456.592 1084.15 457 1082.36 457H1073.99V440.08H1082.1C1083.83 440.08 1085.18 440.464 1086.15 441.232C1087.15 442 1087.64 443.08 1087.64 444.472C1087.64 445.464 1087.38 446.296 1086.85 446.968C1086.34 447.624 1085.65 448.072 1084.79 448.312ZM1078.69 446.8H1081.07C1082.25 446.8 1082.84 446.312 1082.84 445.336C1082.84 444.328 1082.25 443.824 1081.07 443.824H1078.69V446.8ZM1081.43 453.208C1082.61 453.208 1083.2 452.712 1083.2 451.72C1083.2 451.208 1083.04 450.816 1082.72 450.544C1082.42 450.272 1081.98 450.136 1081.4 450.136H1078.69V453.208H1081.43ZM1091.72 450.256C1091.72 448.864 1091.97 447.648 1092.46 446.608C1092.98 445.568 1093.66 444.768 1094.53 444.208C1095.41 443.648 1096.38 443.368 1097.46 443.368C1098.38 443.368 1099.18 443.552 1099.86 443.92C1100.53 444.288 1101.05 444.784 1101.42 445.408V443.536H1106.12V457H1101.42V455.128C1101.05 455.752 1100.52 456.248 1099.83 456.616C1099.16 456.984 1098.37 457.168 1097.46 457.168C1096.38 457.168 1095.41 456.888 1094.53 456.328C1093.66 455.768 1092.98 454.968 1092.46 453.928C1091.97 452.872 1091.72 451.648 1091.72 450.256ZM1101.42 450.256C1101.42 449.392 1101.18 448.712 1100.7 448.216C1100.23 447.72 1099.66 447.472 1098.97 447.472C1098.26 447.472 1097.68 447.72 1097.22 448.216C1096.75 448.696 1096.52 449.376 1096.52 450.256C1096.52 451.12 1096.75 451.808 1097.22 452.32C1097.68 452.816 1098.26 453.064 1098.97 453.064C1099.66 453.064 1100.23 452.816 1100.7 452.32C1101.18 451.824 1101.42 451.136 1101.42 450.256ZM1110.43 450.256C1110.43 448.864 1110.72 447.648 1111.3 446.608C1111.87 445.568 1112.67 444.768 1113.7 444.208C1114.74 443.648 1115.92 443.368 1117.25 443.368C1118.96 443.368 1120.4 443.84 1121.57 444.784C1122.74 445.712 1123.49 447.016 1123.82 448.696H1118.83C1118.54 447.816 1117.98 447.376 1117.15 447.376C1116.56 447.376 1116.09 447.624 1115.74 448.12C1115.4 448.6 1115.23 449.312 1115.23 450.256C1115.23 451.2 1115.4 451.92 1115.74 452.416C1116.09 452.912 1116.56 453.16 1117.15 453.16C1118 453.16 1118.56 452.72 1118.83 451.84H1123.82C1123.49 453.504 1122.74 454.808 1121.57 455.752C1120.4 456.696 1118.96 457.168 1117.25 457.168C1115.92 457.168 1114.74 456.888 1113.7 456.328C1112.67 455.768 1111.87 454.968 1111.3 453.928C1110.72 452.888 1110.43 451.664 1110.43 450.256ZM1136.6 457L1132.88 451.48V457H1128.18V439.24H1132.88V448.816L1136.6 443.536H1142.24L1136.94 450.304L1142.34 457H1136.6ZM1158.98 450.112C1158.98 450.48 1158.96 450.848 1158.91 451.216H1150.01C1150.05 451.952 1150.25 452.504 1150.61 452.872C1150.97 453.224 1151.44 453.4 1152 453.4C1152.78 453.4 1153.34 453.048 1153.68 452.344H1158.69C1158.49 453.272 1158.08 454.104 1157.47 454.84C1156.88 455.56 1156.13 456.128 1155.21 456.544C1154.3 456.96 1153.29 457.168 1152.19 457.168C1150.86 457.168 1149.68 456.888 1148.64 456.328C1147.61 455.768 1146.81 454.968 1146.21 453.928C1145.64 452.888 1145.35 451.664 1145.35 450.256C1145.35 448.848 1145.64 447.632 1146.21 446.608C1146.79 445.568 1147.59 444.768 1148.61 444.208C1149.65 443.648 1150.85 443.368 1152.19 443.368C1153.52 443.368 1154.69 443.64 1155.72 444.184C1156.74 444.728 1157.54 445.512 1158.12 446.536C1158.69 447.544 1158.98 448.736 1158.98 450.112ZM1154.18 448.936C1154.18 448.36 1153.99 447.912 1153.61 447.592C1153.22 447.256 1152.74 447.088 1152.17 447.088C1151.59 447.088 1151.12 447.248 1150.75 447.568C1150.38 447.872 1150.14 448.328 1150.03 448.936H1154.18ZM1172.11 443.416C1173.67 443.416 1174.9 443.936 1175.81 444.976C1176.72 446 1177.18 447.392 1177.18 449.152V457H1172.47V449.776C1172.47 449.008 1172.27 448.408 1171.87 447.976C1171.47 447.528 1170.94 447.304 1170.27 447.304C1169.56 447.304 1169.01 447.528 1168.61 447.976C1168.21 448.408 1168.01 449.008 1168.01 449.776V457H1163.31V443.536H1168.01V445.456C1168.43 444.848 1168.99 444.36 1169.69 443.992C1170.39 443.608 1171.2 443.416 1172.11 443.416ZM1181.39 450.256C1181.39 448.864 1181.64 447.648 1182.14 446.608C1182.65 445.568 1183.34 444.768 1184.22 444.208C1185.1 443.648 1186.08 443.368 1187.15 443.368C1188.02 443.368 1188.78 443.552 1189.46 443.92C1190.14 444.272 1190.68 444.76 1191.06 445.384V439.24H1195.79V457H1191.06V455.128C1190.7 455.752 1190.18 456.248 1189.5 456.616C1188.83 456.984 1188.04 457.168 1187.13 457.168C1186.06 457.168 1185.08 456.888 1184.2 456.328C1183.34 455.768 1182.65 454.968 1182.14 453.928C1181.64 452.872 1181.39 451.648 1181.39 450.256ZM1191.09 450.256C1191.09 449.392 1190.85 448.712 1190.37 448.216C1189.9 447.72 1189.33 447.472 1188.64 447.472C1187.94 447.472 1187.35 447.72 1186.89 448.216C1186.42 448.696 1186.19 449.376 1186.19 450.256C1186.19 451.12 1186.42 451.808 1186.89 452.32C1187.35 452.816 1187.94 453.064 1188.64 453.064C1189.33 453.064 1189.9 452.816 1190.37 452.32C1190.85 451.824 1191.09 451.136 1191.09 450.256ZM1202.02 440.08H1206.78L1204.02 446.848H1200.87L1202.02 440.08ZM1208 440.08H1212.75L1209.99 446.848H1206.85L1208 440.08ZM1216.25 462.256V461.824C1217.83 460.176 1219.07 458.208 1219.95 455.92C1220.84 453.632 1221.29 451.272 1221.29 448.84C1221.29 446.376 1220.83 443.992 1219.92 441.688C1219.03 439.368 1217.76 437.384 1216.13 435.736V435.304H1220.74C1222.32 436.776 1223.55 438.712 1224.43 441.112C1225.33 443.496 1225.78 446.072 1225.78 448.84C1225.78 451.576 1225.34 454.128 1224.46 456.496C1223.58 458.864 1222.37 460.784 1220.83 462.256H1216.25Z" fill="#9667B3"/>
</g>
<defs>
<filter id="filter0_dii_1_11" x="-20" y="-10" width="253" height="243" filterUnits="userSpaceOnUse" color-interpolation-filters="sRGB">
<feFlood flood-opacity="0" result="BackgroundImageFix"/>
<feColorMatrix in="SourceAlpha" type="matrix" values="0 0 0 0 0 0 0 0 0 0 0 0 0 0 0 0 0 0 127 0" result="hardAlpha"/>
<feMorphology radius="2" operator="erode" in="SourceAlpha" result="effect1_dropShadow_1_11"/>
<feOffset dx="15" dy="15"/>
<feGaussianBlur stdDeviation="10"/>
<feComposite in2="hardAlpha" operator="out"/>
<feColorMatrix type="matrix" values="0 0 0 0 0.570833 0 0 0 0 0.306823 0 0 0 0 0.49691 0 0 0 0.7 0"/>
<feBlend mode="normal" in2="BackgroundImageFix" result="effect1_dropShadow_1_11"/>
<feBlend mode="normal" in="SourceGraphic" in2="effect1_dropShadow_1_11" result="shape"/>
<feColorMatrix in="SourceAlpha" type="matrix" values="0 0 0 0 0 0 0 0 0 0 0 0 0 0 0 0 0 0 127 0" result="hardAlpha"/>
<feOffset dx="-20" dy="-10"/>
<feGaussianBlur stdDeviation="10"/>
<feComposite in2="hardAlpha" operator="arithmetic" k2="-1" k3="1"/>
<feColorMatrix type="matrix" values="0 0 0 0 1 0 0 0 0 0 0 0 0 0 0.36 0 0 0 0.25 0"/>
<feBlend mode="normal" in2="shape" result="effect2_innerShadow_1_11"/>
<feColorMatrix in="SourceAlpha" type="matrix" values="0 0 0 0 0 0 0 0 0 0 0 0 0 0 0 0 0 0 127 0" result="hardAlpha"/>
<feOffset dx="8" dy="8"/>
<feGaussianBlur stdDeviation="4.5"/>
<feComposite in2="hardAlpha" operator="arithmetic" k2="-1" k3="1"/>
<feColorMatrix type="matrix" values="0 0 0 0 1 0 0 0 0 0 0 0 0 0 0.3 0 0 0 0.08 0"/>
<feBlend mode="normal" in2="effect2_innerShadow_1_11" result="effect3_innerShadow_1_11"/>
</filter>
<filter id="filter1_dii_1_11" x="1037" y="347" width="253" height="243" filterUnits="userSpaceOnUse" color-interpolation-filters="sRGB">
<feFlood flood-opacity="0" result="BackgroundImageFix"/>
<feColorMatrix in="SourceAlpha" type="matrix" values="0 0 0 0 0 0 0 0 0 0 0 0 0 0 0 0 0 0 127 0" result="hardAlpha"/>
<feMorphology radius="2" operator="erode" in="SourceAlpha" result="effect1_dropShadow_1_11"/>
<feOffset dx="-15" dy="15"/>
<feGaussianBlur stdDeviation="10"/>
<feComposite in2="hardAlpha" operator="out"/>
<feColorMatrix type="matrix" values="0 0 0 0 0.570833 0 0 0 0 0.306823 0 0 0 0 0.49691 0 0 0 0.7 0"/>
<feBlend mode="normal" in2="BackgroundImageFix" result="effect1_dropShadow_1_11"/>
<feBlend mode="normal" in="SourceGraphic" in2="effect1_dropShadow_1_11" result="shape"/>
<feColorMatrix in="SourceAlpha" type="matrix" values="0 0 0 0 0 0 0 0 0 0 0 0 0 0 0 0 0 0 127 0" result="hardAlpha"/>
<feOffset dx="20" dy="-10"/>
<feGaussianBlur stdDeviation="10"/>
<feComposite in2="hardAlpha" operator="arithmetic" k2="-1" k3="1"/>
<feColorMatrix type="matrix" values="0 0 0 0 1 0 0 0 0 0 0 0 0 0 0.36 0 0 0 0.25 0"/>
<feBlend mode="normal" in2="shape" result="effect2_innerShadow_1_11"/>
<feColorMatrix in="SourceAlpha" type="matrix" values="0 0 0 0 0 0 0 0 0 0 0 0 0 0 0 0 0 0 127 0" result="hardAlpha"/>
<feOffset dx="-8" dy="8"/>
<feGaussianBlur stdDeviation="4.5"/>
<feComposite in2="hardAlpha" operator="arithmetic" k2="-1" k3="1"/>
<feColorMatrix type="matrix" values="0 0 0 0 1 0 0 0 0 0 0 0 0 0 0.3 0 0 0 0.08 0"/>
<feBlend mode="normal" in2="effect2_innerShadow_1_11" result="effect3_innerShadow_1_11"/>
</filter>
<clipPath id="clip0_1_11">
<rect width="1270" height="584" fill="white"/>
</clipPath>
</defs>
</svg>
