<svg width="257" height="258" viewBox="0 0 257 258" fill="none" xmlns="http://www.w3.org/2000/svg">
<g clip-path="url(#clip0_1_2)">
<g filter="url(#filter0_dii_1_2)">
<circle cx="100" cy="125" r="100" fill="#FDFDFD"/>
</g>
<path d="M36.6 92.46L32.76 88.1L36.6 83.72H41.52L37.68 88.1L41.52 92.46H36.6ZM58.2283 80.9V95H54.3083V89.34H49.5283V95H45.6083V80.9H49.5283V86.2H54.3083V80.9H58.2283ZM69.0916 91.66V95H67.3916C64.5249 95 63.0916 93.58 63.0916 90.74V87.04H61.7116V83.78H63.0916V81.06H67.0316V83.78H69.0716V87.04H67.0316V90.8C67.0316 91.1067 67.0982 91.3267 67.2316 91.46C67.3782 91.5933 67.6182 91.66 67.9516 91.66H69.0916ZM87.5495 83.68C88.9629 83.68 90.0695 84.1067 90.8695 84.96C91.6829 85.8133 92.0895 86.98 92.0895 88.46V95H88.1695V88.98C88.1695 88.38 88.0029 87.9133 87.6695 87.58C87.3362 87.2467 86.8829 87.08 86.3095 87.08C85.7362 87.08 85.2829 87.2467 84.9495 87.58C84.6162 87.9133 84.4495 88.38 84.4495 88.98V95H80.5295V88.98C80.5295 88.38 80.3629 87.9133 80.0295 87.58C79.7095 87.2467 79.2629 87.08 78.6895 87.08C78.1029 87.08 77.6429 87.2467 77.3095 87.58C76.9762 87.9133 76.8095 88.38 76.8095 88.98V95H72.8895V83.78H76.8095V85.26C77.1562 84.78 77.6029 84.4 78.1495 84.12C78.7095 83.8267 79.3495 83.68 80.0695 83.68C80.8962 83.68 81.6295 83.86 82.2695 84.22C82.9229 84.58 83.4362 85.0867 83.8095 85.74C84.2095 85.1267 84.7362 84.6333 85.3895 84.26C86.0429 83.8733 86.7629 83.68 87.5495 83.68ZM100.157 80.2V95H96.2372V80.2H100.157ZM104.11 83.72H109.01L112.85 88.1L109.01 92.46H104.11L107.95 88.1L104.11 83.72ZM36.6 123.46L32.76 119.1L36.6 114.72H41.52L37.68 119.1L41.52 123.46H36.6ZM44.9683 120.38C44.9683 119.22 45.1749 118.207 45.5883 117.34C46.0149 116.473 46.5949 115.807 47.3283 115.34C48.0616 114.873 48.8749 114.64 49.7683 114.64C50.4883 114.64 51.1283 114.793 51.6883 115.1C52.2616 115.393 52.7083 115.8 53.0283 116.32V111.2H56.9683V126H53.0283V124.44C52.7216 124.96 52.2883 125.373 51.7283 125.68C51.1683 125.987 50.5083 126.14 49.7483 126.14C48.8549 126.14 48.0416 125.907 47.3083 125.44C46.5883 124.973 46.0149 124.307 45.5883 123.44C45.1749 122.56 44.9683 121.54 44.9683 120.38ZM53.0483 120.38C53.0483 119.66 52.8483 119.093 52.4483 118.68C52.0616 118.267 51.5816 118.06 51.0083 118.06C50.4216 118.06 49.9349 118.267 49.5483 118.68C49.1616 119.08 48.9683 119.647 48.9683 120.38C48.9683 121.1 49.1616 121.673 49.5483 122.1C49.9349 122.513 50.4216 122.72 51.0083 122.72C51.5816 122.72 52.0616 122.513 52.4483 122.1C52.8483 121.687 53.0483 121.113 53.0483 120.38ZM63.182 113.74C62.4887 113.74 61.9287 113.553 61.502 113.18C61.0887 112.793 60.882 112.313 60.882 111.74C60.882 111.153 61.0887 110.667 61.502 110.28C61.9287 109.893 62.4887 109.7 63.182 109.7C63.862 109.7 64.4087 109.893 64.822 110.28C65.2487 110.667 65.462 111.153 65.462 111.74C65.462 112.313 65.2487 112.793 64.822 113.18C64.4087 113.553 63.862 113.74 63.182 113.74ZM65.122 114.78V126H61.202V114.78H65.122ZM74.7344 122.3L76.8344 114.78H81.0144L77.1544 126H72.2744L68.4144 114.78H72.5944L74.7344 122.3ZM32.48 150.38C32.48 149.22 32.72 148.207 33.2 147.34C33.68 146.473 34.3467 145.807 35.2 145.34C36.0667 144.873 37.0533 144.64 38.16 144.64C39.5867 144.64 40.7867 145.033 41.76 145.82C42.7333 146.593 43.36 147.68 43.64 149.08H39.48C39.24 148.347 38.7733 147.98 38.08 147.98C37.5867 147.98 37.1933 148.187 36.9 148.6C36.62 149 36.48 149.593 36.48 150.38C36.48 151.167 36.62 151.767 36.9 152.18C37.1933 152.593 37.5867 152.8 38.08 152.8C38.7867 152.8 39.2533 152.433 39.48 151.7H43.64C43.36 153.087 42.7333 154.173 41.76 154.96C40.7867 155.747 39.5867 156.14 38.16 156.14C37.0533 156.14 36.0667 155.907 35.2 155.44C34.3467 154.973 33.68 154.307 33.2 153.44C32.72 152.573 32.48 151.553 32.48 150.38ZM51.1884 141.2V156H47.2684V141.2H51.1884Z" fill="#FF0C80"/>
<path d="M54.7808 150.38C54.7808 149.22 54.9874 148.207 55.4008 147.34C55.8274 146.473 56.4008 145.807 57.1208 145.34C57.8541 144.873 58.6674 144.64 59.5608 144.64C60.3341 144.64 61.0008 144.793 61.5608 145.1C62.1208 145.407 62.5541 145.82 62.8608 146.34V144.78H66.7808V156H62.8608V154.44C62.5541 154.96 62.1141 155.373 61.5408 155.68C60.9808 155.987 60.3208 156.14 59.5608 156.14C58.6674 156.14 57.8541 155.907 57.1208 155.44C56.4008 154.973 55.8274 154.307 55.4008 153.44C54.9874 152.56 54.7808 151.54 54.7808 150.38ZM62.8608 150.38C62.8608 149.66 62.6608 149.093 62.2608 148.68C61.8741 148.267 61.3941 148.06 60.8208 148.06C60.2341 148.06 59.7474 148.267 59.3608 148.68C58.9741 149.08 58.7808 149.647 58.7808 150.38C58.7808 151.1 58.9741 151.673 59.3608 152.1C59.7474 152.513 60.2341 152.72 60.8208 152.72C61.3941 152.72 61.8741 152.513 62.2608 152.1C62.6608 151.687 62.8608 151.113 62.8608 150.38ZM75.7945 156.14C74.7812 156.14 73.8745 155.973 73.0745 155.64C72.2879 155.293 71.6612 154.827 71.1945 154.24C70.7412 153.64 70.4879 152.967 70.4345 152.22H74.2345C74.2879 152.58 74.4545 152.86 74.7345 153.06C75.0145 153.26 75.3612 153.36 75.7745 153.36C76.0945 153.36 76.3479 153.293 76.5345 153.16C76.7212 153.027 76.8145 152.853 76.8145 152.64C76.8145 152.36 76.6612 152.153 76.3545 152.02C76.0479 151.887 75.5412 151.74 74.8345 151.58C74.0345 151.42 73.3679 151.24 72.8345 151.04C72.3012 150.84 71.8345 150.513 71.4345 150.06C71.0479 149.607 70.8545 148.993 70.8545 148.22C70.8545 147.553 71.0345 146.953 71.3945 146.42C71.7545 145.873 72.2812 145.44 72.9745 145.12C73.6812 144.8 74.5279 144.64 75.5145 144.64C76.9812 144.64 78.1345 145 78.9745 145.72C79.8145 146.44 80.3012 147.387 80.4345 148.56H76.8945C76.8279 148.2 76.6679 147.927 76.4145 147.74C76.1745 147.54 75.8479 147.44 75.4345 147.44C75.1145 147.44 74.8679 147.5 74.6945 147.62C74.5345 147.74 74.4545 147.907 74.4545 148.12C74.4545 148.387 74.6079 148.593 74.9145 148.74C75.2212 148.873 75.7145 149.013 76.3945 149.16C77.2079 149.333 77.8812 149.527 78.4145 149.74C78.9612 149.953 79.4345 150.3 79.8345 150.78C80.2479 151.247 80.4545 151.887 80.4545 152.7C80.4545 153.353 80.2612 153.94 79.8745 154.46C79.5012 154.98 78.9612 155.393 78.2545 155.7C77.5612 155.993 76.7412 156.14 75.7945 156.14ZM89.1617 156.14C88.1484 156.14 87.2417 155.973 86.4417 155.64C85.6551 155.293 85.0284 154.827 84.5617 154.24C84.1084 153.64 83.8551 152.967 83.8017 152.22H87.6017C87.6551 152.58 87.8217 152.86 88.1017 153.06C88.3817 153.26 88.7284 153.36 89.1417 153.36C89.4617 153.36 89.7151 153.293 89.9017 153.16C90.0884 153.027 90.1817 152.853 90.1817 152.64C90.1817 152.36 90.0284 152.153 89.7217 152.02C89.4151 151.887 88.9084 151.74 88.2017 151.58C87.4017 151.42 86.7351 151.24 86.2017 151.04C85.6684 150.84 85.2017 150.513 84.8017 150.06C84.4151 149.607 84.2217 148.993 84.2217 148.22C84.2217 147.553 84.4017 146.953 84.7617 146.42C85.1217 145.873 85.6484 145.44 86.3417 145.12C87.0484 144.8 87.8951 144.64 88.8817 144.64C90.3484 144.64 91.5017 145 92.3417 145.72C93.1817 146.44 93.6684 147.387 93.8017 148.56H90.2617C90.1951 148.2 90.0351 147.927 89.7817 147.74C89.5417 147.54 89.2151 147.44 88.8017 147.44C88.4817 147.44 88.2351 147.5 88.0617 147.62C87.9017 147.74 87.8217 147.907 87.8217 148.12C87.8217 148.387 87.9751 148.593 88.2817 148.74C88.5884 148.873 89.0817 149.013 89.7617 149.16C90.5751 149.333 91.2484 149.527 91.7817 149.74C92.3284 149.953 92.8017 150.3 93.2017 150.78C93.6151 151.247 93.8217 151.887 93.8217 152.7C93.8217 153.353 93.6284 153.94 93.2417 154.46C92.8684 154.98 92.3284 155.393 91.6217 155.7C90.9284 155.993 90.1084 156.14 89.1617 156.14ZM108.969 144.66V148.2H97.5089V144.66H108.969ZM108.969 150.02V153.54H97.5089V150.02H108.969ZM113.932 141.9H117.892L115.592 147.54H112.972L113.932 141.9ZM118.912 141.9H122.872L120.572 147.54H117.952L118.912 141.9ZM136.426 141.9V145.02H130.786V147.5H134.946V150.48H130.786V156H126.866V141.9H136.426ZM143.997 146.76C144.437 146.12 144.97 145.613 145.597 145.24C146.224 144.867 146.897 144.68 147.617 144.68V148.86H146.517C145.664 148.86 145.03 149.027 144.617 149.36C144.204 149.693 143.997 150.273 143.997 151.1V156H140.077V144.78H143.997V146.76ZM156.242 156.14C155.122 156.14 154.116 155.907 153.222 155.44C152.342 154.973 151.649 154.307 151.142 153.44C150.636 152.573 150.382 151.553 150.382 150.38C150.382 149.22 150.636 148.207 151.142 147.34C151.662 146.473 152.362 145.807 153.242 145.34C154.136 144.873 155.142 144.64 156.262 144.64C157.382 144.64 158.382 144.873 159.262 145.34C160.156 145.807 160.856 146.473 161.362 147.34C161.882 148.207 162.142 149.22 162.142 150.38C162.142 151.54 161.882 152.56 161.362 153.44C160.856 154.307 160.156 154.973 159.262 155.44C158.369 155.907 157.362 156.14 156.242 156.14ZM156.242 152.74C156.789 152.74 157.242 152.54 157.602 152.14C157.976 151.727 158.162 151.14 158.162 150.38C158.162 149.62 157.976 149.04 157.602 148.64C157.242 148.24 156.796 148.04 156.262 148.04C155.729 148.04 155.282 148.24 154.922 148.64C154.562 149.04 154.382 149.62 154.382 150.38C154.382 151.153 154.556 151.74 154.902 152.14C155.249 152.54 155.696 152.74 156.242 152.74ZM173.077 144.68C174.371 144.68 175.397 145.113 176.157 145.98C176.917 146.833 177.297 147.993 177.297 149.46V156H173.377V149.98C173.377 149.34 173.211 148.84 172.877 148.48C172.544 148.107 172.097 147.92 171.537 147.92C170.951 147.92 170.491 148.107 170.157 148.48C169.824 148.84 169.657 149.34 169.657 149.98V156H165.737V144.78H169.657V146.38C170.004 145.873 170.471 145.467 171.057 145.16C171.644 144.84 172.317 144.68 173.077 144.68ZM188.068 152.66V156H186.368C183.501 156 182.068 154.58 182.068 151.74V148.04H180.688V144.78H182.068V142.06H186.008V144.78H188.048V148.04H186.008V151.8C186.008 152.107 186.075 152.327 186.208 152.46C186.355 152.593 186.595 152.66 186.928 152.66H188.068ZM202.586 150.26C202.586 150.567 202.566 150.873 202.526 151.18H195.106C195.146 151.793 195.313 152.253 195.606 152.56C195.913 152.853 196.299 153 196.766 153C197.419 153 197.886 152.707 198.166 152.12H202.346C202.173 152.893 201.833 153.587 201.326 154.2C200.833 154.8 200.206 155.273 199.446 155.62C198.686 155.967 197.846 156.14 196.926 156.14C195.819 156.14 194.833 155.907 193.966 155.44C193.113 154.973 192.439 154.307 191.946 153.44C191.466 152.573 191.226 151.553 191.226 150.38C191.226 149.207 191.466 148.193 191.946 147.34C192.426 146.473 193.093 145.807 193.946 145.34C194.813 144.873 195.806 144.64 196.926 144.64C198.033 144.64 199.013 144.867 199.866 145.32C200.719 145.773 201.386 146.427 201.866 147.28C202.346 148.12 202.586 149.113 202.586 150.26ZM198.586 149.28C198.586 148.8 198.426 148.427 198.106 148.16C197.786 147.88 197.386 147.74 196.906 147.74C196.426 147.74 196.033 147.873 195.726 148.14C195.419 148.393 195.219 148.773 195.126 149.28H198.586ZM213.53 144.68C214.824 144.68 215.85 145.113 216.61 145.98C217.37 146.833 217.75 147.993 217.75 149.46V156H213.83V149.98C213.83 149.34 213.664 148.84 213.33 148.48C212.997 148.107 212.55 147.92 211.99 147.92C211.404 147.92 210.944 148.107 210.61 148.48C210.277 148.84 210.11 149.34 210.11 149.98V156H206.19V144.78H210.11V146.38C210.457 145.873 210.924 145.467 211.51 145.16C212.097 144.84 212.77 144.68 213.53 144.68ZM221.261 150.38C221.261 149.22 221.468 148.207 221.881 147.34C222.308 146.473 222.888 145.807 223.621 145.34C224.355 144.873 225.168 144.64 226.061 144.64C226.781 144.64 227.421 144.793 227.981 145.1C228.555 145.393 229.001 145.8 229.321 146.32V141.2H233.261V156H229.321V154.44C229.015 154.96 228.581 155.373 228.021 155.68C227.461 155.987 226.801 156.14 226.041 156.14C225.148 156.14 224.335 155.907 223.601 155.44C222.881 154.973 222.308 154.307 221.881 153.44C221.468 152.56 221.261 151.54 221.261 150.38ZM229.341 150.38C229.341 149.66 229.141 149.093 228.741 148.68C228.355 148.267 227.875 148.06 227.301 148.06C226.715 148.06 226.228 148.267 225.841 148.68C225.455 149.08 225.261 149.647 225.261 150.38C225.261 151.1 225.455 151.673 225.841 152.1C226.228 152.513 226.715 152.72 227.301 152.72C227.875 152.72 228.355 152.513 228.741 152.1C229.141 151.687 229.341 151.113 229.341 150.38ZM241.195 147.54H237.255L239.555 141.9H242.155L241.195 147.54ZM246.175 147.54H242.235L244.535 141.9H247.135L246.175 147.54Z" fill="#660A75"/>
</g>
<defs>
<filter id="filter0_dii_1_2" x="-20" y="15" width="253" height="243" filterUnits="userSpaceOnUse" color-interpolation-filters="sRGB">
<feFlood flood-opacity="0" result="BackgroundImageFix"/>
<feColorMatrix in="SourceAlpha" type="matrix" values="0 0 0 0 0 0 0 0 0 0 0 0 0 0 0 0 0 0 127 0" result="hardAlpha"/>
<feMorphology radius="2" operator="erode" in="SourceAlpha" result="effect1_dropShadow_1_2"/>
<feOffset dx="15" dy="15"/>
<feGaussianBlur stdDeviation="10"/>
<feComposite in2="hardAlpha" operator="out"/>
<feColorMatrix type="matrix" values="0 0 0 0 0.570833 0 0 0 0 0.306823 0 0 0 0 0.49691 0 0 0 0.7 0"/>
<feBlend mode="normal" in2="BackgroundImageFix" result="effect1_dropShadow_1_2"/>
<feBlend mode="normal" in="SourceGraphic" in2="effect1_dropShadow_1_2" result="shape"/>
<feColorMatrix in="SourceAlpha" type="matrix" values="0 0 0 0 0 0 0 0 0 0 0 0 0 0 0 0 0 0 127 0" result="hardAlpha"/>
<feOffset dx="-20" dy="-10"/>
<feGaussianBlur stdDeviation="10"/>
<feComposite in2="hardAlpha" operator="arithmetic" k2="-1" k3="1"/>
<feColorMatrix type="matrix" values="0 0 0 0 1 0 0 0 0 0 0 0 0 0 0.36 0 0 0 0.25 0"/>
<feBlend mode="normal" in2="shape" result="effect2_innerShadow_1_2"/>
<feColorMatrix in="SourceAlpha" type="matrix" values="0 0 0 0 0 0 0 0 0 0 0 0 0 0 0 0 0 0 127 0" result="hardAlpha"/>
<feOffset dx="8" dy="8"/>
<feGaussianBlur stdDeviation="4.5"/>
<feComposite in2="hardAlpha" operator="arithmetic" k2="-1" k3="1"/>
<feColorMatrix type="matrix" values="0 0 0 0 1 0 0 0 0 0 0 0 0 0 0.3 0 0 0 0.08 0"/>
<feBlend mode="normal" in2="effect2_innerShadow_1_2" result="effect3_innerShadow_1_2"/>
</filter>
<clipPath id="clip0_1_2">
<rect width="257" height="258" fill="white"/>
</clipPath>
</defs>
</svg>
