<svg width="257" height="258" viewBox="0 0 257 258" fill="none" xmlns="http://www.w3.org/2000/svg">
<g clip-path="url(#clip0_1_2)">
<g filter="url(#filter0_dii_1_2)">
<circle cx="100" cy="125" r="100" fill="#FDFDFD"/>
</g>
<path d="M51.016 139.196C48.72 139.196 46.8347 138.655 45.36 137.572C43.8853 136.471 43.092 134.903 42.98 132.868H48.832C48.888 133.559 49.0933 134.063 49.448 134.38C49.8027 134.697 50.26 134.856 50.82 134.856C51.324 134.856 51.7347 134.735 52.052 134.492C52.388 134.231 52.556 133.876 52.556 133.428C52.556 132.849 52.2853 132.401 51.744 132.084C51.2027 131.767 50.3253 131.412 49.112 131.02C47.824 130.591 46.7787 130.18 45.976 129.788C45.192 129.377 44.5013 128.789 43.904 128.024C43.3253 127.24 43.036 126.223 43.036 124.972C43.036 123.703 43.3533 122.62 43.988 121.724C44.6227 120.809 45.5 120.119 46.62 119.652C47.74 119.185 49.0093 118.952 50.428 118.952C52.724 118.952 54.5533 119.493 55.916 120.576C57.2973 121.64 58.0347 123.143 58.128 125.084H52.164C52.1453 124.487 51.9587 124.039 51.604 123.74C51.268 123.441 50.8293 123.292 50.288 123.292C49.8773 123.292 49.5413 123.413 49.28 123.656C49.0187 123.899 48.888 124.244 48.888 124.692C48.888 125.065 49.028 125.392 49.308 125.672C49.6067 125.933 49.9707 126.167 50.4 126.372C50.8293 126.559 51.464 126.801 52.304 127.1C53.5547 127.529 54.5813 127.959 55.384 128.388C56.2053 128.799 56.9053 129.387 57.484 130.152C58.0813 130.899 58.38 131.851 58.38 133.008C58.38 134.184 58.0813 135.239 57.484 136.172C56.9053 137.105 56.056 137.843 54.936 138.384C53.8347 138.925 52.528 139.196 51.016 139.196ZM73.5593 139L69.2193 132.56V139H63.7313V118.28H69.2193V129.452L73.5593 123.292H80.1393L73.9513 131.188L80.2513 139H73.5593ZM87.4322 121.836C86.4615 121.836 85.6775 121.575 85.0802 121.052C84.5015 120.511 84.2122 119.839 84.2122 119.036C84.2122 118.215 84.5015 117.533 85.0802 116.992C85.6775 116.451 86.4615 116.18 87.4322 116.18C88.3842 116.18 89.1495 116.451 89.7282 116.992C90.3255 117.533 90.6242 118.215 90.6242 119.036C90.6242 119.839 90.3255 120.511 89.7282 121.052C89.1495 121.575 88.3842 121.836 87.4322 121.836ZM90.1482 123.292V139H84.6602V123.292H90.1482ZM101.561 118.28V139H96.0735V118.28H101.561ZM112.975 118.28V139H107.487V118.28H112.975ZM125.592 139.196C124.173 139.196 122.904 138.963 121.784 138.496C120.683 138.011 119.805 137.357 119.152 136.536C118.517 135.696 118.163 134.753 118.088 133.708H123.408C123.483 134.212 123.716 134.604 124.108 134.884C124.5 135.164 124.985 135.304 125.564 135.304C126.012 135.304 126.367 135.211 126.628 135.024C126.889 134.837 127.02 134.595 127.02 134.296C127.02 133.904 126.805 133.615 126.376 133.428C125.947 133.241 125.237 133.036 124.248 132.812C123.128 132.588 122.195 132.336 121.448 132.056C120.701 131.776 120.048 131.319 119.488 130.684C118.947 130.049 118.676 129.191 118.676 128.108C118.676 127.175 118.928 126.335 119.432 125.588C119.936 124.823 120.673 124.216 121.644 123.768C122.633 123.32 123.819 123.096 125.2 123.096C127.253 123.096 128.868 123.6 130.044 124.608C131.22 125.616 131.901 126.941 132.088 128.584H127.132C127.039 128.08 126.815 127.697 126.46 127.436C126.124 127.156 125.667 127.016 125.088 127.016C124.64 127.016 124.295 127.1 124.052 127.268C123.828 127.436 123.716 127.669 123.716 127.968C123.716 128.341 123.931 128.631 124.36 128.836C124.789 129.023 125.48 129.219 126.432 129.424C127.571 129.667 128.513 129.937 129.26 130.236C130.025 130.535 130.688 131.02 131.248 131.692C131.827 132.345 132.116 133.241 132.116 134.38C132.116 135.295 131.845 136.116 131.304 136.844C130.781 137.572 130.025 138.151 129.036 138.58C128.065 138.991 126.917 139.196 125.592 139.196Z" fill="#FF0C80"/>
<path d="M139.066 139.16C138.373 139.16 137.813 138.973 137.386 138.6C136.973 138.213 136.766 137.727 136.766 137.14C136.766 136.553 136.973 136.067 137.386 135.68C137.813 135.293 138.373 135.1 139.066 135.1C139.746 135.1 140.293 135.293 140.706 135.68C141.133 136.067 141.346 136.553 141.346 137.14C141.346 137.713 141.133 138.193 140.706 138.58C140.293 138.967 139.746 139.16 139.066 139.16ZM152.322 139L149.522 133.8H149.102V139H145.182V124.9H151.362C152.495 124.9 153.455 125.1 154.242 125.5C155.028 125.887 155.622 126.427 156.022 127.12C156.422 127.8 156.622 128.567 156.622 129.42C156.622 130.38 156.355 131.227 155.822 131.96C155.302 132.68 154.535 133.193 153.522 133.5L156.702 139H152.322ZM149.102 131.12H151.042C151.575 131.12 151.975 130.993 152.242 130.74C152.508 130.487 152.642 130.12 152.642 129.64C152.642 129.187 152.502 128.833 152.222 128.58C151.955 128.313 151.562 128.18 151.042 128.18H149.102V131.12ZM164.324 128.04V130.34H168.824V133.32H164.324V135.86H169.424V139H160.404V124.9H169.424V128.04H164.324ZM182.281 136.7H177.281L176.521 139H172.401L177.541 124.9H182.061L187.181 139H183.041L182.281 136.7ZM181.301 133.7L179.781 129.14L178.281 133.7H181.301ZM196.039 124.9C197.519 124.9 198.812 125.2 199.919 125.8C201.039 126.387 201.899 127.213 202.499 128.28C203.099 129.347 203.399 130.567 203.399 131.94C203.399 133.3 203.092 134.513 202.479 135.58C201.879 136.647 201.019 137.487 199.899 138.1C198.792 138.7 197.506 139 196.039 139H190.459V124.9H196.039ZM195.739 135.54C196.886 135.54 197.786 135.227 198.439 134.6C199.092 133.973 199.419 133.087 199.419 131.94C199.419 130.78 199.092 129.887 198.439 129.26C197.786 128.62 196.886 128.3 195.739 128.3H194.379V135.54H195.739ZM223.626 124.9V139H219.706V131.22L217.046 139H213.766L211.086 131.16V139H207.166V124.9H211.906L215.446 134.06L218.906 124.9H223.626ZM231.778 128.04V130.34H236.278V133.32H231.778V135.86H236.878V139H227.858V124.9H236.878V128.04H231.778Z" fill="#AB00AE"/>
</g>
<defs>
<filter id="filter0_dii_1_2" x="-20" y="15" width="253" height="243" filterUnits="userSpaceOnUse" color-interpolation-filters="sRGB">
<feFlood flood-opacity="0" result="BackgroundImageFix"/>
<feColorMatrix in="SourceAlpha" type="matrix" values="0 0 0 0 0 0 0 0 0 0 0 0 0 0 0 0 0 0 127 0" result="hardAlpha"/>
<feMorphology radius="2" operator="erode" in="SourceAlpha" result="effect1_dropShadow_1_2"/>
<feOffset dx="15" dy="15"/>
<feGaussianBlur stdDeviation="10"/>
<feComposite in2="hardAlpha" operator="out"/>
<feColorMatrix type="matrix" values="0 0 0 0 0.570833 0 0 0 0 0.306823 0 0 0 0 0.49691 0 0 0 0.7 0"/>
<feBlend mode="normal" in2="BackgroundImageFix" result="effect1_dropShadow_1_2"/>
<feBlend mode="normal" in="SourceGraphic" in2="effect1_dropShadow_1_2" result="shape"/>
<feColorMatrix in="SourceAlpha" type="matrix" values="0 0 0 0 0 0 0 0 0 0 0 0 0 0 0 0 0 0 127 0" result="hardAlpha"/>
<feOffset dx="-20" dy="-10"/>
<feGaussianBlur stdDeviation="10"/>
<feComposite in2="hardAlpha" operator="arithmetic" k2="-1" k3="1"/>
<feColorMatrix type="matrix" values="0 0 0 0 1 0 0 0 0 0 0 0 0 0 0.36 0 0 0 0.25 0"/>
<feBlend mode="normal" in2="shape" result="effect2_innerShadow_1_2"/>
<feColorMatrix in="SourceAlpha" type="matrix" values="0 0 0 0 0 0 0 0 0 0 0 0 0 0 0 0 0 0 127 0" result="hardAlpha"/>
<feOffset dx="8" dy="8"/>
<feGaussianBlur stdDeviation="4.5"/>
<feComposite in2="hardAlpha" operator="arithmetic" k2="-1" k3="1"/>
<feColorMatrix type="matrix" values="0 0 0 0 1 0 0 0 0 0 0 0 0 0 0.3 0 0 0 0.08 0"/>
<feBlend mode="normal" in2="effect2_innerShadow_1_2" result="effect3_innerShadow_1_2"/>
</filter>
<clipPath id="clip0_1_2">
<rect width="257" height="258" fill="white"/>
</clipPath>
</defs>
</svg>
