<?xml version="1.0" encoding="UTF-8"?>
<svg width="297mm" height="100mm" version="1.1" viewBox="0 0 297 105" xmlns="http://www.w3.org/2000/svg" xmlns:cc="http://creativecommons.org/ns#" xmlns:dc="http://purl.org/dc/elements/1.1/" xmlns:rdf="http://www.w3.org/1999/02/22-rdf-syntax-ns#">
<defs>
<clipPath id="b">
<path d="m0 600h600v-600h-600z"/>
</clipPath>
<clipPath id="a">
<path d="m504.16-311.25-106.92 61.717c-4.0001 2.3054-6.4607 6.5702-6.4607 11.184v123.54c0 4.6159 2.4606 8.8781 6.4556 11.189l106.92 61.768c3.9976 2.3079 8.9239 2.3079 12.924 0l106.95-61.768c3.9976-2.3105 6.4582-6.5727 6.4582-11.189v-123.53c0-4.6184-2.4606-8.8832-6.4607-11.189l-106.95-61.717c-1.9975-1.1552-4.2266-1.7303-6.4582-1.7303-2.2291 0-4.4607 0.57508-6.4556 1.7303" fill="#fff"/>
</clipPath>
</defs>
<metadata>
<rdf:RDF>
<cc:Work rdf:about="">
<dc:format>image/svg+xml</dc:format>
<dc:type rdf:resource="http://purl.org/dc/dcmitype/StillImage"/>
<dc:title/>
</cc:Work>
</rdf:RDF>
</metadata>
<g>
<path transform="matrix(.85414 0 0 -.85414 -136.62 325.68)" d="m238.76 373.13-42.02-24.254c-1.572-0.906-2.539-2.582-2.539-4.395v-48.548c0-1.814 0.967-3.489 2.537-4.397l42.02-24.274c1.571-0.907 3.507-0.907 5.079 0l42.029 24.274c1.571 0.908 2.538 2.583 2.538 4.397v48.546c0 1.815-0.967 3.491-2.539 4.397l-42.03 24.254c-0.785 0.454-1.661 0.68-2.538 0.68-0.876 0-1.753-0.226-2.537-0.68" fill="#2261a8"/>
</g>
<g transform="translate(0,-137)" fill="#fff">
<g transform="matrix(.33567 0 0 -.33567 93.833 320.86)">
<g clip-path="url(#b)" fill="#fff"></g>
</g>
<g transform="matrix(.33567 0 0 -.33567 93.833 320.86)">
<g fill="#fff">
<g fill="#fff"></g>
</g>
</g>
<g transform="matrix(.81272 0 0 -.81272 -122.49 447.84)">
<g fill="#fff">
<g fill="#fff"></g>
</g>
</g>
<g transform="matrix(.33567 0 0 .33567 -101.92 248.66)" clip-path="url(#a)" aria-label="TS">
<path d="m463.03-49.656h25.147v-100.05h34.846v-22.093h-94.839v22.093h34.846z" style="font-feature-settings:normal;font-variant-caps:normal;font-variant-ligatures:normal;font-variant-numeric:normal"/>
<path d="m575.64-48.039c23.889 0 41.672-12.394 41.672-35.026 0-21.015-12.034-30.356-33.409-39.516l-6.2867-2.6943c-10.777-4.6701-15.447-7.7236-15.447-15.268 0-6.107 4.6701-10.777 12.034-10.777 7.1848 0 11.855 3.0535 16.166 10.777l19.578-12.573c-8.2625-14.549-19.758-20.117-35.744-20.117-22.452 0-36.822 14.37-36.822 33.229 0 20.477 12.034 30.176 30.176 37.9l6.2867 2.6943c11.496 5.0293 18.321 8.0828 18.321 16.705 0 7.1848-6.6459 12.394-17.064 12.394-12.394 0-19.399-6.4663-24.787-15.268l-20.477 11.855c7.3644 14.549 22.452 25.685 45.803 25.685z" style="font-feature-settings:normal;font-variant-caps:normal;font-variant-ligatures:normal;font-variant-numeric:normal"/>
</g>
</g>
<g transform="translate(0,-137)">
<path d="m154.45 203.92c0-0.64946-0.34184-1.2464-0.90241-1.5684l-14.943-8.5997c-0.25259-0.14852-0.53587-0.22613-0.82268-0.23777h-0.15451c-0.2854 0.0116-0.56868 0.0892-0.82515 0.23777l-14.943 8.5997c-0.55704 0.32209-0.90346 0.91899-0.90346 1.5684l0.0328 23.157c0 0.32208 0.16722 0.62159 0.45085 0.77964 0.27729 0.16615 0.62019 0.16615 0.89641 0l8.8808-5.0853c0.56162-0.33372 0.90346-0.92216 0.90346-1.566v-10.819c0-0.64488 0.34149-1.2421 0.90099-1.5624l3.7814-2.178c0.28222-0.16299 0.58984-0.24236 0.90487-0.24236 0.30763 0 0.62371 0.0794 0.89747 0.24236l3.7804 2.178c0.5595 0.32032 0.9024 0.91757 0.9024 1.5624v10.819c0 0.64382 0.34643 1.2361 0.90452 1.566l8.8784 5.0853c0.2787 0.16615 0.62654 0.16615 0.90241 0 0.27517-0.15805 0.44838-0.45756 0.44838-0.77964z" fill="#333" fill-rule="evenodd"/>
<path d="m224.96 215.98c0 0.16087-0.0861 0.31009-0.22578 0.39017l-5.1329 2.9588c-0.139 0.0801-0.31115 0.0801-0.4505 0l-5.1326-2.9588c-0.14005-0.0801-0.22578-0.2293-0.22578-0.39017v-5.9267c0-0.16086 0.0857-0.31009 0.22543-0.39087l5.1326-2.9648c0.1397-0.0808 0.31185-0.0808 0.45155 0l5.1326 2.9648c0.13935 0.0808 0.22543 0.23001 0.22543 0.39087zm1.3871-43.89c-0.27975-0.15557-0.62124-0.15204-0.89747 0.01-0.27552 0.16228-0.4452 0.45826-0.4452 0.77823v22.933c0 0.22507-0.12065 0.43391-0.31539 0.5468-0.19543 0.11324-0.43638 0.11324-0.63182 0l-3.743-2.1562c-0.55845-0.32173-1.2453-0.32138-1.8034 7.2e-4l-14.949 8.6272c-0.5588 0.32244-0.90276 0.91828-0.90276 1.5632v17.258c0 0.64523 0.34396 1.2407 0.9024 1.5639l14.948 8.6339c0.5588 0.32244 1.2471 0.32244 1.8059 0l14.951-8.6339c0.55809-0.32315 0.90241-0.91863 0.90241-1.5639v-43.02c0-0.65405-0.35419-1.2576-0.92605-1.5766z" fill="#333" fill-rule="evenodd"/>
<path d="m276.13 209.89c0.55598-0.32315 0.89818-0.91758 0.89818-1.5607v-4.1822c0-0.64312-0.3422-1.2382-0.89888-1.5614l-14.853-8.6236c-0.5588-0.32491-1.2488-0.32561-1.8087-2e-3l-14.944 8.6272c-0.5581 0.32244-0.90241 0.91828-0.90241 1.5632v17.254c0 0.64876 0.34855 1.2474 0.91193 1.5681l14.851 8.4624c0.54751 0.31256 1.2188 0.31609 1.7699 0.01l8.9828-4.9929c0.28469-0.1584 0.46214-0.45755 0.46391-0.78281 2e-3 -0.32562-0.17075-0.62689-0.45297-0.78882l-15.039-8.632c-0.28081-0.16087-0.45332-0.46002-0.45332-0.78317v-5.407c0-0.32244 0.1718-0.62089 0.45155-0.78176l4.6803-2.6984c0.27869-0.16087 0.62265-0.16087 0.90099 0l4.6828 2.6984c0.27975 0.16087 0.45191 0.45932 0.45191 0.78176v4.2542c0 0.32314 0.17251 0.62159 0.45226 0.78246 0.27975 0.16157 0.62442 0.16051 0.90347-2e-3z" fill="#333" fill-rule="evenodd"/>
<path d="m260.15 209.09c0.10724-0.0621 0.23918-0.0621 0.34643 0l2.8684 1.6549c0.10725 0.0621 0.17322 0.17604 0.17322 0.30022v3.3122c0 0.12382-0.066 0.23812-0.17322 0.30021l-2.8684 1.6549c-0.10725 0.0617-0.23919 0.0617-0.34643 0l-2.8663-1.6549c-0.10689-0.0621-0.17321-0.17639-0.17321-0.30021v-3.3122c0-0.12418 0.0663-0.23813 0.17321-0.30022z" fill="#2261a8" fill-rule="evenodd"/>
<path d="m177.66 194.05-14.824 8.5563c-0.55457 0.31961-0.89571 0.91087-0.89571 1.5505v17.127c0 0.63994 0.34114 1.2308 0.895 1.5512l14.824 8.5633c0.55422 0.31997 1.2372 0.31997 1.7918 0l14.827-8.5633c0.55421-0.32033 0.89535-0.91123 0.89535-1.5512v-17.126c0-0.64029-0.34114-1.2316-0.89571-1.5512l-14.827-8.5563c-0.27693-0.16016-0.58597-0.23989-0.89535-0.23989-0.30904 0-0.61842 0.0797-0.895 0.23989" fill="#2261a8"/>
</g>
</svg>
