<svg id="svg" xmlns="http://www.w3.org/2000/svg" xmlnsXlink="http://www.w3.org/1999/xlink" width="400" height="462.7906976744186" viewBox="0, 0, 400,462.7906976744186" version="1.1"><g id="svgg"><path id="path0" d="M182.000 19.431 C 180.790 19.505,176.380 19.767,172.200 20.011 C 155.393 20.995,131.842 23.878,113.200 27.233 C 92.056 31.039,63.361 38.000,55.566 41.214 C 40.393 47.471,28.097 60.175,22.139 75.751 C 19.289 83.202,17.916 92.118,16.217 114.200 C 15.878 118.600,15.383 124.630,15.116 127.600 C 13.716 143.181,14.594 179.479,16.800 197.200 C 24.292 257.391,47.527 308.716,87.421 353.200 C 115.893 384.949,156.686 413.837,195.368 429.645 L 200.135 431.593 205.768 429.348 C 272.217 402.864,334.709 342.047,362.070 277.238 C 362.961 275.127,364.044 272.590,364.477 271.600 C 366.226 267.595,370.934 254.260,372.950 247.600 C 379.488 226.003,383.359 204.563,385.300 179.209 C 386.378 165.123,385.809 132.759,384.128 112.600 C 383.780 108.420,383.494 103.740,383.493 102.200 C 383.492 100.609,383.380 99.822,383.233 100.378 C 383.075 100.976,382.778 99.343,382.469 96.178 C 381.522 86.485,379.510 78.531,376.164 71.254 C 375.419 69.634,374.925 68.121,375.067 67.892 C 375.212 67.657,375.131 67.596,374.879 67.751 C 374.376 68.062,373.039 65.785,373.390 65.216 C 373.513 65.018,373.402 64.725,373.145 64.566 C 372.833 64.373,372.784 64.451,373.000 64.800 C 373.221 65.157,373.168 65.227,372.835 65.021 C 372.566 64.855,372.441 64.469,372.558 64.164 C 372.675 63.859,372.553 63.652,372.286 63.705 C 372.019 63.757,371.824 63.492,371.853 63.116 C 371.882 62.739,371.702 62.469,371.453 62.516 C 371.204 62.562,370.998 62.287,370.996 61.903 C 370.993 61.520,370.813 61.190,370.596 61.169 C 369.873 61.101,369.161 60.279,369.364 59.749 C 369.475 59.461,369.365 59.102,369.121 58.951 C 368.836 58.775,368.781 58.878,368.968 59.238 C 369.128 59.547,368.841 59.264,368.330 58.609 C 367.818 57.953,367.400 57.287,367.400 57.127 C 367.400 56.662,363.853 53.389,363.480 53.510 C 363.293 53.570,363.238 53.462,363.358 53.268 C 363.478 53.075,363.102 52.485,362.523 51.958 C 361.944 51.431,361.625 51.270,361.813 51.600 C 362.002 51.930,361.516 51.570,360.734 50.800 C 358.866 48.961,358.003 48.296,357.987 48.684 C 357.980 48.858,357.755 48.723,357.487 48.384 C 356.747 47.447,354.001 45.457,353.994 45.853 C 353.991 46.044,353.856 45.999,353.694 45.754 C 353.272 45.114,348.801 42.657,348.794 43.062 C 348.791 43.248,348.656 43.195,348.494 42.945 C 348.218 42.518,343.783 40.497,342.422 40.178 C 342.080 40.098,339.910 39.473,337.600 38.788 C 332.118 37.163,314.370 32.732,308.000 31.398 C 305.250 30.823,301.830 30.078,300.400 29.745 C 285.311 26.223,252.059 21.650,229.400 19.981 C 223.754 19.565,186.774 19.136,182.000 19.431 M228.800 50.965 C 261.359 53.504,299.088 60.104,329.200 68.527 C 340.438 71.671,348.485 80.122,351.169 91.600 C 354.173 104.445,355.904 150.401,354.370 176.600 C 349.599 258.100,309.451 328.679,241.800 374.496 C 228.895 383.236,208.255 394.702,200.670 397.343 C 199.872 397.622,187.330 391.534,179.749 387.188 C 99.227 341.026,52.473 267.965,46.009 178.200 C 43.964 149.791,46.559 96.180,50.452 86.418 C 54.818 75.471,61.056 71.067,78.497 66.617 C 112.037 58.059,144.372 52.763,175.000 50.811 C 178.740 50.573,182.700 50.314,183.800 50.236 C 189.175 49.856,221.230 50.375,228.800 50.965 M194.889 85.700 C 166.618 113.428,146.134 151.799,140.408 187.755 C 133.249 232.712,143.320 267.974,172.888 301.476 C 178.075 307.353,189.320 318.240,189.536 317.593 C 189.628 317.316,189.374 316.905,188.971 316.680 C 188.125 316.206,174.034 302.046,172.116 299.742 C 171.410 298.894,170.222 297.480,169.475 296.600 C 168.729 295.720,167.101 293.650,165.858 292.000 C 164.615 290.350,163.380 288.741,163.113 288.424 C 162.259 287.412,157.120 279.491,155.961 277.400 C 151.693 269.700,147.897 261.828,146.994 258.800 C 146.830 258.250,146.370 257.080,145.971 256.200 C 145.292 254.700,143.254 248.185,142.342 244.600 C 138.884 231.005,137.470 200.876,139.995 194.600 C 140.172 194.160,140.627 191.550,141.006 188.800 C 142.159 180.426,146.266 164.175,148.436 159.400 C 148.636 158.960,149.345 157.011,150.011 155.069 C 150.677 153.127,151.468 151.147,151.769 150.669 C 152.070 150.191,152.447 149.350,152.606 148.800 C 153.330 146.302,161.600 129.756,163.002 128.000 C 163.266 127.670,163.913 126.602,164.441 125.628 C 165.350 123.948,170.498 115.914,171.763 114.200 C 172.741 112.875,174.330 110.662,175.067 109.600 C 176.287 107.843,179.709 103.488,182.140 100.600 C 187.469 94.271,189.575 91.966,194.369 87.219 L 199.400 82.238 199.501 184.534 C 199.587 271.764,199.685 286.961,200.166 287.715 C 200.476 288.202,202.906 295.136,205.565 303.124 L 210.400 317.649 210.493 333.324 L 210.586 349.000 210.793 333.370 L 211.000 317.741 214.200 314.806 C 256.371 276.136,270.564 230.029,257.161 175.251 C 250.441 147.791,235.915 120.282,215.742 96.814 C 210.786 91.049,200.917 81.200,200.096 81.200 C 199.756 81.200,197.412 83.225,194.889 85.700 " stroke="none" fill="#56b05c" fill-rule="evenodd"></path><path id="path1" d="M183.800 50.236 C 182.700 50.314,178.740 50.573,175.000 50.811 C 132.538 53.517,71.511 65.550,60.661 73.356 C 54.579 77.732,50.076 84.758,48.842 91.800 C 46.003 107.999,44.424 156.175,46.009 178.200 C 52.473 267.965,99.227 341.026,179.749 387.188 C 187.330 391.534,199.872 397.622,200.670 397.343 C 223.642 389.342,264.197 360.525,286.926 336.053 C 342.268 276.467,362.293 205.765,352.766 103.600 C 350.799 82.498,344.238 72.734,329.200 68.527 C 299.088 60.104,261.359 53.504,228.800 50.965 C 221.230 50.375,189.175 49.856,183.800 50.236 M366.873 56.973 C 375.612 66.963,380.467 78.911,382.381 95.136 C 383.038 100.706,383.124 101.067,383.153 98.400 C 383.308 84.322,376.905 67.337,367.901 57.939 C 366.746 56.733,366.283 56.298,366.873 56.973 M206.257 86.714 C 253.328 133.541,273.506 202.163,255.542 254.324 C 248.003 276.215,234.095 296.563,214.200 314.806 L 211.000 317.741 210.800 333.370 L 210.600 349.000 200.100 349.107 L 189.600 349.213 189.600 333.760 L 189.600 318.307 183.240 312.153 C 152.472 282.381,138.137 251.190,138.223 214.200 C 138.315 174.754,152.436 136.861,179.963 102.200 C 186.177 94.376,198.809 81.200,200.096 81.200 C 200.436 81.200,203.209 83.681,206.257 86.714 M383.309 103.200 C 383.309 104.190,383.387 104.595,383.482 104.100 C 383.578 103.605,383.578 102.795,383.482 102.300 C 383.387 101.805,383.309 102.210,383.309 103.200 " stroke="none" fill="#5b4434" fill-rule="evenodd"></path><path id="path2" d="M0.000 231.200 L 0.000 462.400 200.000 462.400 L 400.000 462.400 400.000 231.200 L 400.000 0.000 200.000 0.000 L 0.000 0.000 0.000 231.200 M221.043 19.179 C 223.879 19.388,229.170 19.757,232.800 20.000 C 241.966 20.614,251.126 21.490,258.200 22.429 C 261.500 22.867,266.270 23.499,268.800 23.833 C 271.330 24.166,275.290 24.778,277.600 25.191 C 279.910 25.604,283.690 26.241,286.000 26.607 C 288.310 26.972,291.730 27.598,293.600 27.997 C 295.470 28.397,298.080 28.927,299.400 29.176 C 303.627 29.972,314.883 32.465,318.600 33.428 C 320.580 33.941,324.000 34.799,326.200 35.335 C 344.900 39.891,351.341 42.619,360.432 49.836 C 370.155 57.555,378.978 71.463,381.725 83.400 C 383.404 90.699,383.338 89.921,385.649 129.600 C 387.373 159.179,385.736 190.078,381.125 215.000 C 380.474 218.520,379.781 222.281,379.586 223.357 C 374.841 249.486,361.679 283.043,345.602 310.000 C 314.497 362.155,259.630 408.559,202.368 431.140 L 200.136 432.020 196.042 430.398 C 193.791 429.505,191.646 428.606,191.275 428.399 C 190.904 428.192,188.530 427.098,186.000 425.968 C 138.732 404.850,90.976 364.780,62.805 322.600 C 61.630 320.840,60.004 318.410,59.193 317.200 C 57.862 315.216,53.958 308.811,51.879 305.200 C 45.990 294.972,34.400 270.816,34.400 268.771 C 34.400 268.550,34.063 267.700,33.651 266.884 C 29.448 258.554,21.222 228.177,18.248 210.000 C 12.658 175.830,12.654 134.239,18.237 90.215 C 20.589 71.670,30.380 55.986,45.934 45.845 C 52.768 41.390,59.634 38.842,74.200 35.357 C 76.400 34.831,79.550 34.036,81.200 33.591 C 82.850 33.146,85.820 32.442,87.800 32.026 C 89.780 31.611,93.020 30.903,95.000 30.453 C 99.863 29.348,105.864 28.168,112.600 26.992 C 115.680 26.454,120.270 25.654,122.800 25.212 C 128.112 24.286,132.079 23.704,136.600 23.186 C 138.360 22.984,141.023 22.634,142.518 22.409 C 146.520 21.804,159.610 20.542,167.400 20.010 C 171.140 19.755,176.000 19.402,178.200 19.228 C 183.984 18.768,214.975 18.733,221.043 19.179 " stroke="none" fill="#000" fill-rule="evenodd"></path><path id="path3" d="M183.913 19.095 C 185.076 19.176,186.876 19.176,187.913 19.093 C 188.951 19.011,188.000 18.945,185.800 18.946 C 183.600 18.947,182.751 19.014,183.913 19.095 M212.500 19.094 C 213.545 19.176,215.255 19.176,216.300 19.094 C 217.345 19.012,216.490 18.944,214.400 18.944 C 212.310 18.944,211.455 19.012,212.500 19.094 M177.705 19.487 C 178.314 19.579,179.214 19.577,179.705 19.482 C 180.197 19.387,179.700 19.311,178.600 19.314 C 177.500 19.317,177.097 19.395,177.705 19.487 M220.700 19.482 C 221.195 19.578,222.005 19.578,222.500 19.482 C 222.995 19.387,222.590 19.309,221.600 19.309 C 220.610 19.309,220.205 19.387,220.700 19.482 M170.505 19.887 C 171.114 19.979,172.014 19.977,172.505 19.882 C 172.997 19.787,172.500 19.711,171.400 19.714 C 170.300 19.717,169.897 19.795,170.505 19.887 M228.105 19.887 C 228.714 19.979,229.614 19.977,230.105 19.882 C 230.597 19.787,230.100 19.711,229.000 19.714 C 227.900 19.717,227.497 19.795,228.105 19.887 M159.300 20.676 C 159.685 20.776,160.315 20.776,160.700 20.676 C 161.085 20.575,160.770 20.493,160.000 20.493 C 159.230 20.493,158.915 20.575,159.300 20.676 M239.700 20.676 C 240.085 20.776,240.715 20.776,241.100 20.676 C 241.485 20.575,241.170 20.493,240.400 20.493 C 239.630 20.493,239.315 20.575,239.700 20.676 M147.300 21.876 C 147.685 21.976,148.315 21.976,148.700 21.876 C 149.085 21.775,148.770 21.693,148.000 21.693 C 147.230 21.693,146.915 21.775,147.300 21.876 M251.700 21.876 C 252.085 21.976,252.715 21.976,253.100 21.876 C 253.485 21.775,253.170 21.693,252.400 21.693 C 251.630 21.693,251.315 21.775,251.700 21.876 M35.600 54.200 C 33.961 55.850,32.710 57.200,32.820 57.200 C 32.930 57.200,34.361 55.850,36.000 54.200 C 37.639 52.550,38.890 51.200,38.780 51.200 C 38.670 51.200,37.239 52.550,35.600 54.200 M383.314 95.000 C 383.317 96.100,383.395 96.503,383.487 95.895 C 383.579 95.286,383.577 94.386,383.482 93.895 C 383.387 93.403,383.311 93.900,383.314 95.000 M383.701 100.200 C 383.705 101.080,383.787 101.393,383.883 100.895 C 383.979 100.398,383.975 99.678,383.875 99.295 C 383.775 98.913,383.696 99.320,383.701 100.200 M384.101 106.200 C 384.105 107.080,384.187 107.393,384.283 106.895 C 384.379 106.398,384.375 105.678,384.275 105.295 C 384.175 104.913,384.096 105.320,384.101 106.200 M16.101 109.800 C 16.105 110.680,16.187 110.993,16.283 110.495 C 16.379 109.998,16.375 109.278,16.275 108.895 C 16.175 108.513,16.096 108.920,16.101 109.800 M384.909 119.200 C 384.909 120.190,384.987 120.595,385.082 120.100 C 385.178 119.605,385.178 118.795,385.082 118.300 C 384.987 117.805,384.909 118.210,384.909 119.200 M15.309 120.000 C 15.309 120.990,15.387 121.395,15.482 120.900 C 15.578 120.405,15.578 119.595,15.482 119.100 C 15.387 118.605,15.309 119.010,15.309 120.000 M14.914 125.400 C 14.917 126.500,14.995 126.903,15.087 126.295 C 15.179 125.686,15.177 124.786,15.082 124.295 C 14.987 123.803,14.911 124.300,14.914 125.400 M385.740 136.400 C 385.740 138.270,385.809 139.035,385.893 138.100 C 385.977 137.165,385.977 135.635,385.893 134.700 C 385.809 133.765,385.740 134.530,385.740 136.400 M14.179 155.400 C 14.179 162.660,14.233 165.686,14.299 162.125 C 14.365 158.564,14.366 152.624,14.299 148.925 C 14.233 145.226,14.179 148.140,14.179 155.400 M386.170 155.600 C 386.170 160.330,386.228 162.265,386.298 159.900 C 386.369 157.535,386.369 153.665,386.298 151.300 C 386.228 148.935,386.170 150.870,386.170 155.600 M385.731 173.400 C 385.733 174.940,385.805 175.521,385.892 174.691 C 385.979 173.861,385.977 172.601,385.889 171.891 C 385.800 171.181,385.729 171.860,385.731 173.400 M14.901 182.600 C 14.905 183.480,14.987 183.793,15.083 183.295 C 15.179 182.798,15.175 182.078,15.075 181.695 C 14.975 181.313,14.896 181.720,14.901 182.600 M384.901 186.200 C 384.905 187.080,384.987 187.393,385.083 186.895 C 385.179 186.398,385.175 185.678,385.075 185.295 C 384.975 184.913,384.896 185.320,384.901 186.200 M15.293 186.800 C 15.293 187.570,15.375 187.885,15.476 187.500 C 15.576 187.115,15.576 186.485,15.476 186.100 C 15.375 185.715,15.293 186.030,15.293 186.800 M195.042 303.075 L 190.000 318.200 190.000 333.500 L 190.000 348.800 200.200 348.800 L 210.400 348.800 210.400 333.646 L 210.400 318.493 205.361 303.346 C 202.590 295.016,200.269 288.144,200.203 288.075 C 200.137 288.006,197.815 294.756,195.042 303.075 M89.000 355.600 C 89.859 356.480,90.652 357.200,90.762 357.200 C 90.872 357.200,90.259 356.480,89.400 355.600 C 88.541 354.720,87.748 354.000,87.638 354.000 C 87.528 354.000,88.141 354.720,89.000 355.600 M309.775 356.900 L 308.600 358.200 309.900 357.025 C 311.112 355.930,311.384 355.600,311.075 355.600 C 311.006 355.600,310.421 356.185,309.775 356.900 M98.400 365.400 C 99.146 366.170,99.847 366.800,99.957 366.800 C 100.067 366.800,99.546 366.170,98.800 365.400 C 98.054 364.630,97.353 364.000,97.243 364.000 C 97.133 364.000,97.654 364.630,98.400 365.400 M295.375 371.300 L 294.200 372.600 295.500 371.425 C 296.215 370.779,296.800 370.194,296.800 370.125 C 296.800 369.816,296.470 370.088,295.375 371.300 M105.583 372.100 C 107.241 373.866,107.600 374.184,107.600 373.883 C 107.600 373.819,106.745 372.964,105.700 371.983 L 103.800 370.200 105.583 372.100 M290.575 375.700 L 289.400 377.000 290.700 375.825 C 291.415 375.179,292.000 374.594,292.000 374.525 C 292.000 374.216,291.670 374.488,290.575 375.700 " stroke="none" fill="#c1d9bd" fill-rule="evenodd"></path><path id="path4" d="M194.924 19.099 C 197.962 19.167,202.822 19.167,205.724 19.099 C 208.626 19.031,206.140 18.975,200.200 18.975 C 194.260 18.975,191.886 19.031,194.924 19.099 M181.305 19.487 C 181.914 19.579,182.814 19.577,183.305 19.482 C 183.797 19.387,183.300 19.311,182.200 19.314 C 181.100 19.317,180.697 19.395,181.305 19.487 M216.900 19.487 C 217.505 19.578,218.495 19.578,219.100 19.487 C 219.705 19.395,219.210 19.320,218.000 19.320 C 216.790 19.320,216.295 19.395,216.900 19.487 M166.700 20.282 C 167.195 20.378,168.005 20.378,168.500 20.282 C 168.995 20.187,168.590 20.109,167.600 20.109 C 166.610 20.109,166.205 20.187,166.700 20.282 M231.900 20.282 C 232.395 20.378,233.205 20.378,233.700 20.282 C 234.195 20.187,233.790 20.109,232.800 20.109 C 231.810 20.109,231.405 20.187,231.900 20.282 M157.105 21.083 C 157.602 21.179,158.322 21.175,158.705 21.075 C 159.087 20.975,158.680 20.896,157.800 20.901 C 156.920 20.905,156.607 20.987,157.105 21.083 M242.305 21.083 C 242.802 21.179,243.522 21.175,243.905 21.075 C 244.287 20.975,243.880 20.896,243.000 20.901 C 242.120 20.905,241.807 20.987,242.305 21.083 M153.100 21.482 C 153.595 21.578,154.405 21.578,154.900 21.482 C 155.395 21.387,154.990 21.309,154.000 21.309 C 153.010 21.309,152.605 21.387,153.100 21.482 M245.905 21.483 C 246.402 21.579,247.122 21.575,247.505 21.475 C 247.887 21.375,247.480 21.296,246.600 21.301 C 245.720 21.305,245.407 21.387,245.905 21.483 M149.700 21.876 C 150.085 21.976,150.715 21.976,151.100 21.876 C 151.485 21.775,151.170 21.693,150.400 21.693 C 149.630 21.693,149.315 21.775,149.700 21.876 M249.300 21.876 C 249.685 21.976,250.315 21.976,250.700 21.876 C 251.085 21.775,250.770 21.693,250.000 21.693 C 249.230 21.693,248.915 21.775,249.300 21.876 M336.200 38.400 C 336.640 38.589,337.270 38.744,337.600 38.744 C 337.978 38.744,337.904 38.617,337.400 38.400 C 336.960 38.211,336.330 38.056,336.000 38.056 C 335.622 38.056,335.696 38.183,336.200 38.400 M355.600 46.546 C 355.600 46.656,356.140 47.130,356.800 47.600 C 357.460 48.070,358.000 48.364,358.000 48.254 C 358.000 48.144,357.460 47.670,356.800 47.200 C 356.140 46.730,355.600 46.436,355.600 46.546 M364.783 54.100 C 365.764 55.145,366.619 56.000,366.683 56.000 C 366.984 56.000,366.666 55.641,364.900 53.983 L 363.000 52.200 364.783 54.100 M32.975 57.300 L 31.800 58.600 33.100 57.425 C 34.312 56.330,34.584 56.000,34.275 56.000 C 34.206 56.000,33.621 56.585,32.975 57.300 M194.369 87.219 C 189.575 91.966,187.469 94.271,182.140 100.600 C 179.709 103.488,176.287 107.843,175.067 109.600 C 174.330 110.662,172.741 112.875,171.763 114.200 C 170.498 115.914,165.350 123.948,164.441 125.628 C 163.913 126.602,163.266 127.670,163.002 128.000 C 161.600 129.756,153.330 146.302,152.606 148.800 C 152.447 149.350,152.070 150.191,151.769 150.669 C 151.468 151.147,150.677 153.127,150.011 155.069 C 149.345 157.011,148.636 158.960,148.436 159.400 C 146.266 164.175,142.159 180.426,141.006 188.800 C 140.627 191.550,140.172 194.160,139.995 194.600 C 137.470 200.876,138.884 231.005,142.342 244.600 C 143.254 248.185,145.292 254.700,145.971 256.200 C 146.370 257.080,146.830 258.250,146.994 258.800 C 147.897 261.828,151.693 269.700,155.961 277.400 C 157.120 279.491,162.259 287.412,163.113 288.424 C 163.380 288.741,164.615 290.350,165.858 292.000 C 167.101 293.650,168.729 295.720,169.475 296.600 C 170.222 297.480,171.410 298.895,172.116 299.745 C 174.225 302.282,188.760 316.800,189.192 316.800 C 189.449 316.800,189.628 322.523,189.695 332.900 L 189.800 349.000 200.000 349.010 L 210.200 349.020 200.100 348.903 L 190.000 348.786 190.000 333.475 L 190.000 318.163 195.113 302.874 C 197.925 294.466,200.085 287.445,199.914 287.274 C 199.742 287.102,199.556 240.899,199.501 184.600 L 199.400 82.238 194.369 87.219 M382.893 92.000 C 382.893 92.770,382.975 93.085,383.076 92.700 C 383.176 92.315,383.176 91.685,383.076 91.300 C 382.975 90.915,382.893 91.230,382.893 92.000 M18.093 92.400 C 18.093 93.170,18.175 93.485,18.276 93.100 C 18.376 92.715,18.376 92.085,18.276 91.700 C 18.175 91.315,18.093 91.630,18.093 92.400 M383.301 98.200 C 383.305 99.080,383.387 99.393,383.483 98.895 C 383.579 98.398,383.575 97.678,383.475 97.295 C 383.375 96.913,383.296 97.320,383.301 98.200 M383.724 103.800 C 383.726 105.120,383.801 105.612,383.890 104.893 C 383.979 104.174,383.977 103.094,383.886 102.493 C 383.795 101.892,383.722 102.480,383.724 103.800 M384.128 110.000 C 384.128 111.430,384.201 112.015,384.289 111.300 C 384.378 110.585,384.378 109.415,384.289 108.700 C 384.201 107.985,384.128 108.570,384.128 110.000 M16.101 112.600 C 16.105 113.480,16.187 113.793,16.283 113.295 C 16.379 112.798,16.375 112.078,16.275 111.695 C 16.175 111.313,16.096 111.720,16.101 112.600 M384.528 116.000 C 384.528 117.430,384.601 118.015,384.689 117.300 C 384.778 116.585,384.778 115.415,384.689 114.700 C 384.601 113.985,384.528 114.570,384.528 116.000 M15.714 117.400 C 15.717 118.500,15.795 118.903,15.887 118.295 C 15.979 117.686,15.977 116.786,15.882 116.295 C 15.787 115.803,15.711 116.300,15.714 117.400 M384.901 122.200 C 384.905 123.080,384.987 123.393,385.083 122.895 C 385.179 122.398,385.175 121.678,385.075 121.295 C 384.975 120.913,384.896 121.320,384.901 122.200 M15.314 123.400 C 15.317 124.500,15.395 124.903,15.487 124.295 C 15.579 123.686,15.577 122.786,15.482 122.295 C 15.387 121.803,15.311 122.300,15.314 123.400 M14.893 128.400 C 14.893 129.170,14.975 129.485,15.076 129.100 C 15.176 128.715,15.176 128.085,15.076 127.700 C 14.975 127.315,14.893 127.630,14.893 128.400 M385.328 130.000 C 385.328 131.430,385.401 132.015,385.489 131.300 C 385.578 130.585,385.578 129.415,385.489 128.700 C 385.401 127.985,385.328 128.570,385.328 130.000 M14.540 138.000 C 14.540 139.870,14.609 140.635,14.693 139.700 C 14.777 138.765,14.777 137.235,14.693 136.300 C 14.609 135.365,14.540 136.130,14.540 138.000 M385.701 141.000 C 385.705 141.880,385.787 142.193,385.883 141.695 C 385.979 141.198,385.975 140.478,385.875 140.095 C 385.775 139.713,385.696 140.120,385.701 141.000 M385.693 169.600 C 385.693 170.370,385.775 170.685,385.876 170.300 C 385.976 169.915,385.976 169.285,385.876 168.900 C 385.775 168.515,385.693 168.830,385.693 169.600 M14.531 172.200 C 14.533 173.740,14.605 174.321,14.692 173.491 C 14.779 172.661,14.777 171.401,14.689 170.691 C 14.600 169.981,14.529 170.660,14.531 172.200 M385.314 178.200 C 385.317 179.300,385.395 179.703,385.487 179.095 C 385.579 178.486,385.577 177.586,385.482 177.095 C 385.387 176.603,385.311 177.100,385.314 178.200 M14.893 180.000 C 14.893 180.770,14.975 181.085,15.076 180.700 C 15.176 180.315,15.176 179.685,15.076 179.300 C 14.975 178.915,14.893 179.230,14.893 180.000 M15.301 184.200 C 15.305 185.080,15.387 185.393,15.483 184.895 C 15.579 184.398,15.575 183.678,15.475 183.295 C 15.375 182.913,15.296 183.320,15.301 184.200 M384.501 188.600 C 384.505 189.480,384.587 189.793,384.683 189.295 C 384.779 188.798,384.775 188.078,384.675 187.695 C 384.575 187.313,384.496 187.720,384.501 188.600 M15.701 189.000 C 15.705 189.880,15.787 190.193,15.883 189.695 C 15.979 189.198,15.975 188.478,15.875 188.095 C 15.775 187.713,15.696 188.120,15.701 189.000 M384.093 192.400 C 384.093 193.170,384.175 193.485,384.276 193.100 C 384.376 192.715,384.376 192.085,384.276 191.700 C 384.175 191.315,384.093 191.630,384.093 192.400 M16.093 192.800 C 16.093 193.570,16.175 193.885,16.276 193.500 C 16.376 193.115,16.376 192.485,16.276 192.100 C 16.175 191.715,16.093 192.030,16.093 192.800 M383.693 195.600 C 383.693 196.370,383.775 196.685,383.876 196.300 C 383.976 195.915,383.976 195.285,383.876 194.900 C 383.775 194.515,383.693 194.830,383.693 195.600 M373.029 247.029 C 372.881 247.615,372.838 248.172,372.932 248.266 C 373.027 248.360,373.224 247.958,373.371 247.371 C 373.519 246.785,373.562 246.228,373.468 246.134 C 373.373 246.040,373.176 246.442,373.029 247.029 M358.181 285.637 C 357.829 286.318,357.612 286.945,357.699 287.032 C 357.786 287.119,358.156 286.562,358.522 285.795 C 359.344 284.070,359.059 283.938,358.181 285.637 M201.429 291.600 C 201.576 292.150,201.864 292.870,202.067 293.200 C 202.325 293.617,202.357 293.495,202.171 292.800 C 202.024 292.250,201.736 291.530,201.533 291.200 C 201.275 290.783,201.243 290.905,201.429 291.600 M204.229 300.000 C 204.376 300.550,204.664 301.270,204.867 301.600 C 205.125 302.017,205.157 301.895,204.971 301.200 C 204.824 300.650,204.536 299.930,204.333 299.600 C 204.075 299.183,204.043 299.305,204.229 300.000 M206.654 307.200 C 206.789 307.750,207.145 308.740,207.445 309.400 C 207.884 310.364,207.943 310.403,207.746 309.600 C 207.611 309.050,207.255 308.060,206.955 307.400 C 206.516 306.436,206.457 306.397,206.654 307.200 M83.200 348.925 C 83.200 348.994,83.785 349.579,84.500 350.225 L 85.800 351.400 84.625 350.100 C 83.530 348.888,83.200 348.616,83.200 348.925 M315.375 350.500 L 314.200 351.800 315.500 350.625 C 316.215 349.979,316.800 349.394,316.800 349.325 C 316.800 349.016,316.470 349.288,315.375 350.500 M87.400 353.600 C 88.259 354.480,89.052 355.200,89.162 355.200 C 89.272 355.200,88.659 354.480,87.800 353.600 C 86.941 352.720,86.148 352.000,86.038 352.000 C 85.928 352.000,86.541 352.720,87.400 353.600 M311.978 354.300 L 310.600 355.800 312.100 354.422 C 313.496 353.138,313.784 352.800,313.478 352.800 C 313.412 352.800,312.737 353.475,311.978 354.300 M97.200 363.800 C 100.825 367.430,103.881 370.400,103.991 370.400 C 104.101 370.400,101.225 367.430,97.600 363.800 C 93.975 360.170,90.919 357.200,90.809 357.200 C 90.699 357.200,93.575 360.170,97.200 363.800 M302.600 364.000 C 299.306 367.300,296.700 370.000,296.810 370.000 C 296.920 370.000,299.706 367.300,303.000 364.000 C 306.294 360.700,308.900 358.000,308.790 358.000 C 308.680 358.000,305.894 360.700,302.600 364.000 M293.600 372.600 C 292.628 373.590,291.923 374.400,292.033 374.400 C 292.143 374.400,293.028 373.590,294.000 372.600 C 294.972 371.610,295.677 370.800,295.567 370.800 C 295.457 370.800,294.572 371.610,293.600 372.600 M107.183 373.300 C 108.841 375.066,109.200 375.384,109.200 375.083 C 109.200 375.019,108.345 374.164,107.300 373.183 L 105.400 371.400 107.183 373.300 M110.000 375.725 C 110.000 375.794,110.585 376.379,111.300 377.025 L 112.600 378.200 111.425 376.900 C 110.330 375.688,110.000 375.416,110.000 375.725 M286.175 379.300 L 285.000 380.600 286.300 379.425 C 287.015 378.779,287.600 378.194,287.600 378.125 C 287.600 377.816,287.270 378.088,286.175 379.300 M113.200 378.525 C 113.200 378.594,113.785 379.179,114.500 379.825 L 115.800 381.000 114.625 379.700 C 113.530 378.488,113.200 378.216,113.200 378.525 M194.000 429.400 C 194.550 429.714,195.180 429.972,195.400 429.972 C 195.620 429.972,195.350 429.714,194.800 429.400 C 194.250 429.086,193.620 428.828,193.400 428.828 C 193.180 428.828,193.450 429.086,194.000 429.400 M205.600 429.400 C 205.050 429.714,204.780 429.972,205.000 429.972 C 205.220 429.972,205.850 429.714,206.400 429.400 C 206.950 429.086,207.220 428.828,207.000 428.828 C 206.780 428.828,206.150 429.086,205.600 429.400 " stroke="none" fill="#acccac" fill-rule="evenodd"></path></g></svg>