<svg id="svg" version="1.1" xmlns="http://www.w3.org/2000/svg" xmlns:xlink="http://www.w3.org/1999/xlink" width="400" height="360" viewBox="0, 0, 400,360"><g id="svgg"><path id="path0" d="M265.347 22.024 C 252.383 24.703,246.024 27.301,231.557 35.824 C 229.851 36.829,223.511 41.154,221.722 42.532 C 220.600 43.397,219.233 44.428,218.684 44.824 C 216.751 46.220,214.037 48.346,213.681 48.745 C 213.483 48.966,212.430 49.874,211.341 50.761 C 209.336 52.394,207.256 54.264,203.177 58.099 C 200.508 60.608,200.129 60.605,197.480 58.045 C 194.667 55.328,188.116 49.758,184.158 46.717 C 182.178 45.196,180.275 43.702,179.928 43.398 C 179.581 43.093,179.156 42.844,178.982 42.844 C 178.808 42.844,178.477 42.617,178.246 42.339 C 176.633 40.395,161.291 31.347,154.995 28.627 C 154.401 28.370,153.186 27.837,152.295 27.441 C 140.990 22.419,120.751 20.111,117.210 23.441 C 117.022 23.618,116.617 23.767,116.310 23.772 C 115.422 23.789,111.611 25.622,109.451 27.072 C 101.641 32.317,95.853 42.368,93.426 54.905 C 93.157 56.292,92.775 58.155,92.577 59.046 C 91.254 64.996,91.334 87.804,92.705 95.590 C 92.984 97.174,93.374 99.685,93.571 101.170 C 94.020 104.546,95.120 110.379,96.151 114.851 C 97.496 120.686,98.393 119.772,88.029 123.122 C 82.193 125.008,74.779 127.782,73.032 128.733 C 72.506 129.019,71.892 129.253,71.668 129.253 C 70.274 129.253,56.284 136.697,50.405 140.567 C 17.993 161.904,13.985 188.455,39.808 210.764 C 43.553 213.999,45.749 215.799,46.404 216.171 C 46.723 216.352,47.066 216.606,47.165 216.735 C 47.467 217.129,55.466 222.308,58.146 223.844 C 63.620 226.982,72.139 231.047,78.308 233.464 C 80.684 234.395,83.139 235.388,83.763 235.670 C 84.387 235.953,85.172 236.184,85.507 236.184 C 85.843 236.184,86.548 236.407,87.073 236.680 C 88.188 237.260,93.736 239.063,94.410 239.065 C 94.663 239.066,95.389 239.384,96.024 239.771 L 97.180 240.475 96.674 242.200 C 95.916 244.784,93.693 256.194,93.246 259.796 C 93.030 261.532,92.776 263.079,92.681 263.233 C 92.301 263.846,91.454 277.773,91.452 283.432 C 91.441 307.612,97.660 324.290,109.799 332.642 C 111.289 333.668,116.947 336.258,117.732 336.273 C 118.029 336.279,119.001 336.547,119.892 336.867 C 122.307 337.737,133.757 337.712,137.714 336.829 C 143.114 335.623,149.455 333.749,151.755 332.680 C 152.151 332.496,153.528 331.917,154.815 331.393 C 157.336 330.367,167.281 325.309,168.085 324.644 C 168.354 324.422,168.870 324.072,169.232 323.866 C 171.445 322.608,173.765 321.111,176.734 319.025 C 178.591 317.720,180.762 316.194,181.558 315.634 C 184.458 313.594,191.470 307.817,195.991 303.743 C 200.946 299.276,201.051 299.233,202.728 300.949 C 204.153 302.407,210.293 307.922,212.241 309.493 C 213.429 310.451,214.725 311.533,215.122 311.897 C 215.518 312.262,216.539 313.075,217.391 313.705 C 218.243 314.336,220.070 315.703,221.450 316.744 C 224.795 319.266,231.781 324.032,232.135 324.032 C 232.289 324.032,232.999 324.429,233.712 324.913 C 240.434 329.481,252.398 334.532,261.566 336.672 C 266.246 337.765,278.095 337.895,280.828 336.884 C 281.719 336.554,282.700 336.282,283.007 336.279 C 283.732 336.272,289.274 333.592,290.503 332.655 C 298.999 326.171,303.693 318.229,307.090 304.590 C 307.495 302.964,308.211 298.392,308.946 292.737 C 309.517 288.350,309.181 269.626,308.425 263.726 C 307.504 256.535,306.470 250.483,305.226 245.005 C 303.783 238.647,303.325 239.282,311.071 236.884 C 313.537 236.120,321.040 233.368,322.772 232.592 C 323.168 232.415,325.255 231.517,327.409 230.597 C 330.624 229.224,335.716 226.718,343.048 222.899 C 344.395 222.198,351.955 217.251,353.915 215.788 C 357.283 213.275,357.748 212.902,360.388 210.587 C 368.612 203.378,374.083 195.449,376.467 187.287 C 377.573 183.500,377.778 175.669,376.846 172.817 C 376.555 171.926,376.213 170.743,376.086 170.189 C 374.151 161.742,363.965 150.253,350.074 140.849 C 348.258 139.620,346.651 138.614,346.502 138.614 C 346.353 138.614,345.975 138.382,345.662 138.099 C 344.785 137.305,332.972 131.342,328.533 129.452 C 326.355 128.525,324.248 127.616,323.852 127.433 C 321.926 126.540,307.747 121.687,305.671 121.210 C 303.271 120.659,303.265 120.622,304.545 114.092 C 305.180 110.846,305.850 107.624,306.032 106.931 C 306.215 106.238,306.537 104.144,306.748 102.277 C 306.959 100.411,307.282 98.224,307.465 97.417 C 309.014 90.587,308.870 63.881,307.253 58.170 C 306.977 57.194,306.751 55.957,306.751 55.422 C 306.751 54.448,306.396 53.109,304.705 47.705 C 298.777 28.758,282.897 18.396,265.347 22.024 M276.085 37.067 C 284.353 38.263,289.738 46.203,292.576 61.386 C 293.539 66.534,293.564 88.045,292.615 94.509 C 290.853 106.520,289.024 115.471,288.212 116.065 C 287.592 116.518,284.810 116.204,281.368 115.291 C 280.576 115.082,277.903 114.561,275.428 114.135 C 272.952 113.708,270.252 113.210,269.428 113.028 C 266.455 112.371,255.359 110.851,243.417 109.467 C 241.705 109.268,240.644 108.968,240.454 108.628 C 239.871 107.587,227.267 90.859,225.176 88.350 C 224.002 86.943,222.394 85.005,221.602 84.043 C 219.184 81.107,215.266 76.607,213.475 74.707 C 210.856 71.931,210.861 71.603,213.556 69.073 C 218.048 64.855,226.076 58.047,227.411 57.324 C 227.879 57.070,228.264 56.746,228.265 56.604 C 228.267 56.462,228.874 55.945,229.615 55.455 C 230.357 54.965,232.136 53.709,233.570 52.664 C 235.004 51.620,236.261 50.765,236.364 50.765 C 236.467 50.765,237.319 50.226,238.258 49.567 C 250.720 40.816,266.332 35.657,276.085 37.067 M136.814 38.149 C 146.642 40.851,157.503 46.172,167.302 53.086 C 168.850 54.179,170.423 55.278,170.798 55.529 C 171.658 56.106,180.355 62.998,181.140 63.725 C 181.461 64.023,183.447 65.798,185.552 67.671 C 189.318 71.021,189.853 71.842,188.897 72.798 C 188.268 73.427,180.618 82.171,178.758 84.387 C 177.966 85.331,177.151 86.293,176.946 86.526 C 174.759 89.017,162.228 105.334,159.818 108.829 C 159.611 109.129,157.112 109.475,146.285 110.701 C 143.672 110.997,140.837 111.388,139.984 111.569 C 139.131 111.751,137.462 112.008,136.274 112.141 C 135.086 112.274,132.007 112.773,129.433 113.249 C 126.859 113.726,123.699 114.292,122.412 114.507 C 121.125 114.722,119.262 115.120,118.272 115.391 C 114.820 116.335,112.441 116.453,112.053 115.699 C 111.484 114.592,109.844 107.032,108.784 100.630 C 105.990 83.754,105.895 65.388,108.553 56.166 C 108.810 55.275,109.133 54.002,109.272 53.338 C 110.873 45.680,116.905 38.740,123.132 37.392 C 125.487 36.882,133.898 37.347,136.814 38.149 M202.033 84.158 C 202.719 84.901,204.462 86.886,205.906 88.569 C 207.350 90.252,208.960 92.115,209.484 92.709 C 215.102 99.081,221.325 107.632,220.366 107.663 C 210.416 107.988,180.179 107.609,180.086 107.159 C 179.835 105.940,199.147 82.808,200.416 82.808 C 200.619 82.808,201.346 83.416,202.033 84.158 M227.183 123.139 C 233.508 123.806,232.456 122.931,238.554 132.599 C 239.528 134.142,240.847 136.216,241.486 137.208 C 243.221 139.901,248.887 149.360,249.878 151.215 C 250.353 152.106,250.928 153.078,251.155 153.375 C 251.382 153.672,252.258 155.212,253.103 156.796 C 253.948 158.380,254.943 160.184,255.316 160.805 C 256.357 162.539,260.433 170.334,262.865 175.238 L 265.046 179.639 262.551 184.599 C 256.252 197.115,249.888 208.550,242.657 220.342 C 241.503 222.223,240.119 224.491,239.581 225.383 C 238.673 226.887,233.028 235.442,232.703 235.806 C 232.074 236.512,200.739 237.293,189.019 236.895 C 170.112 236.253,168.727 236.161,167.902 235.493 C 167.019 234.778,160.339 224.656,155.646 216.922 C 147.919 204.187,135.734 181.394,135.734 179.674 C 135.734 179.301,137.375 175.783,139.381 171.856 C 141.388 167.929,143.275 164.230,143.576 163.636 C 143.877 163.042,144.726 161.503,145.462 160.216 C 146.199 158.929,147.495 156.581,148.343 154.998 C 150.462 151.043,157.927 138.623,161.213 133.584 C 162.701 131.301,164.666 128.269,165.578 126.847 C 167.367 124.057,167.926 123.692,171.017 123.294 C 177.551 122.452,219.571 122.336,227.183 123.139 M147.776 125.982 C 148.048 126.422,147.517 127.550,145.814 130.153 C 145.037 131.341,142.977 134.702,141.237 137.622 C 136.930 144.850,136.565 145.475,135.928 146.715 C 135.623 147.309,135.000 148.443,134.544 149.235 C 133.149 151.657,130.229 157.061,129.370 158.812 C 128.548 160.486,127.595 161.559,127.244 161.207 C 127.035 160.998,123.829 153.206,122.763 150.315 C 117.182 135.181,116.091 131.524,117.012 131.030 C 117.738 130.641,123.958 129.253,124.975 129.253 C 125.421 129.253,126.687 129.023,127.789 128.742 C 128.891 128.462,131.089 128.038,132.673 127.800 C 134.257 127.563,137.903 127.003,140.774 126.555 C 146.935 125.595,147.508 125.548,147.776 125.982 M260.486 126.774 C 270.707 128.334,271.382 128.452,279.028 130.035 C 283.193 130.897,284.068 131.232,284.068 131.961 C 284.068 132.697,280.505 143.261,278.666 147.975 C 278.241 149.064,277.758 150.360,277.591 150.855 C 277.425 151.350,276.853 152.808,276.322 154.095 C 275.790 155.383,275.053 157.226,274.685 158.192 C 273.161 162.191,272.779 162.078,270.010 156.796 C 268.971 154.815,267.522 152.142,266.790 150.855 C 266.058 149.568,265.345 148.272,265.206 147.975 C 265.066 147.678,264.595 146.840,264.159 146.112 C 263.723 145.385,261.613 141.820,259.469 138.191 C 257.326 134.562,254.839 130.430,253.942 129.008 C 252.074 126.045,252.144 125.462,254.321 125.817 C 255.137 125.950,257.912 126.381,260.486 126.774 M101.894 135.741 C 102.108 136.140,102.829 138.206,103.496 140.331 C 105.103 145.449,105.476 146.523,106.071 147.734 C 106.346 148.295,106.571 149.026,106.571 149.359 C 106.571 149.693,106.895 150.570,107.291 151.309 C 107.687 152.048,108.011 152.851,108.011 153.093 C 108.011 153.574,113.024 166.327,114.153 168.716 C 114.537 169.530,114.851 170.285,114.851 170.394 C 114.851 170.583,116.612 174.535,118.114 177.717 C 119.080 179.764,118.521 181.478,112.847 193.879 C 112.053 195.615,109.790 201.313,109.272 202.880 C 109.010 203.672,108.446 205.212,108.018 206.301 C 106.897 209.153,106.209 211.113,103.865 218.122 C 101.175 226.168,101.366 226.053,95.127 223.371 C 94.477 223.091,93.735 222.862,93.479 222.862 C 92.848 222.862,85.142 220.005,81.368 218.371 C 79.685 217.642,77.741 216.801,77.048 216.503 C 73.922 215.155,66.103 210.990,61.616 208.281 C 51.899 202.414,42.786 193.283,39.518 186.139 C 36.141 178.753,38.138 171.936,46.247 163.178 C 49.310 159.870,58.925 152.563,62.286 150.991 C 62.583 150.852,63.261 150.437,63.793 150.068 C 64.825 149.354,72.449 145.507,76.328 143.744 C 78.339 142.830,81.038 141.735,86.769 139.506 C 87.462 139.237,90.135 138.340,92.709 137.513 C 95.284 136.687,97.957 135.802,98.650 135.547 C 100.513 134.862,101.454 134.918,101.894 135.741 M302.070 135.907 C 307.059 137.300,318.123 141.328,322.772 143.444 C 334.133 148.613,341.013 152.630,348.875 158.684 C 350.533 159.960,357.185 166.648,357.876 167.732 C 358.173 168.199,358.677 168.926,358.996 169.349 C 365.356 177.766,362.403 188.957,351.337 198.381 C 349.884 199.619,348.290 200.980,347.795 201.406 C 343.146 205.408,326.788 214.970,321.985 216.493 C 321.626 216.607,320.360 217.122,319.172 217.639 C 316.103 218.974,309.014 221.626,304.654 223.071 C 300.138 224.568,299.359 224.475,298.801 222.374 C 298.366 220.733,297.531 218.256,296.114 214.401 C 295.605 213.015,294.976 211.233,294.717 210.441 C 294.458 209.649,294.045 208.515,293.798 207.921 C 293.204 206.491,292.232 204.056,291.282 201.620 C 290.858 200.531,290.367 199.316,290.191 198.920 C 290.015 198.524,289.366 196.985,288.749 195.500 C 288.132 194.014,287.483 192.475,287.307 192.079 C 286.756 190.839,284.744 186.399,283.881 184.518 C 283.427 183.528,282.716 181.958,282.302 181.028 L 281.549 179.339 283.022 176.168 C 284.726 172.504,285.203 171.446,286.159 169.217 C 286.541 168.326,287.097 167.030,287.395 166.337 C 287.694 165.644,288.858 162.727,289.983 159.856 C 291.108 156.985,292.344 153.943,292.729 153.096 C 293.114 152.249,293.429 151.307,293.429 151.002 C 293.429 150.697,293.627 150.094,293.869 149.661 C 294.111 149.229,294.503 148.227,294.740 147.435 C 295.385 145.281,297.996 137.784,298.631 136.264 C 299.065 135.223,299.323 134.991,299.818 135.195 C 300.166 135.337,301.179 135.658,302.070 135.907 M194.419 148.131 C 169.325 152.803,159.838 183.503,177.790 201.944 C 188.055 212.488,205.415 214.084,218.182 205.658 C 219.271 204.940,221.215 203.289,222.502 201.990 C 225.762 198.700,227.839 195.488,230.077 190.279 C 232.556 184.509,232.336 174.605,229.563 167.166 C 227.576 161.836,220.688 153.904,216.323 151.919 C 215.860 151.708,214.914 151.229,214.221 150.854 C 209.143 148.103,200.759 146.951,194.419 148.131 M274.524 199.966 C 275.315 201.761,277.484 207.212,279.980 213.681 C 282.133 219.263,282.554 220.425,283.750 224.086 L 284.915 227.650 284.132 228.284 C 283.701 228.632,282.174 229.103,280.738 229.328 C 279.303 229.554,277.784 229.880,277.365 230.052 C 276.945 230.224,275.811 230.467,274.844 230.591 C 273.878 230.716,271.953 231.042,270.567 231.317 C 266.598 232.102,258.590 233.288,255.587 233.535 C 252.180 233.815,251.937 233.523,253.526 231.055 C 254.186 230.030,254.887 228.916,255.086 228.578 C 255.284 228.241,255.977 227.100,256.628 226.043 C 258.225 223.447,258.165 223.548,260.657 219.262 C 261.866 217.183,263.008 215.239,263.195 214.941 C 263.383 214.644,263.778 213.915,264.074 213.321 C 264.370 212.727,264.770 211.998,264.963 211.701 C 265.980 210.137,271.089 200.758,271.972 198.834 C 272.693 197.262,273.489 197.615,274.524 199.966 M128.296 199.037 C 128.623 199.399,129.688 201.222,130.662 203.088 C 131.637 204.954,132.843 207.210,133.343 208.101 C 133.843 208.992,134.479 210.126,134.758 210.621 C 135.036 211.116,135.800 212.493,136.456 213.681 C 137.112 214.869,138.160 216.652,138.784 217.642 C 139.407 218.632,140.026 219.685,140.158 219.982 C 140.431 220.593,141.075 221.665,144.322 226.909 C 145.580 228.941,146.926 231.056,147.315 231.610 C 148.206 232.880,148.077 234.232,147.075 234.132 C 138.930 233.321,120.428 230.278,116.742 229.144 C 116.007 228.918,116.188 228.099,118.442 221.458 C 121.258 213.158,121.653 212.019,122.017 211.161 C 122.184 210.765,123.012 208.659,123.855 206.481 C 124.699 204.302,125.668 201.872,126.008 201.080 C 126.348 200.288,126.726 199.356,126.848 199.010 C 127.132 198.204,127.550 198.212,128.296 199.037 M289.651 244.914 C 290.439 247.523,291.598 253.105,292.025 256.346 C 292.221 257.831,292.536 259.629,292.725 260.342 C 292.914 261.055,293.221 263.486,293.407 265.743 C 293.594 268.000,293.939 272.115,294.174 274.887 C 294.922 283.704,293.653 297.934,291.573 304.050 C 291.371 304.644,291.049 305.779,290.857 306.571 C 287.866 318.914,277.911 324.753,264.752 321.880 C 251.954 319.087,231.213 307.031,218.728 295.128 C 218.475 294.887,216.790 293.338,214.984 291.687 C 211.912 288.877,211.152 287.691,212.063 287.128 C 212.395 286.922,216.997 281.658,220.575 277.389 C 222.000 275.688,228.974 266.878,230.392 264.986 C 232.671 261.947,235.160 258.549,236.724 256.345 C 241.391 249.764,240.792 250.130,247.885 249.523 C 254.100 248.992,267.193 247.092,276.688 245.344 C 285.020 243.810,286.609 243.484,286.827 243.266 C 287.788 242.305,289.094 243.067,289.651 244.914 M117.732 244.648 C 125.343 246.328,141.556 248.731,151.861 249.706 C 155.285 250.030,158.525 250.410,159.061 250.550 C 159.793 250.740,161.518 252.781,165.977 258.731 C 172.656 267.645,177.551 273.673,184.773 281.880 C 187.583 285.073,189.715 287.806,189.724 288.225 C 189.748 289.400,178.206 299.557,171.737 304.055 C 170.648 304.812,168.913 306.053,167.882 306.811 C 166.851 307.570,165.913 308.191,165.797 308.191 C 165.682 308.191,165.148 308.497,164.612 308.871 C 153.318 316.740,137.738 322.608,128.193 322.586 C 118.701 322.565,111.862 316.433,109.125 305.491 C 108.926 304.698,108.599 303.402,108.398 302.610 C 105.290 290.391,106.007 271.181,110.356 250.207 C 111.861 242.950,111.448 243.261,117.732 244.648 M220.978 252.312 C 221.156 252.847,206.127 272.000,204.535 273.267 C 204.411 273.366,203.854 274.000,203.298 274.676 C 200.785 277.733,200.776 277.731,196.580 272.880 C 195.491 271.622,193.891 269.776,193.024 268.779 C 192.158 267.782,191.077 266.537,190.622 266.011 C 186.132 260.824,180.002 252.658,180.315 252.281 C 180.824 251.668,220.773 251.699,220.978 252.312 " stroke="none" fill="#53c2dc" fill-rule="evenodd"></path><path id="path1" d="M114.131 0.360 C 114.131 0.568,112.991 0.720,111.431 0.720 C 108.971 0.720,108.731 0.784,108.731 1.440 C 108.731 2.073,108.491 2.160,106.751 2.160 C 105.231 2.160,104.770 2.286,104.770 2.700 C 104.770 3.080,104.387 3.240,103.477 3.240 C 102.486 3.240,102.139 3.409,101.995 3.960 C 101.853 4.501,101.503 4.680,100.588 4.680 C 99.610 4.680,99.370 4.822,99.370 5.401 C 99.370 5.983,99.130 6.121,98.110 6.121 C 97.230 6.121,96.850 6.283,96.850 6.661 C 96.850 6.961,96.530 7.201,96.130 7.201 C 95.650 7.201,95.410 7.441,95.410 7.921 C 95.410 8.504,95.170 8.641,94.149 8.641 C 93.129 8.641,92.889 8.778,92.889 9.361 C 92.889 9.841,92.649 10.081,92.169 10.081 C 91.689 10.081,91.449 10.321,91.449 10.801 C 91.449 11.281,91.209 11.521,90.729 11.521 C 90.333 11.521,90.009 11.745,90.009 12.019 C 90.009 12.293,89.685 12.602,89.289 12.706 C 88.893 12.809,88.569 13.152,88.569 13.468 C 88.569 13.783,88.326 14.041,88.029 14.041 C 87.729 14.041,87.489 14.361,87.489 14.761 C 87.489 15.242,87.249 15.482,86.769 15.482 C 86.373 15.482,86.049 15.714,86.049 15.997 C 86.049 16.281,85.725 16.616,85.329 16.742 C 84.793 16.912,84.608 17.286,84.608 18.206 C 84.608 18.888,84.425 19.442,84.200 19.442 C 83.419 19.442,82.088 21.268,82.088 22.341 C 82.088 23.162,81.925 23.402,81.368 23.402 C 80.888 23.402,80.648 23.642,80.648 24.122 C 80.648 24.518,80.412 24.842,80.124 24.842 C 79.813 24.842,79.507 25.343,79.369 26.078 C 79.241 26.757,78.910 27.400,78.632 27.507 C 78.331 27.622,78.128 28.213,78.128 28.972 C 78.128 29.818,77.960 30.243,77.626 30.243 C 76.983 30.243,76.688 31.032,76.688 32.751 C 76.688 33.817,76.528 34.161,75.968 34.308 C 75.366 34.465,75.248 34.799,75.248 36.330 C 75.248 37.720,75.117 38.164,74.707 38.164 C 74.278 38.164,74.167 38.688,74.167 40.718 C 74.167 42.969,74.082 43.294,73.447 43.460 C 72.814 43.626,72.727 43.951,72.727 46.160 C 72.727 48.126,72.571 48.870,72.007 49.587 C 71.354 50.417,71.287 51.047,71.287 56.356 C 71.287 61.227,71.196 62.244,70.747 62.416 C 69.935 62.728,69.935 79.208,70.747 79.208 C 71.209 79.208,71.288 80.240,71.292 86.319 C 71.297 93.835,71.428 95.050,72.229 95.050 C 72.623 95.050,72.727 95.883,72.727 99.044 C 72.727 102.735,72.782 103.052,73.447 103.226 C 74.055 103.385,74.167 103.717,74.167 105.353 L 74.167 107.291 72.814 107.291 C 71.850 107.291,71.331 107.498,71.011 108.011 C 70.669 108.557,70.171 108.731,68.944 108.731 C 67.567 108.731,67.327 108.838,67.327 109.451 C 67.327 110.076,67.087 110.171,65.515 110.171 C 64.237 110.171,63.643 110.330,63.497 110.711 C 63.369 111.044,62.821 111.251,62.068 111.251 C 61.086 111.251,60.846 111.393,60.846 111.971 C 60.846 112.571,60.606 112.691,59.406 112.691 C 58.206 112.691,57.966 112.811,57.966 113.411 C 57.966 113.975,57.726 114.131,56.860 114.131 C 56.252 114.131,55.534 114.352,55.264 114.622 C 54.994 114.891,54.109 115.218,53.296 115.348 C 52.483 115.478,51.725 115.825,51.613 116.118 C 51.500 116.412,51.115 116.652,50.756 116.652 C 49.719 116.652,48.965 117.047,48.965 117.590 C 48.965 117.866,48.641 118.092,48.245 118.092 C 47.849 118.092,47.525 118.317,47.525 118.593 C 47.525 119.174,46.758 119.532,45.515 119.532 C 44.981 119.532,44.644 119.741,44.644 120.072 C 44.644 120.449,44.264 120.612,43.384 120.612 C 42.364 120.612,42.124 120.749,42.124 121.332 C 42.124 121.919,41.884 122.052,40.830 122.052 C 39.839 122.052,39.492 122.221,39.348 122.772 C 39.245 123.168,38.936 123.492,38.662 123.492 C 38.388 123.492,38.164 123.735,38.164 124.032 C 38.164 124.412,37.780 124.572,36.870 124.572 C 35.879 124.572,35.532 124.741,35.388 125.293 C 35.284 125.689,34.960 126.013,34.668 126.013 C 34.375 126.013,34.051 126.337,33.948 126.733 C 33.806 127.274,33.457 127.453,32.541 127.453 C 31.699 127.453,31.323 127.619,31.323 127.993 C 31.323 128.290,31.065 128.533,30.749 128.533 C 30.434 128.533,30.091 128.857,29.987 129.253 C 29.852 129.770,29.496 129.973,28.727 129.973 C 27.958 129.973,27.602 130.176,27.467 130.693 C 27.363 131.092,26.976 131.413,26.601 131.413 C 26.163 131.413,25.923 131.668,25.923 132.133 C 25.923 132.533,25.683 132.853,25.383 132.853 C 25.086 132.853,24.842 133.096,24.842 133.393 C 24.842 133.690,24.557 133.933,24.209 133.933 C 23.861 133.933,23.373 134.257,23.126 134.653 C 22.872 135.061,22.286 135.374,21.779 135.374 C 21.122 135.374,20.882 135.566,20.882 136.094 C 20.882 136.574,20.642 136.814,20.162 136.814 C 19.766 136.814,19.442 137.038,19.442 137.312 C 19.442 137.586,19.118 137.895,18.722 137.998 C 18.326 138.102,18.002 138.426,18.002 138.718 C 18.002 139.011,17.678 139.335,17.282 139.438 C 16.886 139.542,16.562 139.885,16.562 140.200 C 16.562 140.516,16.319 140.774,16.022 140.774 C 15.722 140.774,15.482 141.094,15.482 141.494 C 15.482 141.974,15.242 142.214,14.761 142.214 C 14.365 142.214,14.041 142.438,14.041 142.712 C 14.041 142.986,13.717 143.295,13.321 143.399 C 12.925 143.502,12.601 143.828,12.601 144.122 C 12.601 144.417,12.358 144.751,12.061 144.865 C 11.746 144.986,11.521 145.525,11.521 146.163 C 11.521 147.015,11.363 147.255,10.801 147.255 C 10.321 147.255,10.081 147.495,10.081 147.975 C 10.081 148.455,9.841 148.695,9.361 148.695 C 8.881 148.695,8.641 148.935,8.641 149.415 C 8.641 149.811,8.405 150.135,8.117 150.135 C 7.804 150.135,7.498 150.641,7.357 151.395 C 7.222 152.117,6.907 152.655,6.621 152.655 C 6.346 152.655,6.121 152.898,6.121 153.195 C 6.121 153.492,5.797 154.059,5.401 154.455 C 5.005 154.851,4.680 155.461,4.680 155.809 C 4.680 156.157,4.356 156.645,3.960 156.892 C 3.501 157.179,3.240 157.732,3.240 158.419 C 3.240 159.136,3.060 159.496,2.700 159.496 C 2.300 159.496,2.160 159.916,2.160 161.113 C 2.160 162.340,1.987 162.839,1.440 163.180 C 0.868 163.537,0.720 164.019,0.720 165.523 C 0.720 166.565,0.558 167.417,0.360 167.417 C 0.127 167.417,0.000 171.617,0.000 179.298 C 0.000 186.979,0.127 191.179,0.360 191.179 C 0.568 191.179,0.720 192.319,0.720 193.879 C 0.720 196.340,0.784 196.580,1.440 196.580 C 2.038 196.580,2.160 196.820,2.160 197.994 C 2.160 198.772,2.403 199.652,2.700 199.949 C 2.997 200.246,3.240 200.824,3.240 201.234 C 3.240 201.645,3.564 202.304,3.960 202.700 C 4.356 203.096,4.680 203.679,4.680 203.994 C 4.680 204.310,5.005 204.653,5.401 204.756 C 5.942 204.898,6.121 205.247,6.121 206.163 C 6.121 206.962,6.292 207.381,6.621 207.381 C 6.907 207.381,7.222 207.919,7.357 208.641 C 7.498 209.395,7.804 209.901,8.117 209.901 C 8.405 209.901,8.641 210.225,8.641 210.621 C 8.641 211.101,8.881 211.341,9.361 211.341 C 9.821 211.341,10.081 211.581,10.081 212.005 C 10.081 212.371,10.405 212.963,10.801 213.321 C 11.197 213.680,11.521 214.272,11.521 214.637 C 11.521 215.003,11.745 215.302,12.019 215.302 C 12.293 215.302,12.602 215.626,12.706 216.022 C 12.809 216.418,13.133 216.742,13.426 216.742 C 13.718 216.742,14.042 217.066,14.146 217.462 C 14.249 217.858,14.592 218.182,14.908 218.182 C 15.223 218.182,15.482 218.425,15.482 218.722 C 15.482 219.019,15.725 219.262,16.022 219.262 C 16.322 219.262,16.562 219.582,16.562 219.982 C 16.562 220.462,16.802 220.702,17.282 220.702 C 17.762 220.702,18.002 220.942,18.002 221.422 C 18.002 221.902,18.242 222.142,18.722 222.142 C 19.122 222.142,19.442 222.382,19.442 222.682 C 19.442 222.979,19.666 223.222,19.940 223.222 C 20.214 223.222,20.523 223.546,20.626 223.942 C 20.730 224.338,21.073 224.662,21.388 224.662 C 21.722 224.662,21.962 224.964,21.962 225.383 C 21.962 225.863,22.202 226.103,22.682 226.103 C 23.082 226.103,23.402 226.343,23.402 226.643 C 23.402 226.943,23.722 227.183,24.122 227.183 C 24.602 227.183,24.842 227.423,24.842 227.903 C 24.842 228.299,25.075 228.623,25.358 228.623 C 25.642 228.623,25.977 228.947,26.103 229.343 C 26.273 229.879,26.647 230.063,27.567 230.063 C 28.563 230.063,28.803 230.203,28.803 230.783 C 28.803 231.183,29.043 231.503,29.343 231.503 C 29.640 231.503,29.883 231.746,29.883 232.043 C 29.883 232.340,30.188 232.583,30.561 232.583 C 30.936 232.583,31.323 232.905,31.427 233.303 C 31.563 233.823,31.919 234.023,32.705 234.023 C 33.479 234.023,33.861 234.232,34.023 234.743 C 34.149 235.140,34.484 235.464,34.768 235.464 C 35.051 235.464,35.284 235.707,35.284 236.004 C 35.284 236.394,35.684 236.544,36.724 236.544 C 37.924 236.544,38.164 236.664,38.164 237.264 C 38.164 237.660,38.388 237.984,38.662 237.984 C 38.936 237.984,39.245 238.308,39.348 238.704 C 39.491 239.250,39.839 239.424,40.788 239.424 C 41.737 239.424,42.086 239.598,42.229 240.144 C 42.366 240.668,42.720 240.864,43.531 240.864 C 44.281 240.864,44.644 241.040,44.644 241.404 C 44.644 241.704,44.964 241.944,45.365 241.944 C 45.761 241.944,46.085 242.170,46.085 242.446 C 46.085 242.961,46.829 243.384,47.734 243.384 C 48.015 243.384,48.569 243.708,48.965 244.104 C 49.361 244.500,50.090 244.824,50.585 244.824 C 51.145 244.824,51.485 245.029,51.485 245.365 C 51.485 245.738,51.861 245.905,52.703 245.905 C 53.619 245.905,53.968 246.084,54.110 246.625 C 54.254 247.176,54.601 247.345,55.592 247.345 C 56.453 247.345,56.886 247.511,56.886 247.843 C 56.886 248.410,57.966 248.773,59.676 248.780 C 60.474 248.783,60.846 248.957,60.846 249.325 C 60.846 249.702,61.226 249.865,62.106 249.865 C 63.126 249.865,63.366 250.002,63.366 250.585 C 63.366 251.198,63.606 251.305,64.983 251.305 C 66.211 251.305,66.709 251.479,67.050 252.025 C 67.370 252.538,67.890 252.745,68.853 252.745 C 69.766 252.745,70.207 252.908,70.207 253.243 C 70.207 253.811,71.287 254.173,72.997 254.181 L 74.167 254.185 74.167 256.124 C 74.167 257.759,74.055 258.091,73.447 258.250 C 72.787 258.423,72.727 258.741,72.727 262.073 C 72.727 265.227,72.632 265.802,72.007 266.427 C 71.333 267.101,71.287 267.627,71.287 274.669 C 71.287 281.023,71.203 282.223,70.747 282.398 C 69.941 282.708,69.941 295.870,70.747 296.179 C 71.198 296.353,71.287 297.411,71.287 302.619 C 71.287 309.126,71.397 309.991,72.226 309.991 C 72.616 309.991,72.727 310.680,72.727 313.085 C 72.727 315.876,72.798 316.197,73.447 316.367 C 74.071 316.530,74.167 316.858,74.167 318.810 C 74.167 320.374,74.333 321.201,74.707 321.512 C 75.005 321.759,75.250 322.467,75.252 323.086 C 75.260 324.755,75.627 325.833,76.190 325.833 C 76.531 325.833,76.688 326.287,76.688 327.273 C 76.688 328.473,76.808 328.713,77.408 328.713 C 77.983 328.713,78.128 328.953,78.128 329.904 C 78.128 330.559,78.366 331.410,78.656 331.794 C 78.947 332.179,79.190 332.792,79.196 333.157 C 79.203 333.522,79.532 333.906,79.928 334.009 C 80.469 334.151,80.648 334.500,80.648 335.416 C 80.648 336.394,80.790 336.634,81.368 336.634 C 81.951 336.634,82.088 336.874,82.088 337.894 C 82.088 338.748,82.255 339.154,82.604 339.154 C 82.888 339.154,83.223 339.478,83.348 339.874 C 83.474 340.270,83.809 340.594,84.093 340.594 C 84.376 340.594,84.608 340.918,84.608 341.314 C 84.608 341.794,84.848 342.034,85.329 342.034 C 85.893 342.034,86.049 342.274,86.049 343.148 C 86.049 343.959,86.244 344.313,86.769 344.450 C 87.167 344.554,87.489 344.941,87.489 345.317 C 87.489 345.689,87.732 345.995,88.029 345.995 C 88.326 345.995,88.569 346.253,88.569 346.568 C 88.569 346.884,88.893 347.227,89.289 347.330 C 89.685 347.434,90.009 347.743,90.009 348.017 C 90.009 348.291,90.246 348.515,90.536 348.515 C 90.826 348.515,91.237 348.839,91.449 349.235 C 91.701 349.706,92.203 349.955,92.902 349.955 C 93.729 349.955,93.969 350.117,93.969 350.675 C 93.969 351.155,94.209 351.395,94.689 351.395 C 95.095 351.395,95.410 351.635,95.410 351.944 C 95.410 352.246,95.799 352.641,96.275 352.822 C 96.750 353.003,97.246 353.323,97.376 353.533 C 97.506 353.743,97.989 353.915,98.449 353.915 C 98.983 353.915,99.354 354.176,99.474 354.635 C 99.607 355.143,99.965 355.356,100.690 355.356 C 101.327 355.356,101.888 355.629,102.167 356.076 C 102.448 356.525,103.006 356.796,103.655 356.796 C 104.246 356.796,104.783 357.028,104.901 357.336 C 105.046 357.714,105.637 357.876,106.877 357.876 C 108.344 357.876,108.679 357.999,108.835 358.596 C 109.005 359.245,109.326 359.316,112.118 359.316 C 113.940 359.316,115.212 359.464,115.212 359.676 C 115.212 359.908,119.232 360.036,126.553 360.036 C 133.873 360.036,137.894 359.908,137.894 359.676 C 137.894 359.459,139.405 359.316,141.708 359.316 C 145.219 359.316,145.537 359.259,145.710 358.596 C 145.869 357.988,146.201 357.876,147.848 357.876 C 149.249 357.876,149.856 357.724,150.005 357.336 C 150.154 356.948,150.760 356.796,152.157 356.796 C 153.657 356.796,154.244 356.631,154.719 356.076 C 155.109 355.620,155.781 355.356,156.549 355.356 C 157.460 355.356,157.810 355.176,157.951 354.635 C 158.093 354.094,158.443 353.915,159.358 353.915 C 160.201 353.915,160.576 353.749,160.576 353.375 C 160.576 352.987,160.973 352.835,161.987 352.835 C 163.746 352.835,164.536 352.544,164.536 351.897 C 164.536 351.561,164.964 351.395,165.830 351.395 C 166.821 351.395,167.168 351.227,167.312 350.675 C 167.454 350.134,167.804 349.955,168.719 349.955 C 169.518 349.955,169.937 349.783,169.937 349.455 C 169.937 349.169,170.475 348.854,171.197 348.719 C 171.951 348.577,172.457 348.272,172.457 347.958 C 172.457 347.670,172.781 347.435,173.177 347.435 C 173.573 347.435,174.221 347.111,174.617 346.715 C 175.014 346.319,175.662 345.995,176.058 345.995 C 176.538 345.995,176.778 345.755,176.778 345.275 C 176.778 344.692,177.018 344.554,178.038 344.554 C 178.918 344.554,179.298 344.392,179.298 344.014 C 179.298 343.717,179.603 343.474,179.976 343.474 C 180.351 343.474,180.738 343.153,180.842 342.754 C 180.980 342.230,181.333 342.034,182.145 342.034 C 183.018 342.034,183.258 341.879,183.258 341.314 C 183.258 340.792,183.498 340.594,184.133 340.594 C 184.614 340.594,185.221 340.382,185.483 340.124 C 185.745 339.865,186.242 339.546,186.589 339.415 C 186.935 339.284,187.219 338.928,187.219 338.625 C 187.219 338.314,187.532 338.074,187.939 338.074 C 188.419 338.074,188.659 337.834,188.659 337.354 C 188.659 336.771,188.899 336.634,189.919 336.634 C 190.939 336.634,191.179 336.497,191.179 335.914 C 191.179 335.434,191.419 335.194,191.899 335.194 C 192.299 335.194,192.619 334.953,192.619 334.653 C 192.619 334.353,192.939 334.113,193.339 334.113 C 193.819 334.113,194.059 333.873,194.059 333.393 C 194.059 332.828,194.299 332.673,195.173 332.673 C 195.984 332.673,196.338 332.478,196.475 331.953 C 196.580 331.555,196.966 331.233,197.342 331.233 C 197.715 331.233,198.020 331.009,198.020 330.735 C 198.020 330.461,198.344 330.152,198.740 330.049 C 199.136 329.945,199.460 329.602,199.460 329.287 C 199.460 328.971,199.703 328.713,200.000 328.713 C 200.300 328.713,200.540 328.393,200.540 327.993 C 200.540 327.528,200.780 327.273,201.218 327.273 C 201.593 327.273,201.980 327.594,202.085 327.993 C 202.220 328.513,202.576 328.713,203.362 328.713 C 204.136 328.713,204.518 328.922,204.680 329.433 C 204.806 329.829,205.141 330.153,205.425 330.153 C 205.708 330.153,205.941 330.396,205.941 330.693 C 205.941 330.993,206.261 331.233,206.661 331.233 C 207.141 331.233,207.381 331.473,207.381 331.953 C 207.381 332.418,207.621 332.673,208.059 332.673 C 208.434 332.673,208.821 332.995,208.925 333.393 C 209.062 333.918,209.416 334.113,210.227 334.113 C 210.977 334.113,211.341 334.290,211.341 334.653 C 211.341 334.953,211.661 335.194,212.061 335.194 C 212.526 335.194,212.781 335.434,212.781 335.872 C 212.781 336.247,213.103 336.634,213.501 336.738 C 213.897 336.842,214.221 337.184,214.221 337.500 C 214.221 337.916,214.569 338.074,215.482 338.074 C 216.502 338.074,216.742 338.211,216.742 338.794 C 216.742 339.274,216.982 339.514,217.462 339.514 C 217.862 339.514,218.182 339.754,218.182 340.054 C 218.182 340.431,218.562 340.594,219.442 340.594 C 220.462 340.594,220.702 340.731,220.702 341.314 C 220.702 341.794,220.942 342.034,221.422 342.034 C 221.902 342.034,222.142 342.274,222.142 342.754 C 222.142 343.337,222.382 343.474,223.402 343.474 C 224.282 343.474,224.662 343.637,224.662 344.014 C 224.662 344.314,224.982 344.554,225.383 344.554 C 225.863 344.554,226.103 344.794,226.103 345.275 C 226.103 345.853,226.343 345.995,227.321 345.995 C 228.236 345.995,228.586 346.174,228.727 346.715 C 228.871 347.266,229.218 347.435,230.209 347.435 C 231.263 347.435,231.503 347.568,231.503 348.155 C 231.503 348.621,231.743 348.875,232.185 348.875 C 232.560 348.875,232.960 349.118,233.073 349.415 C 233.195 349.731,233.734 349.955,234.372 349.955 C 235.065 349.955,235.464 350.138,235.464 350.457 C 235.464 351.004,236.219 351.395,237.275 351.395 C 237.645 351.395,238.094 351.655,238.272 351.973 C 238.466 352.321,239.262 352.627,240.270 352.740 C 241.356 352.863,241.944 353.102,241.944 353.422 C 241.944 353.758,242.405 353.915,243.384 353.915 C 244.584 353.915,244.824 354.035,244.824 354.635 C 244.824 355.196,245.065 355.356,245.905 355.356 C 246.505 355.356,247.305 355.676,247.705 356.076 C 248.178 356.549,248.905 356.796,249.826 356.796 C 250.740 356.796,251.300 356.984,251.435 357.336 C 251.592 357.745,252.256 357.876,254.174 357.876 C 256.466 357.876,256.706 357.944,256.706 358.596 C 256.706 359.252,256.946 359.316,259.406 359.316 C 260.966 359.316,262.106 359.468,262.106 359.676 C 262.106 359.909,266.547 360.036,274.707 360.036 C 282.868 360.036,287.309 359.909,287.309 359.676 C 287.309 359.470,288.400 359.316,289.863 359.316 C 292.114 359.316,292.439 359.231,292.605 358.596 C 292.746 358.055,293.096 357.876,294.011 357.876 C 294.854 357.876,295.230 357.709,295.230 357.336 C 295.230 356.946,295.630 356.796,296.670 356.796 C 297.630 356.796,298.350 356.556,298.830 356.076 C 299.226 355.680,299.793 355.356,300.090 355.356 C 300.390 355.356,300.630 355.036,300.630 354.635 C 300.630 354.051,300.870 353.915,301.901 353.915 C 302.700 353.915,303.250 353.714,303.380 353.375 C 303.494 353.078,303.813 352.835,304.089 352.835 C 304.365 352.835,304.590 352.511,304.590 352.115 C 304.590 351.645,304.830 351.395,305.281 351.395 C 306.354 351.395,307.111 351.007,307.111 350.457 C 307.111 350.181,307.435 349.955,307.831 349.955 C 308.227 349.955,308.551 349.723,308.551 349.439 C 308.551 349.156,308.875 348.821,309.271 348.695 C 309.667 348.569,309.991 348.253,309.991 347.993 C 309.991 347.732,310.315 347.434,310.711 347.330 C 311.107 347.227,311.431 346.884,311.431 346.568 C 311.431 346.253,311.674 345.995,311.971 345.995 C 312.271 345.995,312.511 345.675,312.511 345.275 C 312.511 344.878,312.737 344.554,313.013 344.554 C 313.563 344.554,313.951 343.798,313.951 342.725 C 313.951 342.274,314.202 342.034,314.671 342.034 C 315.137 342.034,315.392 341.794,315.392 341.356 C 315.392 340.981,315.713 340.594,316.112 340.490 C 316.636 340.353,316.832 339.999,316.832 339.188 C 316.832 338.438,317.008 338.074,317.372 338.074 C 317.669 338.074,317.912 337.769,317.912 337.396 C 317.912 337.020,318.233 336.634,318.632 336.529 C 319.118 336.402,319.352 336.038,319.352 335.407 C 319.352 334.894,319.676 334.149,320.072 333.753 C 320.468 333.357,320.792 332.628,320.792 332.133 C 320.792 331.573,320.996 331.233,321.332 331.233 C 321.702 331.233,321.872 330.863,321.872 330.060 C 321.872 329.276,322.111 328.737,322.592 328.436 C 323.139 328.095,323.312 327.597,323.312 326.370 C 323.312 325.227,323.460 324.752,323.814 324.752 C 324.478 324.752,324.752 323.955,324.752 322.023 C 324.752 320.849,324.894 320.432,325.293 320.432 C 325.720 320.432,325.833 319.917,325.833 317.954 C 325.833 315.778,325.921 315.453,326.553 315.287 C 327.205 315.117,327.273 314.796,327.273 311.867 C 327.273 308.938,327.340 308.617,327.993 308.447 C 328.679 308.267,328.713 307.955,328.713 301.744 C 328.713 296.356,328.801 295.230,329.224 295.230 C 330.440 295.230,330.552 279.393,329.343 278.509 C 328.780 278.097,328.713 277.295,328.713 270.944 C 328.713 264.142,328.682 263.831,327.993 263.651 C 327.326 263.476,327.273 263.160,327.273 259.393 C 327.273 255.031,327.120 254.185,326.334 254.185 C 325.989 254.185,325.833 253.736,325.833 252.745 C 325.833 251.545,325.953 251.305,326.553 251.305 C 327.033 251.305,327.273 251.065,327.273 250.585 C 327.273 249.952,327.513 249.865,329.253 249.865 C 330.690 249.865,331.233 249.730,331.233 249.372 C 331.233 249.051,331.825 248.812,332.921 248.688 C 333.867 248.582,334.795 248.244,335.031 247.921 C 335.267 247.598,335.965 247.345,336.617 247.345 C 337.478 247.345,337.830 247.157,337.969 246.625 C 338.125 246.031,338.461 245.905,339.877 245.905 C 341.074 245.905,341.660 245.740,341.804 245.365 C 341.918 245.068,342.327 244.824,342.714 244.824 C 343.797 244.824,344.554 244.438,344.554 243.886 C 344.554 243.550,344.982 243.384,345.848 243.384 C 346.839 243.384,347.186 243.216,347.330 242.664 C 347.472 242.123,347.822 241.944,348.737 241.944 C 349.580 241.944,349.955 241.778,349.955 241.404 C 349.955 241.024,350.339 240.864,351.249 240.864 C 352.240 240.864,352.587 240.696,352.731 240.144 C 352.872 239.603,353.222 239.424,354.137 239.424 C 355.116 239.424,355.356 239.282,355.356 238.704 C 355.356 238.121,355.596 237.984,356.616 237.984 C 357.636 237.984,357.876 237.847,357.876 237.264 C 357.876 236.664,358.116 236.544,359.316 236.544 C 360.356 236.544,360.756 236.394,360.756 236.004 C 360.756 235.707,361.067 235.464,361.447 235.464 C 362.520 235.464,363.276 235.075,363.276 234.525 C 363.276 234.249,363.600 234.023,363.996 234.023 C 364.476 234.023,364.716 233.783,364.716 233.303 C 364.716 232.720,364.956 232.583,365.977 232.583 C 366.857 232.583,367.237 232.420,367.237 232.043 C 367.237 231.746,367.542 231.503,367.915 231.503 C 368.290 231.503,368.677 231.182,368.781 230.783 C 368.918 230.259,369.272 230.063,370.083 230.063 C 370.957 230.063,371.197 229.908,371.197 229.343 C 371.197 228.863,371.437 228.623,371.917 228.623 C 372.397 228.623,372.637 228.383,372.637 227.903 C 372.637 227.320,372.877 227.183,373.897 227.183 C 374.777 227.183,375.158 227.020,375.158 226.643 C 375.158 226.343,375.478 226.103,375.878 226.103 C 376.358 226.103,376.598 225.863,376.598 225.383 C 376.598 224.902,376.838 224.662,377.318 224.662 C 377.798 224.662,378.038 224.422,378.038 223.942 C 378.038 223.462,378.278 223.222,378.758 223.222 C 379.158 223.222,379.478 222.982,379.478 222.682 C 379.478 222.385,379.721 222.142,380.018 222.142 C 380.318 222.142,380.558 221.822,380.558 221.422 C 380.558 220.942,380.798 220.702,381.278 220.702 C 381.758 220.702,381.998 220.462,381.998 219.982 C 381.998 219.582,382.238 219.262,382.538 219.262 C 383.236 219.262,384.518 217.980,384.518 217.282 C 384.518 216.982,384.838 216.742,385.239 216.742 C 385.719 216.742,385.959 216.502,385.959 216.022 C 385.959 215.542,386.199 215.302,386.679 215.302 C 387.159 215.302,387.399 215.062,387.399 214.581 C 387.399 214.101,387.639 213.861,388.119 213.861 C 388.519 213.861,388.839 213.621,388.839 213.321 C 388.839 213.024,389.005 212.781,389.208 212.781 C 389.411 212.781,389.731 212.376,389.919 211.881 C 390.107 211.386,390.414 210.981,390.602 210.981 C 390.789 210.981,391.045 210.512,391.171 209.938 C 391.304 209.331,391.693 208.818,392.100 208.711 C 392.496 208.607,392.799 208.218,392.799 207.813 C 392.799 207.420,393.042 207.004,393.339 206.891 C 393.636 206.777,393.879 206.258,393.879 205.738 C 393.879 205.096,394.110 204.733,394.599 204.605 C 395.134 204.465,395.320 204.114,395.320 203.240 C 395.320 202.367,395.505 202.016,396.040 201.876 C 396.591 201.732,396.760 201.385,396.760 200.394 C 396.760 199.484,396.920 199.100,397.300 199.100 C 397.709 199.100,397.840 198.656,397.840 197.266 C 397.840 195.735,397.959 195.401,398.560 195.244 C 399.192 195.079,399.280 194.753,399.280 192.577 C 399.280 191.165,399.435 190.099,399.640 190.099 C 399.872 190.099,400.000 186.319,400.000 179.478 C 400.000 172.637,399.872 168.857,399.640 168.857 C 399.440 168.857,399.280 167.898,399.280 166.700 C 399.280 164.932,399.150 164.461,398.560 164.093 C 398.046 163.772,397.840 163.253,397.840 162.278 C 397.840 161.397,397.648 160.840,397.300 160.706 C 396.967 160.578,396.760 160.031,396.760 159.277 C 396.760 158.296,396.618 158.056,396.040 158.056 C 395.457 158.056,395.320 157.816,395.320 156.796 C 395.320 155.776,395.182 155.536,394.599 155.536 C 393.999 155.536,393.879 155.296,393.879 154.095 C 393.879 153.109,393.722 152.655,393.381 152.655 C 393.107 152.655,392.799 152.331,392.695 151.935 C 392.591 151.539,392.248 151.215,391.933 151.215 C 391.517 151.215,391.359 150.868,391.359 149.955 C 391.359 148.935,391.222 148.695,390.639 148.695 C 390.159 148.695,389.919 148.455,389.919 147.975 C 389.919 147.575,389.679 147.255,389.379 147.255 C 389.082 147.255,388.839 147.012,388.839 146.715 C 388.839 146.415,388.519 146.175,388.119 146.175 C 387.559 146.175,387.399 145.935,387.399 145.098 C 387.399 144.410,387.138 143.858,386.679 143.571 C 386.283 143.323,385.959 142.917,385.959 142.668 C 385.959 142.418,385.635 142.214,385.239 142.214 C 384.758 142.214,384.518 141.974,384.518 141.494 C 384.518 141.098,384.294 140.774,384.020 140.774 C 383.746 140.774,383.438 140.450,383.334 140.054 C 383.230 139.658,382.888 139.334,382.572 139.334 C 382.256 139.334,381.998 139.102,381.998 138.818 C 381.998 138.534,381.674 138.200,381.278 138.074 C 380.882 137.948,380.558 137.613,380.558 137.329 C 380.558 137.046,380.253 136.814,379.880 136.814 C 379.505 136.814,379.118 136.492,379.014 136.094 C 378.901 135.664,378.522 135.374,378.075 135.374 C 377.662 135.374,377.121 135.050,376.874 134.653 C 376.627 134.257,376.139 133.933,375.791 133.933 C 375.443 133.933,375.158 133.690,375.158 133.393 C 375.158 133.096,374.914 132.853,374.617 132.853 C 374.317 132.853,374.077 132.533,374.077 132.133 C 374.077 131.668,373.837 131.413,373.399 131.413 C 373.024 131.413,372.637 131.092,372.533 130.693 C 372.396 130.169,372.042 129.973,371.231 129.973 C 370.452 129.973,370.117 129.801,370.117 129.399 C 370.117 129.084,369.793 128.741,369.397 128.637 C 369.001 128.534,368.677 128.225,368.677 127.951 C 368.677 127.647,368.289 127.453,367.683 127.453 C 367.080 127.453,366.513 127.170,366.240 126.733 C 365.993 126.337,365.568 126.013,365.295 126.013 C 365.023 126.013,364.716 125.689,364.612 125.293 C 364.468 124.741,364.121 124.572,363.130 124.572 C 362.220 124.572,361.836 124.412,361.836 124.032 C 361.836 123.735,361.604 123.492,361.320 123.492 C 361.037 123.492,360.702 123.168,360.576 122.772 C 360.406 122.236,360.031 122.052,359.112 122.052 C 358.116 122.052,357.876 121.912,357.876 121.332 C 357.876 120.749,357.636 120.612,356.616 120.612 C 355.736 120.612,355.356 120.449,355.356 120.072 C 355.356 119.713,354.997 119.532,354.288 119.532 C 353.589 119.532,353.088 119.283,352.835 118.812 C 352.564 118.305,352.081 118.092,351.202 118.092 C 350.195 118.092,349.955 117.953,349.955 117.372 C 349.955 116.794,349.715 116.652,348.737 116.652 C 347.822 116.652,347.472 116.473,347.330 115.932 C 347.186 115.380,346.839 115.212,345.848 115.212 C 344.938 115.212,344.554 115.051,344.554 114.671 C 344.554 114.298,344.179 114.131,343.336 114.131 C 342.421 114.131,342.071 113.952,341.930 113.411 C 341.786 112.860,341.439 112.691,340.448 112.691 C 339.586 112.691,339.154 112.525,339.154 112.193 C 339.154 111.626,338.074 111.263,336.364 111.256 C 335.566 111.253,335.194 111.079,335.194 110.711 C 335.194 110.337,334.818 110.171,333.975 110.171 C 333.060 110.171,332.710 109.992,332.569 109.451 C 332.412 108.853,332.078 108.731,330.589 108.731 C 329.100 108.731,328.765 108.609,328.609 108.011 C 328.464 107.459,328.117 107.291,327.126 107.291 C 325.561 107.291,325.063 104.696,326.553 104.306 C 327.215 104.133,327.273 103.815,327.273 100.346 C 327.273 96.876,327.331 96.559,327.993 96.385 C 328.675 96.207,328.713 95.894,328.713 90.403 C 328.713 85.726,328.808 84.608,329.208 84.608 C 330.028 84.608,330.153 82.844,330.153 71.292 C 330.153 59.389,329.988 56.886,329.204 56.886 C 328.815 56.886,328.713 55.941,328.713 52.352 C 328.713 48.120,328.665 47.805,327.993 47.629 C 327.355 47.462,327.273 47.138,327.273 44.782 C 327.273 42.364,327.208 42.124,326.553 42.124 C 325.901 42.124,325.833 41.884,325.833 39.593 C 325.833 37.675,325.702 37.011,325.293 36.854 C 324.959 36.726,324.752 36.179,324.752 35.425 C 324.752 34.683,324.470 33.920,324.032 33.483 C 323.592 33.043,323.312 32.283,323.312 31.527 C 323.312 30.608,323.128 30.233,322.592 30.063 C 322.056 29.893,321.872 29.518,321.872 28.599 C 321.872 27.740,321.707 27.363,321.332 27.363 C 320.968 27.363,320.792 26.999,320.792 26.249 C 320.792 25.438,320.596 25.084,320.072 24.947 C 319.605 24.825,319.352 24.456,319.352 23.897 C 319.352 23.423,319.028 22.758,318.632 22.419 C 318.236 22.080,317.912 21.590,317.912 21.331 C 317.912 21.072,317.679 20.770,317.394 20.661 C 317.109 20.551,316.772 19.989,316.645 19.412 C 316.518 18.834,316.261 18.362,316.074 18.362 C 315.887 18.362,315.580 17.957,315.392 17.462 C 315.203 16.967,314.802 16.562,314.500 16.562 C 314.198 16.562,313.951 16.319,313.951 16.022 C 313.951 15.722,313.631 15.482,313.231 15.482 C 312.751 15.482,312.511 15.242,312.511 14.761 C 312.511 14.361,312.271 14.041,311.971 14.041 C 311.674 14.041,311.431 13.783,311.431 13.468 C 311.431 13.152,311.107 12.809,310.711 12.706 C 310.315 12.602,309.991 12.293,309.991 12.019 C 309.991 11.745,309.667 11.521,309.271 11.521 C 308.791 11.521,308.551 11.281,308.551 10.801 C 308.551 10.405,308.319 10.081,308.035 10.081 C 307.751 10.081,307.416 9.757,307.291 9.361 C 307.165 8.965,306.847 8.641,306.585 8.641 C 306.322 8.641,306.020 8.413,305.913 8.135 C 305.807 7.856,305.236 7.522,304.645 7.393 C 304.054 7.263,303.481 6.924,303.372 6.639 C 303.262 6.354,302.944 6.121,302.664 6.121 C 302.383 6.121,302.069 5.797,301.966 5.401 C 301.823 4.855,301.475 4.680,300.526 4.680 C 299.577 4.680,299.228 4.506,299.086 3.960 C 298.948 3.436,298.595 3.240,297.783 3.240 C 297.033 3.240,296.670 3.064,296.670 2.700 C 296.670 2.310,296.270 2.160,295.230 2.160 C 294.239 2.160,293.789 2.004,293.789 1.659 C 293.789 0.966,292.981 0.720,290.700 0.720 C 289.627 0.720,288.749 0.558,288.749 0.360 C 288.749 0.126,283.828 0.000,274.707 0.000 C 265.587 0.000,260.666 0.126,260.666 0.360 C 260.666 0.566,259.575 0.720,258.112 0.720 C 255.861 0.720,255.536 0.805,255.370 1.440 C 255.211 2.048,254.879 2.160,253.243 2.160 C 251.761 2.160,251.305 2.287,251.305 2.700 C 251.305 3.110,250.861 3.240,249.471 3.240 C 247.940 3.240,247.606 3.359,247.449 3.960 C 247.297 4.542,246.958 4.680,245.686 4.680 C 244.500 4.680,243.999 4.859,243.661 5.401 C 243.361 5.881,242.821 6.121,242.038 6.121 C 241.235 6.121,240.864 6.291,240.864 6.661 C 240.864 6.992,240.527 7.201,239.993 7.201 C 238.751 7.201,237.984 7.559,237.984 8.139 C 237.984 8.472,237.561 8.641,236.724 8.641 C 235.704 8.641,235.464 8.778,235.464 9.361 C 235.464 9.947,235.224 10.081,234.170 10.081 C 233.179 10.081,232.832 10.250,232.688 10.801 C 232.554 11.313,232.196 11.521,231.450 11.521 C 230.849 11.521,230.312 11.752,230.193 12.061 C 230.079 12.358,229.679 12.601,229.304 12.601 C 228.863 12.601,228.623 12.855,228.623 13.321 C 228.623 13.904,228.383 14.041,227.363 14.041 C 226.343 14.041,226.103 14.179,226.103 14.761 C 226.103 15.344,225.863 15.482,224.842 15.482 C 223.962 15.482,223.582 15.644,223.582 16.022 C 223.582 16.322,223.262 16.562,222.862 16.562 C 222.382 16.562,222.142 16.802,222.142 17.282 C 222.142 17.862,221.902 18.002,220.906 18.002 C 219.987 18.002,219.612 18.186,219.442 18.722 C 219.316 19.118,218.981 19.442,218.698 19.442 C 218.414 19.442,218.182 19.667,218.182 19.942 C 218.182 20.230,217.639 20.544,216.903 20.682 C 216.199 20.814,215.540 21.140,215.438 21.407 C 215.335 21.673,214.939 21.973,214.557 22.073 C 214.174 22.173,213.861 22.513,213.861 22.829 C 213.861 23.144,213.618 23.402,213.321 23.402 C 213.021 23.402,212.781 23.722,212.781 24.122 C 212.781 24.707,212.541 24.842,211.510 24.842 C 210.712 24.842,210.161 25.044,210.031 25.383 C 209.917 25.680,209.598 25.923,209.322 25.923 C 209.047 25.923,208.821 26.247,208.821 26.643 C 208.821 27.123,208.581 27.363,208.101 27.363 C 207.621 27.363,207.381 27.603,207.381 28.083 C 207.381 28.549,207.141 28.803,206.699 28.803 C 206.324 28.803,205.933 29.023,205.830 29.292 C 205.727 29.561,205.142 29.881,204.531 30.003 C 203.873 30.135,203.420 30.449,203.420 30.774 C 203.420 31.083,203.106 31.323,202.700 31.323 C 202.235 31.323,201.980 31.563,201.980 32.001 C 201.980 32.810,201.202 33.061,199.370 32.844 C 198.342 32.723,198.020 32.522,198.020 32.004 C 198.020 31.563,197.766 31.323,197.300 31.323 C 196.820 31.323,196.580 31.083,196.580 30.603 C 196.580 30.207,196.354 29.883,196.078 29.883 C 195.802 29.883,195.483 29.640,195.369 29.343 C 195.255 29.046,194.933 28.803,194.653 28.803 C 194.373 28.803,194.059 28.479,193.955 28.083 C 193.852 27.687,193.509 27.363,193.193 27.363 C 192.877 27.363,192.619 27.137,192.619 26.861 C 192.619 26.311,191.863 25.923,190.790 25.923 C 190.410 25.923,190.099 25.680,190.099 25.383 C 190.099 25.083,189.779 24.842,189.379 24.842 C 188.899 24.842,188.659 24.602,188.659 24.122 C 188.659 23.657,188.419 23.402,187.981 23.402 C 187.605 23.402,187.219 23.081,187.114 22.682 C 186.979 22.166,186.623 21.962,185.854 21.962 C 185.085 21.962,184.729 21.759,184.594 21.242 C 184.491 20.846,184.148 20.522,183.832 20.522 C 183.517 20.522,183.258 20.279,183.258 19.982 C 183.258 19.605,182.878 19.442,181.998 19.442 C 180.978 19.442,180.738 19.305,180.738 18.722 C 180.738 18.257,180.498 18.002,180.060 18.002 C 179.685 18.002,179.298 17.680,179.194 17.282 C 179.056 16.757,178.703 16.562,177.891 16.562 C 177.141 16.562,176.778 16.385,176.778 16.022 C 176.778 15.722,176.458 15.482,176.058 15.482 C 175.578 15.482,175.338 15.242,175.338 14.761 C 175.338 14.183,175.098 14.041,174.119 14.041 C 173.204 14.041,172.854 13.862,172.713 13.321 C 172.569 12.770,172.222 12.601,171.231 12.601 C 170.321 12.601,169.937 12.441,169.937 12.061 C 169.937 11.761,169.617 11.521,169.217 11.521 C 168.737 11.521,168.497 11.281,168.497 10.801 C 168.497 10.223,168.257 10.081,167.279 10.081 C 166.363 10.081,166.014 9.902,165.872 9.361 C 165.735 8.835,165.381 8.641,164.559 8.641 C 163.900 8.641,163.349 8.421,163.230 8.111 C 163.118 7.819,162.481 7.478,161.814 7.353 C 161.147 7.228,160.414 6.899,160.185 6.623 C 159.944 6.333,159.101 6.121,158.192 6.121 C 156.856 6.121,156.616 6.011,156.616 5.401 C 156.616 4.828,156.376 4.680,155.442 4.680 C 154.659 4.680,154.119 4.441,153.819 3.960 C 153.477 3.413,152.979 3.240,151.741 3.240 C 150.625 3.240,150.047 3.070,149.905 2.700 C 149.757 2.315,149.156 2.160,147.812 2.160 C 146.383 2.160,145.768 1.986,145.275 1.440 C 144.736 0.845,144.166 0.720,141.978 0.720 C 140.455 0.720,139.334 0.567,139.334 0.360 C 139.334 0.127,134.893 0.000,126.733 0.000 C 118.572 0.000,114.131 0.127,114.131 0.360 M279.593 22.295 C 291.552 24.871,300.344 33.768,304.705 47.705 C 306.396 53.109,306.751 54.448,306.751 55.422 C 306.751 55.957,306.977 57.194,307.253 58.170 C 308.870 63.881,309.014 90.587,307.465 97.417 C 307.282 98.224,306.959 100.411,306.748 102.277 C 306.537 104.144,306.215 106.238,306.032 106.931 C 305.850 107.624,305.180 110.846,304.545 114.092 C 303.265 120.622,303.271 120.659,305.671 121.210 C 307.747 121.687,321.926 126.540,323.852 127.433 C 324.248 127.616,326.355 128.525,328.533 129.452 C 332.972 131.342,344.785 137.305,345.662 138.099 C 345.975 138.382,346.353 138.614,346.502 138.614 C 346.938 138.614,353.068 142.848,357.036 145.890 C 362.905 150.389,369.453 157.343,372.391 162.196 C 373.462 163.966,375.837 169.104,376.086 170.189 C 376.213 170.743,376.555 171.926,376.846 172.817 C 377.778 175.669,377.573 183.500,376.467 187.287 C 374.083 195.449,368.612 203.378,360.388 210.587 C 357.748 212.902,357.283 213.275,353.915 215.788 C 351.955 217.251,344.395 222.198,343.048 222.899 C 335.716 226.718,330.624 229.224,327.409 230.597 C 325.255 231.517,323.168 232.415,322.772 232.592 C 321.040 233.368,313.537 236.120,311.071 236.884 C 303.325 239.282,303.783 238.647,305.226 245.005 C 308.580 259.772,310.324 282.149,308.946 292.737 C 308.211 298.392,307.495 302.964,307.090 304.590 C 305.488 311.021,303.521 316.217,300.948 320.811 C 298.128 325.848,295.463 328.870,290.503 332.655 C 289.274 333.592,283.732 336.272,283.007 336.279 C 282.700 336.282,281.719 336.554,280.828 336.884 C 278.095 337.895,266.246 337.765,261.566 336.672 C 252.398 334.532,240.434 329.481,233.712 324.913 C 232.999 324.429,232.289 324.032,232.135 324.032 C 231.781 324.032,224.795 319.266,221.450 316.744 C 220.070 315.703,218.243 314.336,217.391 313.705 C 216.539 313.075,215.518 312.262,215.122 311.897 C 214.725 311.533,213.429 310.451,212.241 309.493 C 210.293 307.922,204.153 302.407,202.728 300.949 C 201.051 299.233,200.946 299.276,195.991 303.743 C 191.470 307.817,184.458 313.594,181.558 315.634 C 180.762 316.194,178.591 317.720,176.734 319.025 C 173.765 321.111,171.445 322.608,169.232 323.866 C 168.870 324.072,168.354 324.422,168.085 324.644 C 167.281 325.309,157.336 330.367,154.815 331.393 C 153.528 331.917,152.151 332.496,151.755 332.680 C 149.455 333.749,143.114 335.623,137.714 336.829 C 133.757 337.712,122.307 337.737,119.892 336.867 C 119.001 336.547,118.029 336.279,117.732 336.273 C 116.947 336.258,111.289 333.668,109.799 332.642 C 97.660 324.290,91.441 307.612,91.452 283.432 C 91.454 277.773,92.301 263.846,92.681 263.233 C 92.776 263.079,93.030 261.532,93.246 259.796 C 93.693 256.194,95.916 244.784,96.674 242.200 L 97.180 240.475 96.024 239.771 C 95.389 239.384,94.663 239.066,94.410 239.065 C 93.736 239.063,88.188 237.260,87.073 236.680 C 86.548 236.407,85.843 236.184,85.507 236.184 C 85.172 236.184,84.387 235.953,83.763 235.670 C 83.139 235.388,80.684 234.395,78.308 233.464 C 72.139 231.047,63.620 226.982,58.146 223.844 C 55.466 222.308,47.467 217.129,47.165 216.735 C 47.066 216.606,46.723 216.352,46.404 216.171 C 41.172 213.204,30.936 202.186,27.387 195.702 C 16.889 176.517,24.883 157.368,50.405 140.567 C 56.284 136.697,70.274 129.253,71.668 129.253 C 71.892 129.253,72.506 129.019,73.032 128.733 C 74.779 127.782,82.193 125.008,88.029 123.122 C 98.393 119.772,97.496 120.686,96.151 114.851 C 95.120 110.379,94.020 104.546,93.571 101.170 C 93.374 99.685,92.984 97.174,92.705 95.590 C 91.334 87.804,91.254 64.996,92.577 59.046 C 92.775 58.155,93.157 56.292,93.426 54.905 C 95.853 42.368,101.641 32.317,109.451 27.072 C 111.611 25.622,115.422 23.789,116.310 23.772 C 116.617 23.767,117.022 23.618,117.210 23.441 C 120.751 20.111,140.990 22.419,152.295 27.441 C 153.186 27.837,154.401 28.370,154.995 28.627 C 161.291 31.347,176.633 40.395,178.246 42.339 C 178.477 42.617,178.808 42.844,178.982 42.844 C 179.156 42.844,179.581 43.093,179.928 43.398 C 180.275 43.702,182.178 45.196,184.158 46.717 C 188.116 49.758,194.667 55.328,197.480 58.045 C 200.129 60.605,200.508 60.608,203.177 58.099 C 207.256 54.264,209.336 52.394,211.341 50.761 C 212.430 49.874,213.483 48.966,213.681 48.745 C 214.037 48.346,216.751 46.220,218.684 44.824 C 219.233 44.428,220.600 43.397,221.722 42.532 C 223.511 41.154,229.851 36.829,231.557 35.824 C 246.024 27.301,252.383 24.703,265.347 22.024 C 268.387 21.395,276.098 21.542,279.593 22.295 M267.006 37.133 C 259.908 38.044,246.263 43.945,238.258 49.567 C 237.319 50.226,236.467 50.765,236.364 50.765 C 236.261 50.765,235.004 51.620,233.570 52.664 C 232.136 53.709,230.357 54.965,229.615 55.455 C 228.874 55.945,228.267 56.462,228.265 56.604 C 228.264 56.746,227.879 57.070,227.411 57.324 C 226.076 58.047,218.048 64.855,213.556 69.073 C 210.861 71.603,210.856 71.931,213.475 74.707 C 215.266 76.607,219.184 81.107,221.602 84.043 C 222.394 85.005,224.002 86.943,225.176 88.350 C 227.267 90.859,239.871 107.587,240.454 108.628 C 240.644 108.968,241.705 109.268,243.417 109.467 C 255.359 110.851,266.455 112.371,269.428 113.028 C 270.252 113.210,272.952 113.708,275.428 114.135 C 277.903 114.561,280.576 115.082,281.368 115.291 C 284.810 116.204,287.592 116.518,288.212 116.065 C 289.024 115.471,290.853 106.520,292.615 94.509 C 293.564 88.045,293.539 66.534,292.576 61.386 C 288.889 41.663,282.074 35.199,267.006 37.133 M123.132 37.392 C 119.569 38.163,115.608 40.903,113.471 44.074 C 111.949 46.333,109.699 51.296,109.272 53.338 C 109.133 54.002,108.810 55.275,108.553 56.166 C 105.895 65.388,105.990 83.754,108.784 100.630 C 109.844 107.032,111.484 114.592,112.053 115.699 C 112.441 116.453,114.820 116.335,118.272 115.391 C 119.262 115.120,121.125 114.722,122.412 114.507 C 123.699 114.292,126.859 113.726,129.433 113.249 C 132.007 112.773,135.086 112.274,136.274 112.141 C 137.462 112.008,139.131 111.751,139.984 111.569 C 140.837 111.388,143.672 110.997,146.285 110.701 C 157.112 109.475,159.611 109.129,159.818 108.829 C 162.228 105.334,174.759 89.017,176.946 86.526 C 177.151 86.293,177.966 85.331,178.758 84.387 C 180.618 82.171,188.268 73.427,188.897 72.798 C 189.853 71.842,189.318 71.021,185.552 67.671 C 183.447 65.798,181.461 64.023,181.140 63.725 C 180.355 62.998,171.658 56.106,170.798 55.529 C 170.423 55.278,168.850 54.179,167.302 53.086 C 151.152 41.691,133.025 35.250,123.132 37.392 M198.404 84.518 C 192.881 90.263,179.908 106.297,180.086 107.159 C 180.179 107.609,210.416 107.988,220.366 107.663 C 221.325 107.632,215.102 99.081,209.484 92.709 C 208.960 92.115,207.350 90.252,205.906 88.569 C 200.176 81.889,200.673 82.157,198.404 84.518 M180.558 122.758 C 168.028 123.223,167.875 123.265,165.578 126.847 C 164.666 128.269,162.701 131.301,161.213 133.584 C 157.927 138.623,150.462 151.043,148.343 154.998 C 147.495 156.581,146.199 158.929,145.462 160.216 C 144.726 161.503,143.877 163.042,143.576 163.636 C 143.275 164.230,141.388 167.929,139.381 171.856 C 137.375 175.783,135.734 179.301,135.734 179.674 C 135.734 181.394,147.919 204.187,155.646 216.922 C 160.339 224.656,167.019 234.778,167.902 235.493 C 168.727 236.161,170.112 236.253,189.019 236.895 C 200.739 237.293,232.074 236.512,232.703 235.806 C 233.028 235.442,238.673 226.887,239.581 225.383 C 240.119 224.491,241.503 222.223,242.657 220.342 C 249.888 208.550,256.252 197.115,262.551 184.599 L 265.046 179.639 262.865 175.238 C 260.433 170.334,256.357 162.539,255.316 160.805 C 254.943 160.184,253.948 158.380,253.103 156.796 C 252.258 155.212,251.382 153.672,251.155 153.375 C 250.928 153.078,250.353 152.106,249.878 151.215 C 248.887 149.360,243.221 139.901,241.486 137.208 C 240.847 136.216,239.528 134.142,238.554 132.599 C 233.631 124.793,232.979 123.939,231.766 123.715 C 226.554 122.750,196.088 122.181,180.558 122.758 M140.774 126.555 C 137.903 127.003,134.257 127.563,132.673 127.800 C 131.089 128.038,128.891 128.462,127.789 128.742 C 126.687 129.023,125.421 129.253,124.975 129.253 C 123.958 129.253,117.738 130.641,117.012 131.030 C 116.288 131.418,116.435 132.171,118.340 137.853 C 119.792 142.181,120.522 144.238,122.763 150.315 C 123.829 153.206,127.035 160.998,127.244 161.207 C 127.595 161.559,128.548 160.486,129.370 158.812 C 130.229 157.061,133.149 151.657,134.544 149.235 C 135.000 148.443,135.623 147.309,135.928 146.715 C 136.565 145.475,136.930 144.850,141.237 137.622 C 142.977 134.702,145.037 131.341,145.814 130.153 C 149.084 125.156,149.204 125.242,140.774 126.555 M252.574 125.998 C 252.426 126.238,253.022 127.547,253.942 129.008 C 254.839 130.430,257.326 134.562,259.469 138.191 C 261.613 141.820,263.723 145.385,264.159 146.112 C 264.595 146.840,265.066 147.678,265.206 147.975 C 265.345 148.272,266.058 149.568,266.790 150.855 C 267.522 152.142,268.971 154.815,270.010 156.796 C 272.779 162.078,273.161 162.191,274.685 158.192 C 275.053 157.226,275.790 155.383,276.322 154.095 C 276.853 152.808,277.425 151.350,277.591 150.855 C 277.758 150.360,278.241 149.064,278.666 147.975 C 280.505 143.261,284.068 132.697,284.068 131.961 C 284.068 131.232,283.193 130.897,279.028 130.035 C 271.382 128.452,270.707 128.334,260.486 126.774 C 257.912 126.381,255.137 125.950,254.321 125.817 C 253.333 125.656,252.748 125.717,252.574 125.998 M98.650 135.547 C 97.957 135.802,95.284 136.687,92.709 137.513 C 90.135 138.340,87.462 139.237,86.769 139.506 C 81.038 141.735,78.339 142.830,76.328 143.744 C 72.449 145.507,64.825 149.354,63.793 150.068 C 63.261 150.437,62.583 150.852,62.286 150.991 C 58.925 152.563,49.310 159.870,46.247 163.178 C 38.138 171.936,36.141 178.753,39.518 186.139 C 42.786 193.283,51.899 202.414,61.616 208.281 C 66.103 210.990,73.922 215.155,77.048 216.503 C 77.741 216.801,79.685 217.642,81.368 218.371 C 85.142 220.005,92.848 222.862,93.479 222.862 C 93.735 222.862,94.477 223.091,95.127 223.371 C 101.366 226.053,101.175 226.168,103.865 218.122 C 106.209 211.113,106.897 209.153,108.018 206.301 C 108.446 205.212,109.010 203.672,109.272 202.880 C 109.790 201.313,112.053 195.615,112.847 193.879 C 118.521 181.478,119.080 179.764,118.114 177.717 C 116.612 174.535,114.851 170.583,114.851 170.394 C 114.851 170.285,114.537 169.530,114.153 168.716 C 113.024 166.327,108.011 153.574,108.011 153.093 C 108.011 152.851,107.687 152.048,107.291 151.309 C 106.895 150.570,106.571 149.693,106.571 149.359 C 106.571 149.026,106.346 148.295,106.071 147.734 C 105.476 146.523,105.103 145.449,103.496 140.331 C 101.684 134.559,101.590 134.466,98.650 135.547 M298.631 136.264 C 297.996 137.784,295.385 145.281,294.740 147.435 C 294.503 148.227,294.111 149.229,293.869 149.661 C 293.627 150.094,293.429 150.697,293.429 151.002 C 293.429 151.307,293.114 152.249,292.729 153.096 C 292.344 153.943,291.108 156.985,289.983 159.856 C 288.858 162.727,287.694 165.644,287.395 166.337 C 287.097 167.030,286.541 168.326,286.159 169.217 C 285.203 171.446,284.726 172.504,283.022 176.168 L 281.549 179.339 282.302 181.028 C 282.716 181.958,283.427 183.528,283.881 184.518 C 284.744 186.399,286.756 190.839,287.307 192.079 C 287.483 192.475,288.132 194.014,288.749 195.500 C 289.366 196.985,290.015 198.524,290.191 198.920 C 290.367 199.316,290.858 200.531,291.282 201.620 C 292.232 204.056,293.204 206.491,293.798 207.921 C 294.045 208.515,294.458 209.649,294.717 210.441 C 294.976 211.233,295.605 213.015,296.114 214.401 C 297.531 218.256,298.366 220.733,298.801 222.374 C 299.359 224.475,300.138 224.568,304.654 223.071 C 309.014 221.626,316.103 218.974,319.172 217.639 C 320.360 217.122,321.626 216.607,321.985 216.493 C 326.788 214.970,343.146 205.408,347.795 201.406 C 348.290 200.980,349.884 199.619,351.337 198.381 C 362.403 188.957,365.356 177.766,358.996 169.349 C 358.677 168.926,358.173 168.199,357.876 167.732 C 357.185 166.648,350.533 159.960,348.875 158.684 C 341.013 152.630,334.133 148.613,322.772 143.444 C 318.123 141.328,307.059 137.300,302.070 135.907 C 301.179 135.658,300.166 135.337,299.818 135.195 C 299.323 134.991,299.065 135.223,298.631 136.264 M205.041 147.988 C 207.769 148.377,212.203 149.761,214.221 150.854 C 214.914 151.229,215.860 151.708,216.323 151.919 C 220.688 153.904,227.576 161.836,229.563 167.166 C 232.336 174.605,232.556 184.509,230.077 190.279 C 227.839 195.488,225.762 198.700,222.502 201.990 C 211.842 212.748,193.889 214.137,181.523 205.162 C 154.798 185.764,172.258 143.319,205.041 147.988 M271.972 198.834 C 271.089 200.758,265.980 210.137,264.963 211.701 C 264.770 211.998,264.370 212.727,264.074 213.321 C 263.778 213.915,263.383 214.644,263.195 214.941 C 263.008 215.239,261.866 217.183,260.657 219.262 C 258.165 223.548,258.225 223.447,256.628 226.043 C 255.977 227.100,255.284 228.241,255.086 228.578 C 254.887 228.916,254.186 230.030,253.526 231.055 C 251.937 233.523,252.180 233.815,255.587 233.535 C 258.590 233.288,266.598 232.102,270.567 231.317 C 271.953 231.042,273.878 230.716,274.844 230.591 C 275.811 230.467,276.945 230.224,277.365 230.052 C 277.784 229.880,279.303 229.554,280.738 229.328 C 282.174 229.103,283.701 228.632,284.132 228.284 L 284.915 227.650 283.750 224.086 C 282.332 219.745,281.262 216.884,277.031 206.121 C 273.605 197.404,273.017 196.557,271.972 198.834 M126.848 199.010 C 126.726 199.356,126.348 200.288,126.008 201.080 C 125.668 201.872,124.699 204.302,123.855 206.481 C 123.012 208.659,122.184 210.765,122.017 211.161 C 121.653 212.019,121.258 213.158,118.442 221.458 C 116.188 228.099,116.007 228.918,116.742 229.144 C 120.428 230.278,138.930 233.321,147.075 234.132 C 148.077 234.232,148.206 232.880,147.315 231.610 C 146.926 231.056,145.580 228.941,144.322 226.909 C 141.075 221.665,140.431 220.593,140.158 219.982 C 140.026 219.685,139.407 218.632,138.784 217.642 C 138.160 216.652,137.112 214.869,136.456 213.681 C 135.800 212.493,135.036 211.116,134.758 210.621 C 134.479 210.126,133.843 208.992,133.343 208.101 C 132.843 207.210,131.637 204.954,130.662 203.088 C 128.293 198.550,127.361 197.553,126.848 199.010 M286.827 243.266 C 286.609 243.484,285.020 243.810,276.688 245.344 C 267.193 247.092,254.100 248.992,247.885 249.523 C 240.792 250.130,241.391 249.764,236.724 256.345 C 235.160 258.549,232.671 261.947,230.392 264.986 C 228.974 266.878,222.000 275.688,220.575 277.389 C 216.997 281.658,212.395 286.922,212.063 287.128 C 211.152 287.691,211.912 288.877,214.984 291.687 C 216.790 293.338,218.475 294.887,218.728 295.128 C 231.213 307.031,251.954 319.087,264.752 321.880 C 277.911 324.753,287.866 318.914,290.857 306.571 C 291.049 305.779,291.371 304.644,291.573 304.050 C 293.653 297.934,294.922 283.704,294.174 274.887 C 293.939 272.115,293.594 268.000,293.407 265.743 C 293.221 263.486,292.914 261.055,292.725 260.342 C 292.536 259.629,292.221 257.831,292.025 256.346 C 290.681 246.153,288.764 241.329,286.827 243.266 M112.089 244.173 C 111.173 245.353,108.880 256.502,107.659 265.707 C 105.937 278.689,106.247 294.156,108.398 302.610 C 108.599 303.402,108.926 304.698,109.125 305.491 C 111.862 316.433,118.701 322.565,128.193 322.586 C 137.738 322.608,153.318 316.740,164.612 308.871 C 165.148 308.497,165.682 308.191,165.797 308.191 C 165.913 308.191,166.851 307.570,167.882 306.811 C 168.913 306.053,170.648 304.812,171.737 304.055 C 175.314 301.568,180.907 296.965,186.380 292.005 C 190.637 288.147,190.714 288.630,184.773 281.880 C 177.551 273.673,172.656 267.645,165.977 258.731 C 161.518 252.781,159.793 250.740,159.061 250.550 C 158.525 250.410,155.285 250.030,151.861 249.706 C 141.556 248.731,125.343 246.328,117.732 244.648 C 113.715 243.762,112.488 243.658,112.089 244.173 M180.315 252.281 C 180.002 252.658,186.132 260.824,190.622 266.011 C 191.077 266.537,192.158 267.782,193.024 268.779 C 193.891 269.776,195.491 271.622,196.580 272.880 C 200.776 277.731,200.785 277.733,203.298 274.676 C 203.854 274.000,204.411 273.366,204.535 273.267 C 206.127 272.000,221.156 252.847,220.978 252.312 C 220.773 251.699,180.824 251.668,180.315 252.281 " stroke="none" fill="#fbfbfc" fill-rule="evenodd"></path></g></svg>