<svg id="svg" version="1.1" xmlns="http://www.w3.org/2000/svg" xmlns:xlink="http://www.w3.org/1999/xlink" width="400" height="400" viewBox="0, 0, 400,400"><g id="svgg"><path id="path0" d="M324.400 94.347 C 324.400 94.538,323.639 94.797,322.709 94.922 C 321.778 95.046,320.953 95.340,320.875 95.574 C 320.797 95.808,320.309 96.000,319.790 96.000 C 319.272 96.000,318.729 96.191,318.585 96.425 C 318.440 96.658,317.935 97.026,317.461 97.242 C 315.640 98.072,314.855 98.706,311.571 102.000 C 303.117 110.479,299.752 120.491,301.637 131.556 C 301.777 132.378,301.549 132.601,300.000 133.156 C 299.010 133.510,298.140 133.935,298.067 134.100 C 297.993 134.265,297.408 134.400,296.767 134.400 C 296.125 134.400,295.600 134.566,295.600 134.768 C 295.600 134.971,295.060 135.255,294.400 135.400 C 293.740 135.545,293.200 135.829,293.200 136.032 C 293.200 136.234,292.949 136.400,292.643 136.400 C 292.336 136.400,291.982 136.670,291.855 137.000 C 291.729 137.330,291.259 137.600,290.813 137.600 C 290.357 137.600,290.000 137.864,290.000 138.200 C 290.000 138.600,289.600 138.800,288.800 138.800 C 288.140 138.800,287.600 138.968,287.600 139.173 C 287.600 139.378,287.237 139.661,286.794 139.802 C 286.351 139.943,286.092 140.225,286.218 140.429 C 286.344 140.633,285.987 140.800,285.424 140.800 C 284.780 140.800,284.400 141.023,284.400 141.400 C 284.400 141.773,284.022 142.000,283.400 142.000 C 282.818 142.000,282.400 142.230,282.400 142.550 C 282.400 142.853,281.866 143.207,281.213 143.338 C 280.559 143.468,279.659 143.941,279.213 144.388 C 278.766 144.834,278.124 145.200,277.787 145.200 C 277.451 145.200,277.071 145.470,276.945 145.800 C 276.818 146.130,276.368 146.400,275.945 146.400 C 275.521 146.400,275.071 146.670,274.945 147.000 C 274.818 147.330,274.464 147.600,274.157 147.600 C 273.851 147.600,273.600 147.780,273.600 148.000 C 273.600 148.220,273.144 148.400,272.587 148.400 C 272.031 148.400,271.471 148.670,271.345 149.000 C 271.218 149.330,270.768 149.600,270.345 149.600 C 269.921 149.600,269.471 149.870,269.345 150.200 C 269.218 150.530,268.883 150.800,268.600 150.800 C 268.317 150.800,267.983 151.067,267.858 151.393 C 267.733 151.720,267.377 151.889,267.067 151.770 C 266.757 151.651,266.223 151.834,265.880 152.177 C 265.537 152.520,264.969 152.800,264.616 152.800 C 264.263 152.800,263.871 153.070,263.745 153.400 C 263.618 153.730,263.174 154.000,262.757 154.000 C 262.341 154.000,262.000 154.270,262.000 154.600 C 262.000 154.933,261.644 155.200,261.200 155.200 C 260.760 155.200,260.400 155.380,260.400 155.600 C 260.400 155.820,260.053 156.000,259.629 156.000 C 259.204 156.000,258.587 156.270,258.257 156.600 C 257.927 156.930,257.394 157.200,257.071 157.200 C 256.749 157.200,256.382 157.470,256.255 157.800 C 256.129 158.130,255.749 158.400,255.413 158.400 C 255.076 158.400,254.800 158.670,254.800 159.000 C 254.800 159.368,254.426 159.600,253.833 159.600 C 253.302 159.600,252.806 159.782,252.732 160.004 C 252.658 160.226,252.175 160.489,251.659 160.589 C 251.142 160.688,250.297 161.226,249.779 161.785 C 249.262 162.343,248.470 162.800,248.019 162.800 C 247.558 162.800,247.200 163.062,247.200 163.400 C 247.200 163.773,246.822 164.000,246.200 164.000 C 245.650 164.000,245.200 164.180,245.200 164.400 C 245.200 164.620,244.924 164.800,244.587 164.800 C 244.251 164.800,243.872 165.069,243.746 165.398 C 243.619 165.726,243.362 165.900,243.173 165.783 C 242.984 165.666,242.463 165.937,242.015 166.385 C 241.567 166.833,240.840 167.200,240.400 167.200 C 239.956 167.200,239.600 167.467,239.600 167.800 C 239.600 168.130,239.321 168.400,238.980 168.400 C 237.997 168.400,235.950 169.595,236.211 170.017 C 236.341 170.228,235.981 170.400,235.411 170.400 C 234.841 170.400,234.271 170.670,234.145 171.000 C 234.018 171.330,233.583 171.600,233.177 171.600 C 232.772 171.600,232.296 171.825,232.120 172.100 C 231.698 172.759,230.170 173.600,229.393 173.600 C 229.053 173.600,228.671 173.870,228.545 174.200 C 228.418 174.530,227.968 174.800,227.545 174.800 C 227.121 174.800,226.671 175.070,226.545 175.400 C 226.418 175.730,225.993 176.000,225.600 176.000 C 225.207 176.000,224.782 176.270,224.655 176.600 C 224.529 176.930,224.149 177.200,223.813 177.200 C 223.476 177.200,223.200 177.380,223.200 177.600 C 223.200 177.820,222.744 178.000,222.187 178.000 C 221.631 178.000,221.078 178.254,220.959 178.564 C 220.839 178.874,220.305 179.237,219.771 179.372 C 219.237 179.506,218.800 179.792,218.800 180.008 C 218.800 180.223,218.530 180.400,218.200 180.400 C 217.870 180.400,217.600 180.580,217.600 180.800 C 217.600 181.020,217.253 181.200,216.829 181.200 C 216.404 181.200,215.787 181.470,215.457 181.800 C 215.127 182.130,214.594 182.400,214.271 182.400 C 213.949 182.400,213.582 182.670,213.455 183.000 C 213.329 183.330,212.969 183.600,212.655 183.600 C 212.342 183.600,211.982 183.870,211.855 184.200 C 211.729 184.530,211.259 184.800,210.813 184.800 C 210.331 184.800,210.000 185.063,210.000 185.447 C 210.000 185.898,209.757 186.030,209.193 185.882 C 208.749 185.766,208.156 185.880,207.876 186.136 C 207.107 186.836,205.884 187.595,205.100 187.858 C 204.715 187.988,204.400 188.342,204.400 188.647 C 204.400 188.970,203.985 189.200,203.400 189.200 C 202.850 189.200,202.400 189.362,202.400 189.560 C 202.400 189.759,201.591 190.254,200.601 190.660 C 199.612 191.067,198.802 191.625,198.801 191.900 C 198.801 192.175,198.350 192.400,197.800 192.400 C 197.178 192.400,196.800 192.627,196.800 193.000 C 196.800 193.373,196.422 193.600,195.800 193.600 C 195.250 193.600,194.800 193.780,194.800 194.000 C 194.800 194.220,194.530 194.400,194.200 194.400 C 193.870 194.400,193.600 194.670,193.600 195.000 C 193.600 195.375,193.221 195.600,192.587 195.600 C 192.031 195.600,191.471 195.870,191.345 196.200 C 191.218 196.530,190.684 196.800,190.157 196.800 C 189.573 196.800,189.200 197.034,189.200 197.400 C 189.200 197.733,188.844 198.000,188.400 198.000 C 187.960 198.000,187.600 198.160,187.600 198.357 C 187.600 198.553,187.143 198.828,186.584 198.968 C 186.025 199.109,185.675 199.398,185.807 199.612 C 185.942 199.830,185.513 200.000,184.824 200.000 C 184.114 200.000,183.598 200.210,183.595 200.500 C 183.593 200.775,182.873 201.344,181.995 201.764 C 181.118 202.185,180.400 202.680,180.400 202.864 C 180.400 203.049,179.944 203.200,179.387 203.200 C 178.831 203.200,178.278 203.454,178.159 203.764 C 178.039 204.074,177.505 204.437,176.971 204.572 C 176.437 204.706,176.000 204.992,176.000 205.208 C 176.000 205.423,175.730 205.600,175.400 205.600 C 175.070 205.600,174.800 205.860,174.800 206.177 C 174.800 206.543,174.501 206.696,173.980 206.596 C 173.514 206.506,173.064 206.689,172.937 207.019 C 172.815 207.339,172.303 207.600,171.800 207.600 C 171.297 207.600,170.782 207.870,170.655 208.200 C 170.529 208.530,170.149 208.800,169.813 208.800 C 169.476 208.800,169.200 209.070,169.200 209.400 C 169.200 209.766,168.827 210.000,168.243 210.000 C 167.716 210.000,167.183 210.267,167.058 210.593 C 166.933 210.920,166.598 211.098,166.315 210.989 C 166.032 210.880,165.321 211.236,164.735 211.779 C 164.150 212.323,163.205 212.884,162.635 213.027 C 162.066 213.170,161.600 213.537,161.600 213.843 C 161.600 214.170,161.188 214.400,160.600 214.400 C 159.954 214.400,159.600 214.624,159.600 215.033 C 159.600 215.382,159.375 215.586,159.100 215.486 C 158.426 215.243,156.400 216.444,156.400 217.086 C 156.400 217.390,155.910 217.600,155.200 217.600 C 154.400 217.600,154.000 217.800,154.000 218.200 C 154.000 218.573,153.622 218.800,153.000 218.800 C 152.450 218.800,152.000 218.980,152.000 219.200 C 152.000 219.420,151.730 219.600,151.400 219.600 C 151.070 219.600,150.800 219.870,150.800 220.200 C 150.800 220.600,150.400 220.800,149.600 220.800 C 148.800 220.800,148.400 221.000,148.400 221.400 C 148.400 221.773,148.022 222.000,147.400 222.000 C 146.850 222.000,146.400 222.228,146.400 222.506 C 146.400 222.784,145.680 223.323,144.800 223.704 C 143.920 224.086,143.200 224.578,143.200 224.799 C 143.200 225.019,142.660 225.200,142.000 225.200 C 141.200 225.200,140.800 225.400,140.800 225.800 C 140.800 226.173,140.422 226.400,139.800 226.400 C 139.178 226.400,138.800 226.627,138.800 227.000 C 138.800 227.330,138.530 227.600,138.200 227.600 C 137.870 227.600,137.600 227.780,137.600 228.000 C 137.600 228.220,137.144 228.400,136.587 228.400 C 136.031 228.400,135.471 228.670,135.345 229.000 C 135.218 229.330,134.793 229.600,134.400 229.600 C 134.007 229.600,133.582 229.870,133.455 230.200 C 133.329 230.530,132.949 230.800,132.613 230.800 C 132.276 230.800,132.000 231.064,132.000 231.387 C 132.000 231.721,131.763 231.884,131.452 231.764 C 131.150 231.649,130.612 231.845,130.256 232.202 C 129.899 232.558,129.246 232.876,128.804 232.910 C 128.362 232.943,128.000 233.188,128.000 233.453 C 128.000 233.719,127.458 234.055,126.797 234.201 C 126.135 234.346,125.695 234.630,125.820 234.833 C 125.945 235.035,125.677 235.200,125.224 235.200 C 124.771 235.200,124.400 235.377,124.400 235.592 C 124.400 235.808,123.950 236.098,123.400 236.236 C 122.850 236.374,122.400 236.647,122.400 236.843 C 122.400 237.040,122.053 237.200,121.629 237.200 C 121.204 237.200,120.587 237.470,120.257 237.800 C 119.927 238.130,119.464 238.400,119.229 238.400 C 118.993 238.400,118.800 238.670,118.800 239.000 C 118.800 239.366,118.427 239.600,117.843 239.600 C 117.316 239.600,116.781 239.872,116.654 240.204 C 116.527 240.536,116.282 240.784,116.111 240.756 C 115.402 240.640,114.941 240.851,113.838 241.800 C 113.199 242.350,112.428 242.800,112.125 242.800 C 111.823 242.800,111.471 243.070,111.345 243.400 C 111.218 243.730,110.761 244.000,110.329 244.000 C 109.896 244.000,109.292 244.225,108.985 244.500 C 107.598 245.744,107.194 246.000,106.617 246.000 C 106.278 246.000,106.000 246.270,106.000 246.600 C 106.000 246.975,105.621 247.200,104.987 247.200 C 104.431 247.200,103.871 247.470,103.745 247.800 C 103.618 248.130,103.149 248.400,102.703 248.400 C 102.257 248.400,101.475 248.850,100.965 249.400 C 100.455 249.950,99.856 250.400,99.633 250.400 C 99.410 250.400,98.675 250.940,98.000 251.600 C 96.528 253.039,96.150 253.076,95.046 251.895 C 93.608 250.356,89.295 247.200,88.630 247.200 C 88.284 247.200,88.000 247.020,88.000 246.800 C 88.000 246.580,87.724 246.400,87.386 246.400 C 87.048 246.400,86.372 246.138,85.883 245.818 C 85.394 245.497,84.635 245.240,84.197 245.246 C 83.759 245.252,82.050 244.863,80.400 244.382 C 76.573 243.267,69.882 243.183,66.000 244.200 C 64.570 244.575,62.802 244.975,62.071 245.088 C 61.340 245.202,59.935 245.723,58.950 246.247 C 57.964 246.771,56.892 247.200,56.566 247.200 C 56.241 247.200,55.871 247.470,55.745 247.800 C 55.618 248.130,55.352 248.400,55.154 248.400 C 54.446 248.400,51.468 251.242,48.029 255.200 C 47.360 255.970,46.810 256.915,46.806 257.300 C 46.803 257.685,46.662 258.000,46.494 258.000 C 46.326 258.000,45.769 258.945,45.256 260.100 C 44.743 261.255,44.160 262.513,43.961 262.895 C 43.763 263.277,43.600 264.014,43.600 264.533 C 43.600 265.052,43.307 266.064,42.949 266.781 C 42.165 268.353,42.312 278.472,43.131 279.291 C 43.389 279.549,43.600 280.123,43.600 280.567 C 43.600 281.669,44.758 284.684,45.877 286.492 C 46.385 287.313,46.800 288.097,46.800 288.234 C 46.800 289.401,54.009 296.674,56.338 297.857 C 57.142 298.266,57.890 298.690,58.000 298.800 C 58.633 299.433,61.955 300.722,66.400 302.059 C 68.783 302.775,76.835 302.772,79.200 302.053 C 83.739 300.674,85.044 300.200,85.631 299.718 C 85.979 299.433,86.405 299.200,86.578 299.200 C 89.118 299.200,96.884 291.575,99.681 286.335 C 101.493 282.940,101.379 282.973,104.371 285.000 L 106.142 286.200 199.771 286.304 C 300.849 286.416,297.627 286.477,301.677 284.396 L 303.154 283.637 304.325 285.540 C 304.969 286.587,305.609 287.798,305.746 288.231 C 305.992 289.004,307.027 290.271,309.933 293.357 C 312.920 296.527,317.854 299.649,322.000 300.989 C 323.210 301.381,324.620 301.861,325.134 302.057 C 329.726 303.810,345.148 301.368,346.333 298.700 C 346.407 298.535,346.747 298.400,347.089 298.400 C 349.398 298.400,357.110 289.997,359.203 285.200 C 359.347 284.870,359.765 284.000,360.132 283.268 C 360.500 282.535,360.803 281.635,360.806 281.268 C 360.809 280.900,361.071 279.880,361.388 279.000 C 362.187 276.784,362.195 267.791,361.400 266.400 C 361.086 265.850,360.822 264.993,360.814 264.495 C 360.806 263.997,360.641 263.277,360.448 262.895 C 360.254 262.513,359.446 260.850,358.652 259.200 C 357.223 256.229,355.727 254.124,353.392 251.802 C 351.506 249.925,349.643 248.400,349.237 248.400 C 349.033 248.400,348.807 248.245,348.733 248.056 C 348.530 247.532,343.183 245.163,342.774 245.416 C 342.578 245.537,342.021 245.425,341.537 245.166 C 337.630 243.075,325.294 242.964,322.015 244.991 C 320.878 245.694,320.800 242.708,320.800 198.226 C 320.800 173.242,320.867 152.800,320.949 152.800 C 321.031 152.800,322.516 153.157,324.249 153.594 C 332.638 155.707,344.457 153.332,350.041 148.411 C 350.788 147.752,351.530 147.210,351.688 147.206 C 353.321 147.170,360.156 136.231,360.940 132.400 C 361.052 131.850,361.333 130.680,361.563 129.800 C 362.217 127.297,362.111 119.440,361.400 117.738 C 361.070 116.949,360.800 115.992,360.800 115.613 C 360.800 115.233,360.551 114.400,360.247 113.761 C 359.943 113.123,359.369 111.835,358.970 110.900 C 358.572 109.965,358.101 109.200,357.923 109.200 C 357.745 109.200,357.595 108.885,357.588 108.500 C 357.563 106.954,349.243 98.400,347.765 98.400 C 347.508 98.400,347.074 98.130,346.800 97.800 C 346.526 97.470,345.964 97.200,345.551 97.200 C 345.138 97.200,344.800 97.023,344.800 96.808 C 344.800 96.592,344.317 96.294,343.727 96.146 C 343.136 95.998,342.191 95.635,341.627 95.341 C 341.062 95.046,340.206 94.804,339.724 94.802 C 339.242 94.801,338.736 94.620,338.600 94.400 C 338.293 93.903,324.400 93.852,324.400 94.347 M309.795 149.991 C 309.928 150.206,311.423 151.421,313.118 152.690 C 316.632 155.321,317.337 156.042,318.307 158.000 C 319.169 159.741,319.606 239.806,318.771 242.909 C 318.325 244.566,316.588 246.576,314.200 248.200 C 308.287 252.222,302.340 259.920,300.989 265.301 C 300.443 267.477,301.390 267.403,274.637 267.367 C 245.688 267.328,240.576 267.114,240.267 265.933 C 240.153 265.497,239.686 265.043,239.230 264.924 C 238.029 264.610,238.187 263.600,239.436 263.600 C 240.402 263.600,240.466 263.486,240.382 261.900 C 240.248 259.350,240.309 259.201,241.500 259.188 C 242.440 259.177,242.498 259.117,241.900 258.768 C 241.515 258.544,241.200 258.099,241.200 257.780 C 241.200 257.461,241.020 257.200,240.800 257.200 C 240.580 257.200,240.400 256.660,240.400 256.000 C 240.400 255.340,240.220 254.800,240.000 254.800 C 239.780 254.800,239.600 254.440,239.600 254.000 C 239.600 253.459,239.867 253.200,240.424 253.200 C 240.894 253.200,241.137 253.021,240.989 252.782 C 240.847 252.553,240.972 252.069,241.266 251.708 C 241.728 251.138,241.706 251.085,241.100 251.313 C 240.715 251.457,240.386 251.446,240.369 251.287 C 240.063 248.428,240.219 247.200,240.887 247.200 C 241.130 247.200,241.185 247.755,241.026 248.600 C 240.862 249.475,240.921 250.000,241.182 250.000 C 241.412 250.000,241.600 249.640,241.600 249.200 C 241.600 248.756,241.867 248.400,242.200 248.400 C 243.075 248.400,242.934 247.696,242.000 247.400 C 241.560 247.260,241.200 246.995,241.200 246.810 C 241.200 246.626,240.840 246.569,240.400 246.684 C 239.471 246.927,239.294 246.092,240.200 245.745 C 240.530 245.618,240.800 245.283,240.800 245.000 C 240.800 244.717,240.530 244.382,240.200 244.255 C 239.313 243.915,239.466 242.800,240.400 242.800 C 240.844 242.800,241.200 243.067,241.200 243.400 C 241.200 243.730,241.380 244.000,241.600 244.000 C 241.820 244.000,242.000 243.730,242.000 243.400 C 242.000 243.070,241.865 242.799,241.700 242.797 C 241.078 242.790,240.401 240.567,240.428 238.620 C 240.449 237.123,240.545 236.807,240.800 237.400 C 241.172 238.267,241.384 236.942,241.209 234.846 C 241.165 234.321,241.346 233.757,241.611 233.593 C 241.945 233.387,241.973 233.081,241.702 232.596 C 241.438 232.125,241.220 232.044,241.032 232.349 C 240.394 233.380,239.938 232.750,240.200 231.200 C 240.378 230.148,240.321 229.600,240.035 229.600 C 239.408 229.600,239.523 227.935,240.213 227.024 C 240.536 226.596,240.800 226.472,240.800 226.747 C 240.800 227.022,240.972 227.141,241.183 227.011 C 241.562 226.776,241.304 225.584,240.791 225.200 C 239.879 224.519,240.033 222.808,241.053 222.274 C 241.805 221.880,241.968 221.627,241.612 221.408 C 241.333 221.235,240.980 221.309,240.815 221.576 C 240.622 221.888,240.349 221.643,240.029 220.870 C 239.636 219.920,239.643 219.520,240.066 218.843 C 240.490 218.165,240.495 217.844,240.093 217.200 C 239.700 216.571,239.697 216.234,240.077 215.625 C 240.462 215.010,240.449 214.639,240.015 213.828 C 239.519 212.901,239.553 212.734,240.396 212.004 L 241.322 211.200 240.361 211.168 C 239.833 211.151,239.625 211.046,239.900 210.935 C 240.505 210.691,240.587 207.200,239.987 207.200 C 239.237 207.200,239.695 204.468,240.480 204.263 C 241.199 204.075,241.526 202.400,240.844 202.400 C 240.089 202.400,240.126 199.660,240.883 199.462 C 241.340 199.343,241.600 198.898,241.600 198.237 C 241.600 197.220,240.827 196.718,240.772 197.700 C 240.756 197.975,240.595 197.840,240.413 197.400 C 240.190 196.862,240.265 196.455,240.641 196.156 C 240.948 195.912,241.200 195.522,241.200 195.289 C 241.200 195.057,241.387 194.804,241.615 194.728 C 241.896 194.635,241.873 193.911,241.544 192.486 C 241.232 191.135,240.943 190.564,240.735 190.891 C 240.500 191.262,240.411 191.210,240.406 190.700 C 240.402 190.258,240.704 190.000,241.224 190.000 C 241.677 190.000,241.944 189.833,241.818 189.629 C 241.692 189.425,241.906 189.157,242.294 189.033 C 242.682 188.910,243.463 188.379,244.029 187.854 C 244.595 187.329,245.450 186.774,245.929 186.622 C 246.408 186.470,246.800 186.199,246.800 186.020 C 246.800 185.840,247.115 185.584,247.500 185.451 C 247.885 185.318,248.740 184.849,249.400 184.409 C 250.060 183.969,250.870 183.471,251.200 183.302 C 251.530 183.133,252.790 182.348,254.000 181.557 C 255.210 180.766,256.944 179.688,257.854 179.160 C 258.764 178.632,261.014 177.273,262.854 176.141 C 264.694 175.008,266.772 173.748,267.470 173.341 C 268.169 172.933,270.059 171.790,271.670 170.800 C 273.282 169.810,274.775 168.927,274.989 168.837 C 275.203 168.747,278.542 166.748,282.410 164.394 C 286.277 162.040,290.242 159.664,291.221 159.113 C 292.199 158.562,295.520 156.595,298.600 154.740 C 306.171 150.182,309.135 148.924,309.795 149.991 M241.280 213.280 C 241.016 213.544,240.806 214.039,240.813 214.380 C 240.823 214.902,240.910 214.889,241.357 214.300 C 241.649 213.915,242.104 213.600,242.368 213.600 C 242.631 213.600,242.736 213.420,242.600 213.200 C 242.273 212.670,241.865 212.695,241.280 213.280 M241.899 219.491 C 241.274 220.181,241.281 220.258,241.997 220.706 C 242.920 221.281,243.318 220.790,242.883 219.614 C 242.576 218.782,242.544 218.778,241.899 219.491 M239.600 233.400 C 239.600 233.730,239.330 234.000,239.000 234.000 C 238.670 234.000,238.400 233.730,238.400 233.400 C 238.400 233.070,238.670 232.800,239.000 232.800 C 239.330 232.800,239.600 233.070,239.600 233.400 " stroke="none" fill="#3666b5" fill-rule="evenodd"></path><path id="path1" d="M193.600 25.191 C 186.714 27.494,182.468 30.413,178.110 35.841 C 176.528 37.811,174.000 42.587,174.000 43.605 C 174.000 44.016,173.846 44.448,173.657 44.565 C 173.468 44.682,173.096 46.177,172.831 47.889 C 172.163 52.198,172.100 52.347,170.669 53.017 C 169.971 53.344,169.713 53.525,170.096 53.420 C 170.960 53.182,171.101 53.794,171.331 58.800 C 171.525 63.037,172.939 67.587,175.206 71.272 C 175.900 72.399,176.350 73.582,176.224 73.947 C 176.057 74.429,176.154 74.399,176.591 73.834 C 177.120 73.151,177.105 72.936,176.448 71.834 C 173.812 67.416,172.570 64.000,173.600 64.000 C 173.820 64.000,174.000 64.540,174.000 65.200 C 174.000 65.860,174.167 66.400,174.372 66.400 C 174.577 66.400,175.162 67.246,175.672 68.281 C 176.182 69.315,177.292 70.800,178.137 71.581 C 178.983 72.361,180.513 73.789,181.537 74.752 C 193.783 86.272,211.422 85.837,224.000 73.705 C 225.210 72.538,226.609 71.195,227.108 70.720 C 227.607 70.245,228.404 69.078,228.879 68.128 C 229.353 67.178,229.867 66.400,230.021 66.400 C 230.174 66.400,230.429 65.815,230.587 65.100 C 230.745 64.385,230.959 64.013,231.062 64.274 C 231.331 64.955,230.141 68.253,228.747 70.691 L 227.552 72.782 228.425 73.691 C 229.257 74.557,229.278 74.559,228.861 73.749 C 228.503 73.051,228.640 72.499,229.625 70.680 C 232.141 66.035,233.945 58.536,233.499 54.577 C 233.335 53.127,233.418 52.795,233.949 52.775 C 234.435 52.756,234.393 52.666,233.786 52.419 C 232.494 51.895,232.130 51.185,231.625 48.200 C 228.736 31.098,209.943 19.726,193.600 25.191 M231.876 62.700 C 231.775 63.085,231.693 62.770,231.693 62.000 C 231.693 61.230,231.775 60.915,231.876 61.300 C 231.976 61.685,231.976 62.315,231.876 62.700 M65.800 95.974 C 61.001 97.356,57.346 99.158,54.112 101.736 C 51.457 103.853,47.778 107.953,47.055 109.600 C 46.814 110.150,46.523 110.690,46.408 110.800 C 45.577 111.599,43.819 116.763,43.218 120.173 C 41.962 127.304,44.351 137.046,48.602 142.131 C 51.013 145.015,51.974 145.991,54.056 147.668 C 69.147 159.831,94.074 153.896,100.539 136.600 C 102.695 130.833,103.520 123.947,102.407 121.019 C 102.068 120.128,102.112 119.689,102.616 118.919 C 103.015 118.311,103.119 117.769,102.896 117.473 C 102.699 117.213,102.211 116.100,101.811 115.000 C 100.216 110.608,93.366 101.600,91.622 101.600 C 91.343 101.600,91.214 101.339,91.337 101.020 C 91.478 100.652,91.367 100.515,91.032 100.643 C 90.741 100.755,89.153 100.025,87.501 99.023 C 85.850 98.020,84.146 97.200,83.716 97.200 C 83.286 97.200,82.808 97.074,82.654 96.921 C 81.039 95.306,70.229 94.698,65.800 95.974 M311.800 100.614 C 311.360 101.152,310.865 101.594,310.700 101.596 C 310.293 101.601,309.274 102.661,307.610 104.807 C 306.846 105.793,306.101 106.690,305.954 106.800 C 305.807 106.910,305.289 107.766,304.802 108.702 C 304.315 109.638,303.756 110.504,303.559 110.626 C 303.361 110.747,303.200 111.265,303.200 111.775 C 303.200 112.285,302.930 112.926,302.600 113.200 C 302.270 113.474,301.997 114.171,301.994 114.749 C 301.986 116.076,301.613 116.654,300.600 116.907 C 299.874 117.089,299.883 117.111,300.700 117.154 C 301.195 117.179,301.600 117.416,301.600 117.680 C 301.600 118.607,302.237 117.396,303.010 115.000 C 304.599 110.072,307.904 105.094,311.691 101.924 C 312.741 101.044,313.500 100.162,313.377 99.962 C 313.031 99.403,312.669 99.552,311.800 100.614 M80.600 156.066 C 76.907 157.113,69.693 157.216,66.000 156.275 C 62.955 155.498,62.800 155.483,62.800 155.968 C 62.800 156.463,67.721 157.554,71.302 157.852 C 75.194 158.176,84.000 156.593,84.000 155.569 C 84.000 155.105,83.976 155.109,80.600 156.066 M339.905 155.835 C 335.927 157.275,328.562 157.336,323.492 155.971 C 320.609 155.195,320.800 152.057,320.800 200.303 C 320.800 242.734,320.880 245.692,322.015 244.991 C 325.278 242.974,337.628 243.074,341.503 245.148 C 342.598 245.734,342.800 245.718,342.800 245.043 C 342.800 244.396,341.947 244.000,340.553 244.000 C 340.013 244.000,339.141 243.718,338.614 243.373 C 337.368 242.556,324.375 242.670,324.099 243.500 C 324.008 243.775,323.408 244.000,322.767 244.000 L 321.600 244.000 321.600 200.200 C 321.600 176.110,321.679 156.400,321.775 156.400 C 321.872 156.400,323.177 156.696,324.675 157.057 C 328.507 157.981,334.623 157.953,338.600 156.994 C 340.360 156.569,342.025 156.242,342.300 156.266 C 342.575 156.291,342.800 156.061,342.800 155.756 C 342.800 155.085,341.907 155.110,339.905 155.835 M342.893 242.400 C 342.893 243.170,342.975 243.485,343.076 243.100 C 343.176 242.715,343.176 242.085,343.076 241.700 C 342.975 241.315,342.893 241.630,342.893 242.400 M65.800 243.365 C 65.360 243.700,64.505 243.980,63.900 243.987 C 63.176 243.996,62.800 244.213,62.800 244.624 C 62.800 244.967,62.993 245.128,63.231 244.981 C 65.761 243.417,75.665 243.019,80.200 244.298 C 81.740 244.732,83.259 245.158,83.576 245.244 C 83.893 245.330,84.215 245.119,84.291 244.776 C 84.399 244.287,84.014 244.129,82.524 244.052 C 81.476 243.998,80.486 243.739,80.325 243.477 C 79.836 242.685,66.825 242.585,65.800 243.365 M100.444 287.701 C 98.299 292.265,94.989 296.206,90.423 299.634 L 89.045 300.668 89.972 301.634 C 90.774 302.470,90.841 302.487,90.471 301.766 C 90.093 301.031,90.279 300.752,92.039 299.410 C 96.011 296.381,100.301 290.875,101.632 287.100 C 102.147 285.638,103.235 285.086,103.800 286.000 C 103.936 286.220,104.705 286.400,105.508 286.400 L 106.969 286.400 105.400 285.600 C 102.592 284.168,101.983 284.426,100.444 287.701 M301.000 285.600 C 300.864 285.820,300.358 286.021,299.876 286.046 C 299.232 286.080,299.180 286.140,299.679 286.272 C 300.053 286.370,300.723 286.255,301.170 286.016 C 301.911 285.620,302.120 285.853,303.558 288.691 C 305.461 292.446,308.233 295.938,311.200 298.320 C 312.410 299.291,313.806 300.426,314.303 300.843 C 315.367 301.735,315.600 301.779,315.600 301.086 C 315.600 300.804,315.040 300.242,314.356 299.838 C 310.659 297.654,305.548 291.544,303.583 286.960 C 302.845 285.238,301.622 284.594,301.000 285.600 M199.000 320.028 C 192.145 320.697,186.799 323.168,181.409 328.157 C 180.314 329.171,179.189 330.000,178.909 330.000 C 178.629 330.000,178.400 330.351,178.400 330.780 C 178.400 331.209,178.152 331.704,177.850 331.880 C 175.973 332.971,172.176 341.501,171.524 346.089 C 171.297 347.690,170.864 349.198,170.562 349.440 C 169.928 349.946,170.231 350.400,171.203 350.400 C 171.930 350.400,172.585 352.130,173.020 355.200 C 174.099 362.803,179.845 370.855,187.000 374.787 C 188.320 375.512,189.580 376.241,189.800 376.407 C 190.020 376.572,190.830 376.839,191.600 377.000 C 192.370 377.161,193.182 377.438,193.404 377.616 C 195.298 379.131,209.102 379.130,210.997 377.615 C 211.219 377.437,212.030 377.161,212.800 377.000 C 213.570 376.839,214.380 376.570,214.600 376.401 C 214.820 376.233,216.020 375.555,217.266 374.895 C 224.702 370.960,229.860 363.562,231.618 354.308 C 231.915 352.747,232.345 351.787,232.968 351.296 C 233.629 350.776,233.802 350.358,233.592 349.788 C 233.432 349.355,233.167 347.830,233.003 346.400 C 232.719 343.915,232.330 342.560,230.878 339.000 C 230.098 337.085,227.263 332.306,226.691 331.941 C 226.468 331.798,226.387 331.293,226.511 330.818 C 226.701 330.092,226.643 330.033,226.146 330.444 C 225.658 330.850,225.266 330.625,223.878 329.146 C 219.754 324.750,215.320 322.230,208.600 320.462 C 206.402 319.884,202.352 319.700,199.000 320.028 " stroke="none" fill="#b32c83" fill-rule="evenodd"></path><path id="path2" d="M233.499 54.577 C 233.944 58.528,232.141 66.034,229.637 70.659 C 227.872 73.917,227.022 73.146,243.000 82.789 C 248.940 86.375,254.288 89.644,254.884 90.054 C 255.480 90.464,256.062 90.800,256.177 90.800 C 256.293 90.800,261.205 93.735,267.094 97.323 C 272.982 100.910,278.070 103.972,278.400 104.126 C 279.096 104.452,279.650 104.783,288.200 109.993 C 297.628 115.737,299.496 116.755,300.657 116.781 C 301.570 116.801,302.000 116.108,302.000 114.616 C 302.000 114.111,302.270 113.474,302.600 113.200 C 302.930 112.926,303.200 112.285,303.200 111.775 C 303.200 111.265,303.361 110.747,303.559 110.626 C 303.756 110.504,304.315 109.638,304.802 108.702 C 305.289 107.766,305.807 106.910,305.954 106.800 C 306.101 106.690,306.846 105.793,307.610 104.807 C 309.129 102.848,310.290 101.600,310.595 101.600 C 311.026 101.600,312.400 100.192,312.400 99.750 C 312.400 99.490,311.455 98.653,310.300 97.890 C 307.152 95.811,291.611 86.400,291.325 86.400 C 291.188 86.400,290.486 85.950,289.764 85.400 C 289.043 84.850,288.348 84.400,288.219 84.400 C 288.090 84.400,287.223 83.909,286.292 83.308 C 283.849 81.732,283.467 81.505,281.434 80.429 C 280.425 79.895,279.600 79.310,279.600 79.129 C 279.600 78.948,279.408 78.800,279.173 78.800 C 278.938 78.800,276.688 77.540,274.172 76.000 C 271.657 74.460,269.441 73.200,269.248 73.200 C 269.056 73.200,268.688 72.947,268.431 72.637 C 268.174 72.327,267.386 71.779,266.682 71.419 C 265.977 71.059,264.860 70.414,264.200 69.987 C 263.540 69.559,262.730 69.082,262.400 68.927 C 262.070 68.772,258.628 66.700,254.752 64.322 C 250.875 61.945,247.500 60.000,247.252 60.000 C 247.003 60.000,246.800 59.852,246.800 59.671 C 246.800 59.490,246.035 58.943,245.100 58.456 C 244.165 57.969,243.130 57.402,242.800 57.196 C 234.907 52.282,233.185 51.797,233.499 54.577 M169.147 53.772 C 168.348 54.048,166.771 54.842,165.641 55.537 C 164.512 56.231,163.507 56.800,163.408 56.800 C 163.309 56.800,161.595 57.790,159.600 59.000 C 157.605 60.210,155.887 61.200,155.782 61.200 C 155.678 61.200,154.848 61.740,153.937 62.400 C 153.025 63.060,152.037 63.600,151.740 63.600 C 151.443 63.600,151.200 63.759,151.200 63.953 C 151.200 64.148,150.885 64.416,150.500 64.549 C 150.115 64.682,149.260 65.151,148.600 65.591 C 147.940 66.031,147.130 66.528,146.800 66.695 C 146.299 66.950,144.616 67.968,140.000 70.811 C 133.637 74.730,126.707 78.800,126.398 78.800 C 126.179 78.800,126.000 78.959,126.000 79.153 C 126.000 79.348,125.685 79.612,125.300 79.742 C 124.915 79.871,124.247 80.207,123.815 80.488 C 123.135 80.932,122.060 81.599,119.134 83.392 C 118.768 83.616,117.643 84.237,116.634 84.771 C 115.625 85.305,114.800 85.890,114.800 86.071 C 114.800 86.252,114.623 86.400,114.407 86.400 C 114.191 86.400,112.838 87.120,111.400 88.000 C 109.962 88.880,108.698 89.600,108.589 89.600 C 108.481 89.600,107.648 90.140,106.737 90.800 C 105.825 91.460,104.837 92.000,104.540 92.000 C 104.243 92.000,104.000 92.139,104.000 92.309 C 104.000 92.479,103.325 92.965,102.500 93.389 C 101.675 93.814,100.226 94.665,99.280 95.280 C 98.334 95.896,97.451 96.400,97.318 96.400 C 97.184 96.400,96.486 96.850,95.764 97.400 C 95.043 97.950,94.306 98.401,94.127 98.402 C 93.656 98.405,91.200 100.769,91.200 101.220 C 91.200 101.429,91.409 101.600,91.665 101.600 C 93.375 101.600,100.248 110.682,101.806 115.000 C 102.622 117.262,103.581 118.509,103.881 117.700 C 103.983 117.425,104.316 117.200,104.621 117.200 C 105.403 117.200,107.054 116.271,116.800 110.348 C 121.530 107.473,126.390 104.570,127.600 103.898 C 128.810 103.226,130.340 102.280,131.000 101.797 C 131.660 101.314,132.470 100.803,132.800 100.662 C 133.130 100.521,133.670 100.227,134.000 100.009 C 135.142 99.257,152.296 88.925,152.847 88.659 C 153.151 88.512,153.940 88.041,154.600 87.613 C 155.260 87.186,156.377 86.541,157.082 86.181 C 157.786 85.821,158.574 85.273,158.831 84.963 C 159.088 84.653,159.455 84.400,159.647 84.400 C 160.173 84.400,174.465 75.648,175.500 74.692 C 176.642 73.637,176.639 73.600,175.181 71.231 C 172.844 67.432,171.516 63.043,171.300 58.400 C 171.058 53.205,171.021 53.125,169.147 53.772 M83.122 156.211 C 81.571 157.762,70.914 158.236,65.642 156.988 C 64.235 156.655,62.975 156.491,62.842 156.624 C 62.519 156.948,62.285 240.126,62.601 242.300 C 62.881 244.218,63.947 244.577,65.786 243.373 C 66.979 242.591,79.827 242.670,80.316 243.462 C 80.472 243.716,81.410 243.983,82.400 244.054 L 84.200 244.184 84.318 202.192 C 84.443 157.295,84.382 154.951,83.122 156.211 M339.000 156.895 C 335.343 157.915,328.502 157.996,324.675 157.064 C 323.177 156.699,321.872 156.400,321.775 156.400 C 321.679 156.400,321.600 176.110,321.600 200.200 L 321.600 244.000 322.767 244.000 C 323.408 244.000,324.008 243.775,324.099 243.500 C 324.358 242.721,337.357 242.551,338.529 243.311 C 339.008 243.622,340.141 243.974,341.048 244.093 L 342.695 244.310 342.948 241.896 C 343.274 238.776,343.187 162.214,342.853 158.831 C 342.558 155.841,342.637 155.881,339.000 156.895 M101.632 287.100 C 100.303 290.872,95.446 296.944,91.236 300.098 L 89.873 301.120 91.021 302.185 C 92.025 303.115,100.835 308.692,104.498 310.716 C 105.214 311.111,106.790 312.072,108.000 312.850 C 109.210 313.628,110.470 314.386,110.800 314.536 C 111.465 314.836,111.482 314.846,120.800 320.492 C 124.430 322.692,128.071 324.921,128.891 325.446 C 129.712 325.971,130.468 326.400,130.571 326.400 C 130.675 326.400,131.560 326.940,132.538 327.600 C 133.516 328.260,134.453 328.800,134.620 328.800 C 134.788 328.800,135.514 329.250,136.236 329.800 C 136.957 330.350,137.645 330.800,137.766 330.800 C 137.887 330.800,141.184 332.747,145.093 335.126 C 149.002 337.505,152.470 339.582,152.800 339.742 C 153.535 340.096,154.343 340.596,157.281 342.512 C 158.535 343.331,159.654 344.000,159.767 344.000 C 159.880 344.000,161.553 344.948,163.486 346.106 C 170.924 350.565,170.886 350.564,171.491 346.257 C 172.148 341.573,175.945 332.987,177.850 331.880 C 179.148 331.125,177.489 328.715,174.800 327.451 C 173.941 327.047,172.764 326.326,171.392 325.365 C 170.736 324.906,169.930 324.409,169.600 324.261 C 169.270 324.112,168.460 323.635,167.800 323.200 C 167.140 322.765,166.330 322.282,166.000 322.127 C 165.670 321.972,162.204 319.900,158.298 317.523 C 154.392 315.145,151.032 313.200,150.831 313.200 C 150.631 313.200,150.407 313.047,150.333 312.860 C 150.260 312.672,149.442 312.087,148.516 311.560 C 147.590 311.032,143.101 308.350,138.540 305.600 C 133.980 302.850,129.564 300.219,128.728 299.752 C 127.892 299.286,126.981 298.725,126.704 298.505 C 126.427 298.286,125.120 297.515,123.800 296.793 C 122.480 296.071,121.310 295.354,121.200 295.200 C 121.090 295.046,119.920 294.323,118.600 293.593 C 117.280 292.863,114.046 290.946,111.412 289.333 C 108.072 287.287,106.235 286.400,105.336 286.400 C 104.627 286.400,103.936 286.220,103.800 286.000 C 103.235 285.086,102.147 285.638,101.632 287.100 M301.200 286.000 C 300.870 286.213,300.240 286.391,299.800 286.395 C 299.360 286.398,297.504 287.301,295.676 288.401 C 293.848 289.500,292.183 290.400,291.976 290.400 C 291.769 290.400,291.600 290.580,291.600 290.800 C 291.600 291.020,291.416 291.200,291.192 291.200 C 290.968 291.200,290.023 291.689,289.092 292.287 C 288.161 292.885,286.770 293.714,286.000 294.130 C 285.230 294.546,284.027 295.316,283.327 295.843 C 282.626 296.369,281.952 296.800,281.829 296.800 C 281.705 296.800,278.408 298.745,274.502 301.123 C 270.596 303.500,267.130 305.572,266.800 305.727 C 266.470 305.882,265.722 306.322,265.139 306.704 C 264.555 307.087,262.935 308.079,261.539 308.909 C 260.142 309.738,258.730 310.588,258.400 310.797 C 255.940 312.355,252.323 314.400,252.026 314.400 C 251.828 314.400,251.607 314.544,251.533 314.720 C 251.412 315.011,245.369 318.800,245.026 318.800 C 244.946 318.800,243.917 319.450,242.740 320.245 C 241.563 321.039,240.240 321.852,239.800 322.050 C 239.360 322.249,238.460 322.759,237.800 323.184 C 237.140 323.609,235.835 324.358,234.900 324.849 C 233.965 325.340,233.200 325.890,233.200 326.071 C 233.200 326.252,233.001 326.400,232.758 326.400 C 232.515 326.400,231.516 326.940,230.538 327.600 C 229.560 328.260,228.688 328.800,228.601 328.800 C 227.556 328.800,225.891 331.739,226.750 332.067 C 228.357 332.679,232.494 342.066,232.978 346.200 C 233.378 349.611,233.613 350.400,234.229 350.400 C 234.771 350.400,242.915 345.839,246.215 343.688 C 246.647 343.407,247.315 343.071,247.700 342.942 C 248.085 342.812,248.400 342.580,248.400 342.424 C 248.400 342.269,249.165 341.743,250.100 341.256 C 251.035 340.769,252.070 340.200,252.400 339.992 C 256.839 337.199,267.700 330.800,268.002 330.800 C 268.221 330.800,268.400 330.652,268.400 330.471 C 268.400 330.290,269.165 329.740,270.100 329.249 C 271.035 328.758,272.340 328.008,273.000 327.583 C 273.660 327.157,274.470 326.686,274.800 326.535 C 275.130 326.385,276.448 325.573,277.728 324.731 C 279.009 323.889,280.133 323.200,280.226 323.200 C 280.320 323.200,283.142 321.524,286.498 319.475 C 289.854 317.427,292.870 315.620,293.200 315.460 C 293.974 315.084,294.876 314.531,297.708 312.696 C 298.977 311.873,300.097 311.200,300.196 311.200 C 300.566 311.200,313.045 303.452,314.117 302.557 L 315.233 301.624 314.317 300.855 C 313.812 300.432,312.410 299.291,311.200 298.320 C 308.236 295.940,305.462 292.446,303.563 288.700 C 302.698 286.995,301.948 285.603,301.896 285.606 C 301.843 285.609,301.530 285.787,301.200 286.000 " stroke="none" fill="#c01482" fill-rule="evenodd"></path><path id="path3" d="M306.200 150.497 C 305.100 150.976,301.680 152.886,298.600 154.740 C 295.520 156.595,292.199 158.562,291.221 159.113 C 290.242 159.664,286.277 162.040,282.410 164.394 C 278.542 166.748,275.203 168.747,274.989 168.837 C 274.775 168.927,273.282 169.810,271.670 170.800 C 270.059 171.790,268.169 172.933,267.470 173.341 C 266.772 173.748,264.694 175.008,262.854 176.141 C 261.014 177.273,258.764 178.632,257.854 179.160 C 256.944 179.688,255.210 180.766,254.000 181.557 C 252.790 182.348,251.530 183.133,251.200 183.302 C 250.870 183.471,250.060 183.969,249.400 184.409 C 248.740 184.849,247.885 185.318,247.500 185.451 C 247.115 185.584,246.800 185.840,246.800 186.020 C 246.800 186.199,246.408 186.470,245.929 186.622 C 245.450 186.774,244.595 187.329,244.029 187.854 C 243.463 188.379,242.682 188.910,242.294 189.033 C 241.906 189.157,241.692 189.425,241.818 189.629 C 241.944 189.833,241.677 190.000,241.224 190.000 C 240.704 190.000,240.402 190.258,240.406 190.700 C 240.411 191.210,240.500 191.262,240.735 190.891 C 240.943 190.564,241.232 191.135,241.544 192.486 C 241.873 193.911,241.896 194.635,241.615 194.728 C 241.387 194.804,241.200 195.057,241.200 195.289 C 241.200 195.522,240.948 195.912,240.641 196.156 C 240.265 196.455,240.190 196.862,240.413 197.400 C 240.595 197.840,240.756 197.975,240.772 197.700 C 240.827 196.718,241.600 197.220,241.600 198.237 C 241.600 198.898,241.340 199.343,240.883 199.462 C 240.126 199.660,240.089 202.400,240.844 202.400 C 241.526 202.400,241.199 204.075,240.480 204.263 C 239.695 204.468,239.237 207.200,239.987 207.200 C 240.587 207.200,240.505 210.691,239.900 210.935 C 239.625 211.046,239.833 211.151,240.361 211.168 L 241.322 211.200 240.396 212.004 C 239.553 212.734,239.519 212.901,240.015 213.828 C 240.449 214.639,240.462 215.010,240.077 215.625 C 239.697 216.234,239.700 216.571,240.093 217.200 C 240.495 217.844,240.490 218.165,240.066 218.843 C 239.643 219.520,239.636 219.920,240.029 220.870 C 240.349 221.643,240.622 221.888,240.815 221.576 C 240.980 221.309,241.333 221.235,241.612 221.408 C 241.968 221.627,241.805 221.880,241.053 222.274 C 240.033 222.808,239.879 224.519,240.791 225.200 C 241.304 225.584,241.562 226.776,241.183 227.011 C 240.972 227.141,240.800 227.022,240.800 226.747 C 240.800 226.472,240.536 226.596,240.213 227.024 C 239.523 227.935,239.408 229.600,240.035 229.600 C 240.321 229.600,240.378 230.148,240.200 231.200 C 239.938 232.750,240.394 233.380,241.032 232.349 C 241.220 232.044,241.438 232.125,241.702 232.596 C 241.973 233.081,241.945 233.387,241.611 233.593 C 241.346 233.757,241.165 234.321,241.209 234.846 C 241.384 236.942,241.172 238.267,240.800 237.400 C 240.545 236.807,240.449 237.123,240.428 238.620 C 240.401 240.567,241.078 242.790,241.700 242.797 C 241.865 242.799,242.000 243.070,242.000 243.400 C 242.000 243.730,241.820 244.000,241.600 244.000 C 241.380 244.000,241.200 243.730,241.200 243.400 C 241.200 243.067,240.844 242.800,240.400 242.800 C 239.466 242.800,239.313 243.915,240.200 244.255 C 240.530 244.382,240.800 244.717,240.800 245.000 C 240.800 245.283,240.530 245.618,240.200 245.745 C 239.294 246.092,239.471 246.927,240.400 246.684 C 240.840 246.569,241.200 246.626,241.200 246.810 C 241.200 246.995,241.560 247.260,242.000 247.400 C 242.934 247.696,243.075 248.400,242.200 248.400 C 241.867 248.400,241.600 248.756,241.600 249.200 C 241.600 249.640,241.412 250.000,241.182 250.000 C 240.921 250.000,240.862 249.475,241.026 248.600 C 241.185 247.755,241.130 247.200,240.887 247.200 C 240.219 247.200,240.063 248.428,240.369 251.287 C 240.386 251.446,240.715 251.457,241.100 251.313 C 241.706 251.085,241.728 251.138,241.266 251.708 C 240.972 252.069,240.847 252.553,240.989 252.782 C 241.137 253.021,240.894 253.200,240.424 253.200 C 239.867 253.200,239.600 253.459,239.600 254.000 C 239.600 254.440,239.780 254.800,240.000 254.800 C 240.220 254.800,240.400 255.340,240.400 256.000 C 240.400 256.660,240.580 257.200,240.800 257.200 C 241.020 257.200,241.200 257.461,241.200 257.780 C 241.200 258.099,241.515 258.544,241.900 258.768 C 242.498 259.117,242.440 259.177,241.500 259.188 C 240.309 259.201,240.248 259.350,240.382 261.900 C 240.466 263.486,240.402 263.600,239.436 263.600 C 238.187 263.600,238.029 264.610,239.230 264.924 C 239.686 265.043,240.153 265.497,240.267 265.933 C 240.576 267.114,245.688 267.328,274.637 267.367 C 301.390 267.403,300.443 267.477,300.989 265.301 C 302.340 259.920,308.287 252.222,314.200 248.200 C 316.588 246.576,318.325 244.566,318.771 242.909 C 319.606 239.806,319.169 159.741,318.307 158.000 C 317.337 156.042,316.632 155.321,313.118 152.690 C 311.423 151.421,309.928 150.206,309.795 149.991 C 309.426 149.395,308.399 149.539,306.200 150.497 M242.600 213.200 C 242.736 213.420,242.631 213.600,242.368 213.600 C 242.104 213.600,241.649 213.915,241.357 214.300 C 240.910 214.889,240.823 214.902,240.813 214.380 C 240.789 213.242,242.094 212.381,242.600 213.200 M242.982 220.829 C 242.862 221.024,242.418 220.969,241.997 220.706 C 241.281 220.258,241.274 220.181,241.899 219.491 C 242.598 218.718,243.556 219.900,242.982 220.829 M238.400 233.400 C 238.400 233.730,238.670 234.000,239.000 234.000 C 239.330 234.000,239.600 233.730,239.600 233.400 C 239.600 233.070,239.330 232.800,239.000 232.800 C 238.670 232.800,238.400 233.070,238.400 233.400 " stroke="none" fill="#567aca" fill-rule="evenodd"></path><path id="path4" d="M194.000 19.200 C 194.000 19.420,193.122 19.600,192.049 19.600 C 190.803 19.600,189.918 19.817,189.600 20.200 C 189.326 20.530,188.786 20.800,188.400 20.800 C 188.014 20.800,187.474 21.070,187.200 21.400 C 186.926 21.730,186.383 22.000,185.994 22.000 C 185.604 22.000,185.182 22.270,185.055 22.600 C 184.929 22.930,184.470 23.200,184.036 23.200 C 183.602 23.200,183.136 23.380,183.000 23.600 C 182.864 23.820,182.437 24.000,182.051 24.000 C 181.665 24.000,180.832 24.540,180.200 25.200 C 179.568 25.860,178.803 26.400,178.501 26.400 C 177.789 26.400,172.000 32.202,172.000 32.916 C 172.000 33.215,171.550 33.883,171.000 34.400 C 170.450 34.917,170.000 35.634,170.000 35.995 C 170.000 36.355,169.460 37.168,168.800 37.800 C 168.049 38.520,167.600 39.352,167.600 40.026 C 167.600 40.618,167.330 41.326,167.000 41.600 C 166.670 41.874,166.400 42.425,166.400 42.825 C 166.400 43.225,166.220 43.664,166.000 43.800 C 165.780 43.936,165.600 44.759,165.600 45.629 C 165.600 47.355,163.267 50.398,161.943 50.399 C 161.581 50.400,161.182 50.670,161.055 51.000 C 160.929 51.330,160.491 51.600,160.082 51.600 C 159.674 51.600,158.917 52.050,158.400 52.600 C 157.883 53.150,157.154 53.600,156.779 53.600 C 156.405 53.600,155.874 53.870,155.600 54.200 C 155.326 54.530,154.809 54.803,154.451 54.807 C 154.093 54.811,153.376 55.261,152.858 55.807 C 152.340 56.353,151.687 56.800,151.407 56.800 C 151.127 56.800,150.674 57.070,150.400 57.400 C 150.126 57.730,149.598 58.000,149.226 58.000 C 148.854 58.000,148.032 58.540,147.400 59.200 C 146.768 59.860,145.935 60.400,145.549 60.400 C 145.163 60.400,144.736 60.580,144.600 60.800 C 144.464 61.020,144.048 61.205,143.676 61.211 C 143.304 61.217,142.475 61.757,141.833 62.411 C 141.192 63.065,140.356 63.600,139.976 63.600 C 139.596 63.600,139.182 63.870,139.055 64.200 C 138.929 64.530,138.491 64.800,138.082 64.800 C 137.674 64.800,136.917 65.250,136.400 65.800 C 135.883 66.350,135.154 66.800,134.779 66.800 C 134.405 66.800,133.874 67.070,133.600 67.400 C 133.326 67.730,132.845 68.000,132.532 68.000 C 132.218 68.000,131.545 68.450,131.035 69.000 C 130.525 69.550,129.836 70.000,129.503 70.000 C 129.170 70.000,128.674 70.270,128.400 70.600 C 128.126 70.930,127.598 71.200,127.226 71.200 C 126.854 71.200,126.032 71.740,125.400 72.400 C 124.768 73.060,123.935 73.600,123.549 73.600 C 123.163 73.600,122.736 73.780,122.600 74.000 C 122.464 74.220,122.030 74.400,121.636 74.400 C 121.242 74.400,120.506 74.940,120.000 75.600 C 119.494 76.260,118.769 76.800,118.389 76.800 C 118.009 76.800,117.474 77.070,117.200 77.400 C 116.926 77.730,116.395 78.000,116.021 78.000 C 115.646 78.000,114.917 78.450,114.400 79.000 C 113.883 79.550,113.154 80.000,112.779 80.000 C 112.405 80.000,111.874 80.270,111.600 80.600 C 111.326 80.930,110.845 81.200,110.532 81.200 C 110.218 81.200,109.545 81.650,109.035 82.200 C 108.525 82.750,107.836 83.200,107.503 83.200 C 107.170 83.200,106.674 83.470,106.400 83.800 C 106.126 84.130,105.595 84.400,105.221 84.400 C 104.846 84.400,104.117 84.850,103.600 85.400 C 103.083 85.950,102.326 86.400,101.918 86.400 C 101.509 86.400,101.071 86.670,100.945 87.000 C 100.818 87.330,100.329 87.608,99.857 87.617 C 99.386 87.626,98.558 88.166,98.019 88.817 C 97.479 89.468,96.725 90.000,96.342 90.000 C 95.960 90.000,95.536 90.180,95.400 90.400 C 95.264 90.620,94.837 90.800,94.451 90.800 C 94.065 90.800,93.232 91.340,92.600 92.000 C 91.288 93.369,88.515 93.702,87.600 92.600 C 87.326 92.270,86.783 92.000,86.394 92.000 C 86.004 92.000,85.582 91.730,85.455 91.400 C 85.293 90.978,84.635 90.800,83.236 90.800 C 82.142 90.800,81.136 90.620,81.000 90.400 C 80.666 89.860,64.934 89.860,64.600 90.400 C 64.464 90.620,63.575 90.800,62.625 90.800 C 61.578 90.800,60.702 91.036,60.400 91.400 C 60.126 91.730,59.586 92.000,59.200 92.000 C 58.814 92.000,58.274 92.270,58.000 92.600 C 57.726 92.930,57.175 93.200,56.775 93.200 C 56.375 93.200,55.943 93.369,55.816 93.575 C 55.528 94.040,53.242 95.200,52.613 95.200 C 52.358 95.200,51.632 95.740,51.000 96.400 C 50.368 97.060,49.564 97.600,49.215 97.600 C 48.401 97.600,42.800 103.218,42.800 104.035 C 42.800 104.373,42.260 105.168,41.600 105.800 C 40.940 106.432,40.400 107.245,40.400 107.605 C 40.400 107.966,39.950 108.683,39.400 109.200 C 38.812 109.753,38.400 110.585,38.400 111.221 C 38.400 111.815,38.130 112.526,37.800 112.800 C 37.470 113.074,37.200 113.614,37.200 114.000 C 37.200 114.386,36.930 114.926,36.600 115.200 C 36.236 115.502,36.000 116.378,36.000 117.425 C 36.000 118.375,35.820 119.264,35.600 119.400 C 35.057 119.735,35.057 134.800,35.600 134.800 C 35.820 134.800,36.000 135.706,36.000 136.813 C 36.000 138.232,36.177 138.893,36.600 139.055 C 36.930 139.182,37.200 139.697,37.200 140.200 C 37.200 140.703,37.470 141.218,37.800 141.345 C 38.168 141.486,38.400 142.093,38.400 142.918 C 38.400 143.833,38.718 144.560,39.400 145.200 C 39.950 145.717,40.405 146.423,40.411 146.770 C 40.417 147.116,40.957 147.925,41.611 148.567 C 42.265 149.208,42.800 149.957,42.800 150.229 C 42.800 150.866,48.699 156.800,49.331 156.800 C 49.594 156.800,50.293 157.250,50.887 157.800 C 51.480 158.350,52.212 158.800,52.513 158.800 C 52.814 158.800,53.452 159.217,53.930 159.726 L 54.800 160.652 54.800 201.237 C 54.800 245.698,54.927 243.200,52.670 243.200 C 52.384 243.200,51.632 243.740,51.000 244.400 C 50.368 245.060,49.564 245.600,49.215 245.600 C 48.401 245.600,42.800 251.218,42.800 252.035 C 42.800 252.373,42.260 253.168,41.600 253.800 C 40.940 254.432,40.400 255.210,40.400 255.529 C 40.400 255.848,39.950 256.525,39.400 257.035 C 38.772 257.617,38.400 258.398,38.400 259.132 C 38.400 259.775,38.130 260.526,37.800 260.800 C 37.470 261.074,37.200 261.614,37.200 262.000 C 37.200 262.386,36.930 262.926,36.600 263.200 C 36.236 263.502,36.000 264.378,36.000 265.425 C 36.000 266.375,35.820 267.264,35.600 267.400 C 35.057 267.735,35.057 282.800,35.600 282.800 C 35.820 282.800,36.000 283.706,36.000 284.813 C 36.000 286.232,36.177 286.893,36.600 287.055 C 36.930 287.182,37.200 287.604,37.200 287.994 C 37.200 288.383,37.470 288.926,37.800 289.200 C 38.130 289.474,38.400 290.275,38.400 290.979 C 38.400 291.829,38.737 292.577,39.400 293.200 C 39.950 293.717,40.400 294.441,40.400 294.810 C 40.400 295.179,40.940 295.894,41.600 296.400 C 42.260 296.906,42.800 297.612,42.800 297.969 C 42.800 298.752,48.788 304.800,49.563 304.800 C 49.863 304.800,50.525 305.250,51.035 305.800 C 51.545 306.350,52.218 306.800,52.532 306.800 C 52.845 306.800,53.326 307.070,53.600 307.400 C 53.874 307.730,54.414 308.000,54.800 308.000 C 55.186 308.000,55.726 308.270,56.000 308.600 C 56.274 308.930,56.825 309.200,57.225 309.200 C 57.625 309.200,58.064 309.380,58.200 309.600 C 58.336 309.820,58.802 310.000,59.236 310.000 C 59.670 310.000,60.129 310.270,60.255 310.600 C 60.417 311.021,61.073 311.200,62.455 311.200 C 63.837 311.200,64.494 311.379,64.655 311.800 C 65.008 312.720,80.712 312.694,81.066 311.773 C 81.486 310.678,85.800 311.214,87.200 312.536 C 87.821 313.121,88.604 313.600,88.940 313.600 C 89.277 313.600,89.664 313.780,89.800 314.000 C 89.936 314.220,90.363 314.400,90.749 314.400 C 91.135 314.400,91.968 314.940,92.600 315.600 C 93.232 316.260,94.054 316.800,94.426 316.800 C 94.798 316.800,95.326 317.070,95.600 317.400 C 95.874 317.730,96.320 318.000,96.591 318.000 C 96.862 318.000,97.569 318.450,98.162 319.000 C 98.756 319.550,99.480 320.000,99.772 320.000 C 100.063 320.000,100.526 320.270,100.800 320.600 C 101.074 320.930,101.605 321.200,101.979 321.200 C 102.354 321.200,103.083 321.650,103.600 322.200 C 104.117 322.750,104.874 323.200,105.282 323.200 C 105.691 323.200,106.129 323.470,106.255 323.800 C 106.382 324.130,106.783 324.400,107.147 324.400 C 107.511 324.400,108.293 324.850,108.887 325.400 C 109.480 325.950,110.221 326.400,110.534 326.400 C 110.846 326.400,111.326 326.670,111.600 327.000 C 111.874 327.330,112.402 327.600,112.774 327.600 C 113.146 327.600,113.968 328.140,114.600 328.800 C 115.232 329.460,116.076 330.000,116.475 330.000 C 116.874 330.000,117.200 330.180,117.200 330.400 C 117.200 330.620,117.530 330.800,117.933 330.800 C 118.337 330.800,119.192 331.335,119.833 331.989 C 120.475 332.643,121.293 333.183,121.651 333.189 C 122.009 333.195,122.526 333.470,122.800 333.800 C 123.074 334.130,123.605 334.400,123.979 334.400 C 124.354 334.400,125.083 334.850,125.600 335.400 C 126.117 335.950,126.874 336.400,127.282 336.400 C 127.691 336.400,128.129 336.670,128.255 337.000 C 128.382 337.330,128.783 337.600,129.147 337.600 C 129.511 337.600,130.293 338.050,130.887 338.600 C 131.480 339.150,132.221 339.600,132.534 339.600 C 132.846 339.600,133.326 339.870,133.600 340.200 C 133.874 340.530,134.402 340.800,134.774 340.800 C 135.146 340.800,135.968 341.340,136.600 342.000 C 137.232 342.660,138.076 343.200,138.475 343.200 C 138.874 343.200,139.200 343.380,139.200 343.600 C 139.200 343.820,139.530 344.000,139.933 344.000 C 140.337 344.000,141.192 344.535,141.833 345.189 C 142.475 345.843,143.304 346.383,143.676 346.389 C 144.048 346.395,144.464 346.580,144.600 346.800 C 144.736 347.020,145.163 347.200,145.549 347.200 C 145.935 347.200,146.768 347.740,147.400 348.400 C 148.032 349.060,148.857 349.600,149.232 349.600 C 149.607 349.600,150.018 349.870,150.145 350.200 C 150.271 350.530,150.709 350.800,151.118 350.800 C 151.526 350.800,152.283 351.250,152.800 351.800 C 153.317 352.350,154.046 352.800,154.421 352.800 C 154.795 352.800,155.326 353.070,155.600 353.400 C 155.874 353.730,156.405 354.000,156.779 354.000 C 157.154 354.000,157.883 354.450,158.400 355.000 C 158.917 355.550,159.556 356.000,159.821 356.000 C 160.085 356.000,160.526 356.270,160.800 356.600 C 161.074 356.930,161.591 357.200,161.949 357.201 C 163.268 357.202,165.600 360.249,165.600 361.971 C 165.600 362.841,165.780 363.664,166.000 363.800 C 166.220 363.936,166.400 364.375,166.400 364.775 C 166.400 365.175,166.670 365.726,167.000 366.000 C 167.330 366.274,167.600 366.982,167.600 367.574 C 167.600 368.248,168.049 369.080,168.800 369.800 C 169.460 370.432,170.000 371.245,170.000 371.605 C 170.000 371.966,170.450 372.683,171.000 373.200 C 171.550 373.717,172.000 374.428,172.000 374.781 C 172.000 375.580,177.658 381.200,178.462 381.200 C 178.786 381.200,179.568 381.740,180.200 382.400 C 180.832 383.060,181.654 383.600,182.026 383.600 C 182.398 383.600,182.926 383.870,183.200 384.200 C 183.474 384.530,184.036 384.800,184.449 384.800 C 184.862 384.800,185.200 384.980,185.200 385.200 C 185.200 385.420,185.538 385.600,185.951 385.600 C 186.364 385.600,186.926 385.870,187.200 386.200 C 187.474 386.530,188.014 386.800,188.400 386.800 C 188.786 386.800,189.326 387.070,189.600 387.400 C 189.900 387.761,190.775 388.000,191.800 388.000 C 192.825 388.000,193.700 388.239,194.000 388.600 C 194.738 389.489,209.662 389.489,210.400 388.600 C 210.700 388.239,211.575 388.000,212.600 388.000 C 213.625 388.000,214.500 387.761,214.800 387.400 C 215.074 387.070,215.614 386.800,216.000 386.800 C 216.386 386.800,216.926 386.530,217.200 386.200 C 217.474 385.870,218.036 385.600,218.449 385.600 C 218.862 385.600,219.200 385.420,219.200 385.200 C 219.200 384.980,219.538 384.800,219.951 384.800 C 220.364 384.800,220.926 384.530,221.200 384.200 C 221.474 383.870,222.002 383.600,222.374 383.600 C 222.746 383.600,223.568 383.060,224.200 382.400 C 224.832 381.740,225.598 381.200,225.901 381.200 C 226.649 381.200,232.400 375.479,232.400 374.734 C 232.400 374.407,232.850 373.717,233.400 373.200 C 233.950 372.683,234.400 371.966,234.400 371.605 C 234.400 371.245,234.940 370.432,235.600 369.800 C 236.351 369.080,236.800 368.248,236.800 367.574 C 236.800 366.982,237.070 366.274,237.400 366.000 C 237.730 365.726,238.000 365.175,238.000 364.775 C 238.000 364.375,238.180 363.936,238.400 363.800 C 238.620 363.664,238.802 363.068,238.805 362.476 C 238.815 360.677,239.257 359.600,239.987 359.600 C 240.368 359.600,241.094 359.060,241.600 358.400 C 242.106 357.740,242.831 357.200,243.211 357.200 C 243.591 357.200,244.126 356.930,244.400 356.600 C 244.674 356.270,245.205 356.000,245.579 356.000 C 245.954 356.000,246.683 355.550,247.200 355.000 C 247.717 354.450,248.446 354.000,248.821 354.000 C 249.195 354.000,249.726 353.730,250.000 353.400 C 250.274 353.070,250.755 352.800,251.068 352.800 C 251.382 352.800,252.055 352.350,252.565 351.800 C 253.075 351.250,253.764 350.800,254.097 350.800 C 254.430 350.800,254.926 350.530,255.200 350.200 C 255.474 349.870,256.002 349.600,256.374 349.600 C 256.746 349.600,257.568 349.060,258.200 348.400 C 258.832 347.740,259.665 347.200,260.051 347.200 C 260.437 347.200,260.864 347.020,261.000 346.800 C 261.136 346.580,261.552 346.392,261.924 346.383 C 262.296 346.374,263.042 345.834,263.581 345.183 C 264.121 344.532,264.875 344.000,265.258 344.000 C 265.640 344.000,266.064 343.820,266.200 343.600 C 266.336 343.380,266.763 343.200,267.149 343.200 C 267.535 343.200,268.368 342.660,269.000 342.000 C 269.632 341.340,270.454 340.800,270.826 340.800 C 271.198 340.800,271.726 340.530,272.000 340.200 C 272.274 339.870,272.755 339.600,273.068 339.600 C 273.382 339.600,274.055 339.150,274.565 338.600 C 275.075 338.050,275.764 337.600,276.097 337.600 C 276.430 337.600,276.926 337.330,277.200 337.000 C 277.474 336.670,278.005 336.400,278.379 336.400 C 278.754 336.400,279.483 335.950,280.000 335.400 C 280.517 334.850,281.246 334.400,281.621 334.400 C 281.995 334.400,282.526 334.130,282.800 333.800 C 283.074 333.470,283.591 333.192,283.949 333.183 C 284.307 333.174,285.042 332.634,285.581 331.983 C 286.121 331.332,286.875 330.800,287.258 330.800 C 287.640 330.800,288.064 330.620,288.200 330.400 C 288.336 330.180,288.763 330.000,289.149 330.000 C 289.535 330.000,290.368 329.460,291.000 328.800 C 291.632 328.140,292.454 327.600,292.826 327.600 C 293.198 327.600,293.726 327.330,294.000 327.000 C 294.274 326.670,294.715 326.400,294.979 326.400 C 295.244 326.400,295.883 325.950,296.400 325.400 C 296.917 324.850,297.646 324.400,298.021 324.400 C 298.395 324.400,298.926 324.130,299.200 323.800 C 299.474 323.470,300.005 323.200,300.379 323.200 C 300.754 323.200,301.483 322.750,302.000 322.200 C 302.517 321.650,303.274 321.200,303.682 321.200 C 304.091 321.200,304.529 320.930,304.655 320.600 C 304.782 320.270,305.195 320.000,305.573 320.000 C 305.951 320.000,306.683 319.550,307.200 319.000 C 307.717 318.450,308.446 318.000,308.821 318.000 C 309.195 318.000,309.726 317.730,310.000 317.400 C 310.274 317.070,310.802 316.800,311.174 316.800 C 311.546 316.800,312.368 316.260,313.000 315.600 C 313.632 314.940,314.476 314.400,314.875 314.400 C 315.274 314.400,315.600 314.220,315.600 314.000 C 315.600 313.780,315.905 313.600,316.278 313.600 C 316.651 313.600,317.416 313.171,317.978 312.647 C 319.300 311.414,322.447 310.893,323.187 311.785 C 323.937 312.688,338.852 312.702,339.600 311.800 C 339.915 311.420,340.798 311.200,342.006 311.200 C 343.333 311.200,343.985 311.017,344.145 310.600 C 344.271 310.270,344.730 310.000,345.164 310.000 C 345.598 310.000,346.064 309.820,346.200 309.600 C 346.336 309.380,346.775 309.200,347.175 309.200 C 347.575 309.200,348.126 308.930,348.400 308.600 C 348.674 308.270,349.214 308.000,349.600 308.000 C 349.986 308.000,350.526 307.730,350.800 307.400 C 351.074 307.070,351.555 306.800,351.868 306.800 C 352.182 306.800,352.855 306.350,353.365 305.800 C 353.875 305.250,354.545 304.800,354.855 304.800 C 355.628 304.800,361.600 298.735,361.600 297.951 C 361.600 297.604,362.140 296.906,362.800 296.400 C 363.460 295.894,364.000 295.179,364.000 294.810 C 364.000 294.441,364.450 293.717,365.000 293.200 C 365.663 292.577,366.000 291.829,366.000 290.979 C 366.000 290.275,366.270 289.474,366.600 289.200 C 366.930 288.926,367.200 288.383,367.200 287.994 C 367.200 287.604,367.470 287.182,367.800 287.055 C 368.222 286.893,368.400 286.235,368.400 284.836 C 368.400 283.742,368.580 282.736,368.800 282.600 C 369.339 282.267,369.339 267.733,368.800 267.400 C 368.580 267.264,368.400 266.375,368.400 265.425 C 368.400 264.378,368.164 263.502,367.800 263.200 C 367.470 262.926,367.200 262.386,367.200 262.000 C 367.200 261.614,366.930 261.074,366.600 260.800 C 366.270 260.526,366.000 259.775,366.000 259.132 C 366.000 258.398,365.628 257.617,365.000 257.035 C 364.450 256.525,364.000 255.848,364.000 255.529 C 364.000 255.210,363.460 254.432,362.800 253.800 C 362.140 253.168,361.600 252.373,361.600 252.035 C 361.600 251.215,355.997 245.600,355.180 245.600 C 354.828 245.600,354.103 245.131,353.570 244.558 C 353.036 243.984,352.194 243.358,351.698 243.167 L 350.796 242.818 350.898 200.915 C 350.998 159.761,351.014 159.008,351.778 158.861 C 352.206 158.779,353.286 158.013,354.178 157.160 C 355.070 156.307,356.017 155.607,356.281 155.604 C 356.895 155.599,360.400 152.063,360.400 151.450 C 360.400 151.197,361.204 150.182,362.187 149.195 C 363.170 148.208,363.980 147.096,363.987 146.724 C 363.994 146.352,364.180 145.936,364.400 145.800 C 364.620 145.664,364.800 145.225,364.800 144.825 C 364.800 144.425,365.070 143.874,365.400 143.600 C 365.730 143.326,366.000 142.758,366.000 142.338 C 366.000 141.919,366.270 141.471,366.600 141.345 C 366.930 141.218,367.200 140.703,367.200 140.200 C 367.200 139.697,367.470 139.182,367.800 139.055 C 368.223 138.893,368.400 138.232,368.400 136.813 C 368.400 135.706,368.580 134.800,368.800 134.800 C 369.054 134.800,369.200 131.800,369.200 126.600 C 369.200 121.400,369.054 118.400,368.800 118.400 C 368.580 118.400,368.400 117.522,368.400 116.449 C 368.400 115.203,368.183 114.318,367.800 114.000 C 367.470 113.726,367.200 113.158,367.200 112.738 C 367.200 112.319,366.930 111.871,366.600 111.745 C 366.270 111.618,366.000 111.196,366.000 110.806 C 366.000 110.417,365.730 109.874,365.400 109.600 C 365.070 109.326,364.800 108.775,364.800 108.375 C 364.800 107.975,364.620 107.536,364.400 107.400 C 364.180 107.264,363.994 106.848,363.987 106.476 C 363.980 106.104,363.170 104.992,362.187 104.005 C 361.204 103.018,360.400 101.967,360.400 101.670 C 360.400 100.995,356.951 97.600,356.266 97.600 C 355.989 97.600,355.059 96.880,354.200 96.000 C 353.341 95.120,352.336 94.400,351.968 94.400 C 351.599 94.400,351.074 94.130,350.800 93.800 C 350.526 93.470,349.986 93.200,349.600 93.200 C 349.214 93.200,348.674 92.930,348.400 92.600 C 348.126 92.270,347.583 92.000,347.194 92.000 C 346.804 92.000,346.382 91.730,346.255 91.400 C 346.129 91.070,345.670 90.800,345.236 90.800 C 344.802 90.800,344.336 90.620,344.200 90.400 C 344.064 90.180,343.058 90.000,341.964 90.000 C 340.565 90.000,339.907 89.822,339.745 89.400 C 339.402 88.506,323.942 88.506,323.200 89.400 C 322.913 89.745,322.041 90.000,321.146 90.000 C 320.290 90.000,319.277 90.167,318.895 90.371 C 318.513 90.575,317.930 90.844,317.600 90.968 C 317.270 91.093,316.730 91.348,316.400 91.535 C 313.883 92.963,313.324 92.931,312.280 91.300 C 312.104 91.025,311.620 90.800,311.204 90.800 C 310.788 90.800,310.336 90.620,310.200 90.400 C 310.064 90.180,309.637 90.000,309.251 90.000 C 308.865 90.000,308.032 89.460,307.400 88.800 C 306.768 88.140,305.946 87.600,305.574 87.600 C 305.202 87.600,304.674 87.330,304.400 87.000 C 304.126 86.670,303.673 86.400,303.393 86.400 C 303.113 86.400,302.460 85.953,301.942 85.407 C 301.424 84.861,300.707 84.411,300.349 84.407 C 299.991 84.403,299.474 84.130,299.200 83.800 C 298.926 83.470,298.395 83.200,298.021 83.200 C 297.646 83.200,296.917 82.750,296.400 82.200 C 295.883 81.650,295.126 81.200,294.718 81.200 C 294.309 81.200,293.871 80.930,293.745 80.600 C 293.618 80.270,293.217 80.000,292.853 80.000 C 292.489 80.000,291.707 79.550,291.113 79.000 C 290.520 78.450,289.779 78.000,289.466 78.000 C 289.154 78.000,288.674 77.730,288.400 77.400 C 288.126 77.070,287.598 76.800,287.226 76.800 C 286.854 76.800,286.032 76.260,285.400 75.600 C 284.768 74.940,283.924 74.400,283.525 74.400 C 283.126 74.400,282.800 74.220,282.800 74.000 C 282.800 73.780,282.470 73.600,282.067 73.600 C 281.663 73.600,280.808 73.065,280.167 72.411 C 279.525 71.757,278.707 71.217,278.349 71.211 C 277.991 71.205,277.474 70.930,277.200 70.600 C 276.926 70.270,276.395 70.000,276.021 70.000 C 275.646 70.000,274.917 69.550,274.400 69.000 C 273.883 68.450,273.126 68.000,272.718 68.000 C 272.309 68.000,271.871 67.730,271.745 67.400 C 271.618 67.070,271.205 66.800,270.827 66.800 C 270.449 66.800,269.717 66.350,269.200 65.800 C 268.683 65.250,267.954 64.800,267.579 64.800 C 267.205 64.800,266.674 64.530,266.400 64.200 C 266.126 63.870,265.598 63.600,265.226 63.600 C 264.854 63.600,264.032 63.060,263.400 62.400 C 262.768 61.740,261.924 61.200,261.525 61.200 C 261.126 61.200,260.800 61.020,260.800 60.800 C 260.800 60.580,260.474 60.400,260.075 60.400 C 259.676 60.400,258.832 59.860,258.200 59.200 C 257.568 58.540,256.746 58.000,256.374 58.000 C 256.002 58.000,255.474 57.730,255.200 57.400 C 254.926 57.070,254.377 56.800,253.980 56.800 C 253.583 56.800,252.904 56.350,252.471 55.800 C 252.039 55.250,251.418 54.800,251.091 54.800 C 250.765 54.800,250.274 54.530,250.000 54.200 C 249.726 53.870,249.195 53.600,248.821 53.600 C 248.446 53.600,247.717 53.150,247.200 52.600 C 246.683 52.050,245.954 51.600,245.579 51.600 C 245.205 51.600,244.674 51.330,244.400 51.000 C 244.126 50.670,243.598 50.400,243.226 50.400 C 242.854 50.400,242.032 49.860,241.400 49.200 C 240.768 48.540,240.035 48.000,239.772 48.000 C 239.235 48.000,238.814 46.745,238.805 45.124 C 238.802 44.532,238.620 43.936,238.400 43.800 C 238.180 43.664,238.000 43.225,238.000 42.825 C 238.000 42.425,237.730 41.874,237.400 41.600 C 237.070 41.326,236.800 40.618,236.800 40.026 C 236.800 39.352,236.351 38.520,235.600 37.800 C 234.940 37.168,234.400 36.355,234.400 35.995 C 234.400 35.634,233.950 34.917,233.400 34.400 C 232.850 33.883,232.400 33.215,232.400 32.916 C 232.400 32.202,226.611 26.400,225.899 26.400 C 225.597 26.400,224.832 25.860,224.200 25.200 C 223.568 24.540,222.735 24.000,222.349 24.000 C 221.963 24.000,221.536 23.820,221.400 23.600 C 221.264 23.380,220.798 23.200,220.364 23.200 C 219.930 23.200,219.471 22.930,219.345 22.600 C 219.218 22.270,218.796 22.000,218.406 22.000 C 218.017 22.000,217.474 21.730,217.200 21.400 C 216.926 21.070,216.386 20.800,216.000 20.800 C 215.614 20.800,215.074 20.530,214.800 20.200 C 214.482 19.817,213.597 19.600,212.351 19.600 C 211.278 19.600,210.400 19.420,210.400 19.200 C 210.400 18.946,207.400 18.800,202.200 18.800 C 197.000 18.800,194.000 18.946,194.000 19.200 M210.633 25.165 C 222.327 28.985,229.815 37.228,231.638 48.289 C 232.170 51.519,232.501 51.933,235.400 53.001 C 236.500 53.406,238.528 54.426,239.907 55.269 C 241.286 56.111,242.488 56.800,242.579 56.800 C 242.669 56.800,243.791 57.493,245.072 58.339 C 248.108 60.347,250.824 61.950,251.700 62.252 C 252.085 62.385,252.400 62.652,252.400 62.847 C 252.400 63.041,252.657 63.200,252.971 63.200 C 253.286 63.200,253.781 63.435,254.071 63.722 C 254.362 64.010,254.870 64.369,255.200 64.520 C 255.530 64.671,256.070 64.972,256.400 65.188 C 257.646 66.003,269.426 73.067,270.000 73.343 C 270.880 73.766,272.059 74.489,273.408 75.435 C 274.064 75.894,274.870 76.391,275.200 76.539 C 275.530 76.688,276.340 77.157,277.000 77.583 C 277.660 78.008,278.965 78.758,279.900 79.249 C 280.835 79.740,281.600 80.290,281.600 80.471 C 281.600 80.652,281.778 80.800,281.996 80.800 C 282.214 80.800,285.597 82.746,289.513 85.125 C 293.429 87.504,296.896 89.576,297.216 89.730 C 297.537 89.883,298.340 90.369,299.000 90.809 C 299.660 91.249,300.515 91.718,300.900 91.851 C 301.285 91.984,301.600 92.252,301.600 92.447 C 301.600 92.641,301.857 92.800,302.171 92.800 C 302.486 92.800,302.984 93.025,303.279 93.300 C 303.573 93.575,304.441 94.142,305.207 94.559 C 307.122 95.604,312.079 98.855,312.748 99.505 C 313.204 99.950,313.420 99.925,314.050 99.354 C 314.855 98.627,316.057 97.882,317.461 97.242 C 317.935 97.026,318.440 96.658,318.585 96.425 C 318.729 96.191,319.272 96.000,319.790 96.000 C 320.309 96.000,320.797 95.808,320.875 95.574 C 320.953 95.340,321.778 95.046,322.709 94.922 C 323.639 94.797,324.400 94.538,324.400 94.347 C 324.400 93.852,338.293 93.903,338.600 94.400 C 338.736 94.620,339.242 94.801,339.724 94.802 C 340.206 94.804,341.062 95.046,341.627 95.341 C 342.191 95.635,343.136 95.998,343.727 96.146 C 344.317 96.294,344.800 96.592,344.800 96.808 C 344.800 97.023,345.138 97.200,345.551 97.200 C 345.964 97.200,346.526 97.470,346.800 97.800 C 347.074 98.130,347.508 98.400,347.765 98.400 C 349.243 98.400,357.563 106.954,357.588 108.500 C 357.595 108.885,357.745 109.200,357.923 109.200 C 358.101 109.200,358.572 109.965,358.970 110.900 C 359.369 111.835,359.943 113.123,360.247 113.761 C 360.551 114.400,360.800 115.233,360.800 115.613 C 360.800 115.992,361.070 116.949,361.400 117.738 C 362.111 119.440,362.217 127.297,361.563 129.800 C 361.333 130.680,361.052 131.850,360.940 132.400 C 360.156 136.231,353.321 147.170,351.688 147.206 C 351.530 147.210,350.788 147.752,350.041 148.411 C 344.457 153.332,332.638 155.707,324.249 153.594 C 322.516 153.157,321.031 152.800,320.949 152.800 C 320.867 152.800,320.800 153.734,320.800 154.876 C 320.800 156.649,320.874 156.852,321.306 156.260 C 321.784 155.607,321.969 155.606,324.606 156.239 C 328.230 157.109,335.311 157.091,338.600 156.202 C 339.920 155.846,341.387 155.457,341.860 155.338 C 343.185 155.005,343.263 158.000,343.125 203.888 L 343.000 245.177 345.900 246.471 C 347.495 247.183,348.800 247.908,348.800 248.083 C 348.800 248.257,348.982 248.400,349.203 248.400 C 350.882 248.400,356.603 254.940,358.652 259.200 C 359.446 260.850,360.254 262.513,360.448 262.895 C 360.641 263.277,360.806 263.997,360.814 264.495 C 360.822 264.993,361.086 265.850,361.400 266.400 C 362.195 267.791,362.187 276.784,361.388 279.000 C 361.071 279.880,360.809 280.900,360.806 281.268 C 360.803 281.635,360.500 282.535,360.132 283.268 C 359.765 284.000,359.347 284.870,359.203 285.200 C 357.110 289.997,349.398 298.400,347.089 298.400 C 346.747 298.400,346.407 298.535,346.333 298.700 C 345.148 301.368,329.726 303.810,325.134 302.057 C 324.620 301.861,323.210 301.381,322.000 300.989 C 317.854 299.649,312.920 296.527,309.933 293.357 C 307.027 290.271,305.992 289.004,305.746 288.231 C 304.866 285.458,303.134 283.551,302.107 284.224 C 300.620 285.199,294.268 286.389,290.524 286.395 C 288.722 286.398,287.136 286.580,287.000 286.800 C 286.864 287.020,286.425 287.200,286.025 287.200 C 285.625 287.200,285.074 287.470,284.800 287.800 C 284.526 288.130,283.995 288.400,283.621 288.400 C 283.246 288.400,282.517 288.850,282.000 289.400 C 281.483 289.950,280.751 290.400,280.373 290.400 C 279.995 290.400,279.582 290.670,279.455 291.000 C 279.329 291.330,278.891 291.600,278.482 291.600 C 278.074 291.600,277.317 292.050,276.800 292.600 C 276.283 293.150,275.554 293.600,275.179 293.600 C 274.805 293.600,274.274 293.870,274.000 294.200 C 273.726 294.530,273.195 294.800,272.821 294.800 C 272.446 294.800,271.731 295.235,271.232 295.766 C 270.733 296.298,269.891 296.841,269.362 296.974 C 268.833 297.107,268.400 297.392,268.400 297.608 C 268.400 297.823,268.074 298.000,267.675 298.000 C 267.276 298.000,266.432 298.540,265.800 299.200 C 265.168 299.860,264.335 300.400,263.949 300.400 C 263.563 300.400,263.136 300.580,263.000 300.800 C 262.864 301.020,262.448 301.205,262.076 301.211 C 261.704 301.217,260.875 301.757,260.233 302.411 C 259.592 303.065,258.756 303.600,258.376 303.600 C 257.996 303.600,257.582 303.870,257.455 304.200 C 257.329 304.530,256.891 304.800,256.482 304.800 C 256.074 304.800,255.317 305.250,254.800 305.800 C 254.283 306.350,253.554 306.800,253.179 306.800 C 252.805 306.800,252.274 307.070,252.000 307.400 C 251.726 307.730,251.246 308.000,250.934 308.000 C 250.621 308.000,249.880 308.450,249.287 309.000 C 248.693 309.550,248.003 310.000,247.753 310.000 C 247.503 310.000,247.074 310.270,246.800 310.600 C 246.526 310.930,245.998 311.200,245.626 311.200 C 245.254 311.200,244.432 311.740,243.800 312.400 C 243.168 313.060,242.335 313.600,241.949 313.600 C 241.563 313.600,241.136 313.780,241.000 314.000 C 240.864 314.220,240.448 314.405,240.076 314.411 C 239.704 314.417,238.875 314.957,238.233 315.611 C 237.592 316.265,236.756 316.800,236.376 316.800 C 235.996 316.800,235.582 317.070,235.455 317.400 C 235.329 317.730,234.891 318.000,234.482 318.000 C 234.074 318.000,233.317 318.450,232.800 319.000 C 232.283 319.550,231.554 320.000,231.179 320.000 C 230.805 320.000,230.274 320.270,230.000 320.600 C 229.726 320.930,229.164 321.200,228.751 321.200 C 228.338 321.200,228.000 321.380,228.000 321.600 C 228.000 322.478,224.960 322.022,224.000 321.000 C 223.483 320.450,222.743 320.000,222.354 320.000 C 221.965 320.000,221.543 319.831,221.416 319.625 C 221.122 319.151,218.837 318.000,218.188 318.000 C 217.918 318.000,217.474 317.730,217.200 317.400 C 216.926 317.070,216.386 316.800,216.000 316.800 C 215.614 316.800,215.074 316.530,214.800 316.200 C 214.500 315.839,213.625 315.600,212.600 315.600 C 211.575 315.600,210.700 315.361,210.400 315.000 C 209.662 314.111,194.738 314.111,194.000 315.000 C 193.700 315.361,192.825 315.600,191.800 315.600 C 190.775 315.600,189.900 315.839,189.600 316.200 C 189.326 316.530,188.786 316.800,188.400 316.800 C 188.014 316.800,187.474 317.070,187.200 317.400 C 186.926 317.730,186.482 318.000,186.212 318.000 C 185.563 318.000,183.278 319.151,182.984 319.625 C 182.857 319.831,182.435 320.000,182.046 320.000 C 181.657 320.000,180.917 320.450,180.400 321.000 C 179.448 322.013,177.852 322.332,177.400 321.600 C 177.264 321.380,176.798 321.200,176.364 321.200 C 175.930 321.200,175.471 320.930,175.345 320.600 C 175.218 320.270,174.805 320.000,174.427 320.000 C 174.049 320.000,173.317 319.550,172.800 319.000 C 172.283 318.450,171.554 318.000,171.179 318.000 C 170.805 318.000,170.274 317.730,170.000 317.400 C 169.726 317.070,169.198 316.800,168.826 316.800 C 168.454 316.800,167.632 316.260,167.000 315.600 C 166.368 314.940,165.524 314.400,165.125 314.400 C 164.726 314.400,164.400 314.220,164.400 314.000 C 164.400 313.780,164.074 313.600,163.675 313.600 C 163.276 313.600,162.432 313.060,161.800 312.400 C 161.168 311.740,160.346 311.200,159.974 311.200 C 159.602 311.200,159.074 310.930,158.800 310.600 C 158.526 310.270,157.977 310.000,157.580 310.000 C 157.183 310.000,156.504 309.550,156.071 309.000 C 155.639 308.450,155.018 308.000,154.691 308.000 C 154.365 308.000,153.874 307.730,153.600 307.400 C 153.326 307.070,152.795 306.800,152.421 306.800 C 152.046 306.800,151.317 306.350,150.800 305.800 C 150.283 305.250,149.554 304.800,149.179 304.800 C 148.805 304.800,148.274 304.530,148.000 304.200 C 147.726 303.870,147.209 303.597,146.851 303.593 C 146.493 303.589,145.783 303.147,145.273 302.609 C 144.313 301.597,142.222 300.400,141.413 300.400 C 141.158 300.400,140.432 299.860,139.800 299.200 C 139.168 298.540,138.346 298.000,137.974 298.000 C 137.602 298.000,137.074 297.730,136.800 297.400 C 136.526 297.070,136.030 296.800,135.697 296.800 C 135.364 296.800,134.675 296.350,134.165 295.800 C 133.655 295.250,132.982 294.800,132.668 294.800 C 132.355 294.800,131.874 294.530,131.600 294.200 C 131.326 293.870,130.795 293.600,130.421 293.600 C 130.046 293.600,129.317 293.150,128.800 292.600 C 128.283 292.050,127.554 291.600,127.179 291.600 C 126.805 291.600,126.274 291.330,126.000 291.000 C 125.726 290.670,125.189 290.400,124.807 290.400 C 124.425 290.400,123.774 289.950,123.361 289.400 C 122.948 288.850,122.315 288.400,121.954 288.400 C 121.593 288.400,121.074 288.130,120.800 287.800 C 120.526 287.470,119.975 287.200,119.575 287.200 C 119.175 287.200,118.736 287.020,118.600 286.800 C 118.452 286.561,115.991 286.410,112.476 286.425 C 108.460 286.443,106.853 286.571,107.400 286.830 C 107.840 287.039,108.740 287.565,109.400 288.000 C 110.060 288.435,110.870 288.917,111.200 289.072 C 111.530 289.226,116.120 291.976,121.400 295.182 C 126.680 298.388,131.675 301.365,132.500 301.797 C 133.325 302.229,134.000 302.701,134.000 302.848 C 134.000 302.994,134.450 303.226,135.000 303.364 C 135.550 303.502,136.000 303.792,136.000 304.008 C 136.000 304.223,136.187 304.400,136.415 304.400 C 136.643 304.400,140.510 306.650,145.008 309.400 C 149.506 312.150,153.347 314.400,153.544 314.400 C 153.741 314.400,154.112 314.653,154.369 314.963 C 154.626 315.273,155.414 315.821,156.118 316.181 C 156.823 316.541,157.940 317.186,158.600 317.613 C 159.260 318.041,160.070 318.518,160.400 318.673 C 161.915 319.385,175.562 327.805,176.877 328.839 C 178.833 330.378,179.051 330.337,181.607 327.958 C 183.830 325.889,186.654 323.945,189.200 322.733 C 190.489 322.120,191.510 321.757,195.716 320.419 C 197.711 319.784,206.679 319.779,208.662 320.411 C 209.508 320.681,211.010 321.164,212.000 321.484 C 216.389 322.905,220.516 325.564,223.853 329.119 L 225.506 330.880 228.777 328.640 C 230.576 327.408,232.126 326.400,232.223 326.400 C 232.319 326.400,236.078 324.150,240.576 321.400 C 245.074 318.650,248.945 316.400,249.177 316.400 C 249.410 316.400,249.600 316.241,249.600 316.047 C 249.600 315.852,249.915 315.584,250.300 315.451 C 250.685 315.318,251.540 314.850,252.200 314.411 C 252.860 313.971,253.760 313.430,254.200 313.207 C 254.640 312.984,255.270 312.624,255.600 312.406 C 255.930 312.188,260.250 309.571,265.200 306.591 C 270.150 303.611,274.470 300.993,274.800 300.775 C 275.130 300.556,275.715 300.271,276.100 300.142 C 276.485 300.012,276.800 299.769,276.800 299.600 C 276.800 299.431,277.115 299.184,277.500 299.051 C 277.885 298.918,278.740 298.449,279.400 298.009 C 280.060 297.569,280.870 297.084,281.200 296.930 C 282.470 296.341,285.806 294.216,285.933 293.916 C 286.007 293.742,286.251 293.600,286.477 293.600 C 286.703 293.600,288.983 292.328,291.544 290.773 C 294.105 289.217,296.470 287.782,296.800 287.584 C 297.130 287.385,298.030 286.932,298.800 286.577 C 299.570 286.223,300.513 285.768,300.895 285.566 C 302.210 284.872,302.825 285.191,303.583 286.960 C 305.548 291.544,310.659 297.654,314.356 299.838 C 316.266 300.966,315.851 301.765,312.200 303.991 C 311.320 304.527,310.540 305.109,310.467 305.283 C 310.393 305.457,310.149 305.600,309.925 305.600 C 309.700 305.600,308.716 306.140,307.738 306.800 C 306.760 307.460,305.885 308.000,305.793 308.000 C 305.701 308.000,301.647 310.430,296.785 313.400 C 291.923 316.370,287.849 318.800,287.731 318.800 C 287.613 318.800,286.716 319.340,285.738 320.000 C 284.760 320.660,283.902 321.200,283.831 321.200 C 283.760 321.200,279.764 323.595,274.951 326.522 C 270.138 329.449,265.930 331.968,265.600 332.120 C 264.928 332.428,264.407 332.752,261.131 334.900 C 259.873 335.725,258.744 336.400,258.621 336.400 C 258.450 336.400,243.156 345.591,240.000 347.590 C 239.670 347.799,238.590 348.382,237.600 348.885 C 236.610 349.388,235.740 349.935,235.667 350.100 C 235.593 350.265,235.213 350.400,234.821 350.400 C 233.319 350.400,232.071 351.923,231.618 354.308 C 229.860 363.562,224.702 370.960,217.266 374.895 C 216.020 375.555,214.820 376.233,214.600 376.401 C 214.380 376.570,213.570 376.839,212.800 377.000 C 212.030 377.161,211.218 377.438,210.996 377.616 C 209.102 379.131,195.298 379.130,193.403 377.615 C 193.181 377.437,192.370 377.161,191.600 377.000 C 190.830 376.839,190.020 376.572,189.800 376.407 C 189.580 376.241,188.320 375.512,187.000 374.787 C 179.845 370.855,174.099 362.803,173.020 355.200 C 172.626 352.418,171.926 350.400,171.356 350.400 C 170.399 350.400,165.371 347.570,153.600 340.407 C 153.270 340.206,151.740 339.267,150.200 338.321 C 148.660 337.374,147.243 336.533,147.051 336.450 C 146.858 336.368,142.358 333.658,137.050 330.427 C 131.743 327.197,127.130 324.428,126.800 324.273 C 126.470 324.118,125.700 323.678,125.088 323.296 C 124.476 322.913,119.805 320.080,114.707 317.000 C 103.544 310.255,104.456 310.804,102.554 309.689 C 101.699 309.188,100.460 308.425,99.800 307.995 C 99.140 307.564,98.240 307.049,97.800 306.850 C 97.360 306.652,96.037 305.839,94.860 305.045 C 93.683 304.250,92.603 303.600,92.460 303.600 C 92.317 303.600,91.480 302.953,90.600 302.162 L 89.000 300.726 90.400 299.663 C 95.055 296.129,98.298 292.267,100.444 287.701 C 101.563 285.321,101.966 284.814,102.749 284.808 C 103.514 284.802,103.608 284.692,103.236 284.243 C 102.042 282.804,101.345 283.216,99.673 286.351 C 96.884 291.576,89.114 299.200,86.578 299.200 C 86.405 299.200,85.979 299.433,85.631 299.718 C 85.044 300.200,83.739 300.674,79.200 302.053 C 76.835 302.772,68.783 302.775,66.400 302.059 C 61.955 300.722,58.633 299.433,58.000 298.800 C 57.890 298.690,57.142 298.266,56.338 297.857 C 54.009 296.674,46.800 289.401,46.800 288.234 C 46.800 288.097,46.385 287.313,45.877 286.492 C 44.758 284.684,43.600 281.669,43.600 280.567 C 43.600 280.123,43.389 279.549,43.131 279.291 C 42.312 278.472,42.165 268.353,42.949 266.781 C 43.307 266.064,43.600 265.052,43.600 264.533 C 43.600 264.014,43.763 263.277,43.961 262.895 C 44.160 262.513,44.743 261.255,45.256 260.100 C 45.769 258.945,46.326 258.000,46.494 258.000 C 46.662 258.000,46.803 257.685,46.806 257.300 C 46.818 256.040,53.983 248.400,55.154 248.400 C 55.352 248.400,55.618 248.130,55.745 247.800 C 55.871 247.470,56.241 247.200,56.566 247.200 C 56.892 247.200,58.004 246.750,59.038 246.200 C 60.073 245.650,61.297 245.200,61.760 245.200 L 62.600 245.200 62.600 200.633 C 62.600 176.122,62.712 155.954,62.850 155.817 C 62.987 155.680,64.427 155.886,66.050 156.276 C 70.157 157.261,76.418 157.176,80.586 156.077 C 82.338 155.616,83.868 155.334,83.986 155.452 C 84.104 155.570,84.249 175.767,84.309 200.333 L 84.418 245.000 85.642 245.700 C 86.314 246.085,87.120 246.400,87.432 246.400 C 87.745 246.400,88.000 246.580,88.000 246.800 C 88.000 247.020,88.284 247.200,88.630 247.200 C 89.295 247.200,93.608 250.356,95.046 251.895 C 96.150 253.076,96.528 253.039,98.000 251.600 C 98.675 250.940,99.472 250.400,99.771 250.400 C 101.008 250.400,100.637 249.209,98.853 247.453 C 97.819 246.434,96.784 245.600,96.553 245.600 C 96.322 245.600,95.608 245.065,94.967 244.411 C 94.325 243.757,93.506 243.217,93.147 243.211 C 92.031 243.192,92.011 242.433,92.011 201.000 C 92.011 159.382,92.027 158.800,93.177 158.800 C 93.553 158.800,94.283 158.350,94.800 157.800 C 95.317 157.250,96.019 156.800,96.361 156.800 C 97.184 156.800,103.200 150.800,103.200 149.979 C 103.200 149.627,103.650 148.917,104.200 148.400 C 104.750 147.883,105.200 147.163,105.200 146.800 C 105.200 146.437,105.650 145.717,106.200 145.200 C 106.788 144.647,107.200 143.815,107.200 143.179 C 107.200 142.585,107.470 141.874,107.800 141.600 C 108.130 141.326,108.400 140.786,108.400 140.400 C 108.400 140.014,108.670 139.474,109.000 139.200 C 109.361 138.900,109.600 138.025,109.600 137.000 C 109.600 135.975,109.839 135.100,110.200 134.800 C 110.658 134.420,110.800 133.384,110.800 130.429 C 110.800 126.262,111.676 124.608,114.300 123.817 C 114.795 123.668,115.200 123.378,115.200 123.173 C 115.200 122.968,115.526 122.800,115.925 122.800 C 116.324 122.800,117.168 122.260,117.800 121.600 C 118.432 120.940,119.265 120.400,119.651 120.400 C 120.037 120.400,120.464 120.220,120.600 120.000 C 120.736 119.780,121.152 119.595,121.524 119.589 C 121.896 119.583,122.725 119.043,123.367 118.389 C 124.008 117.735,124.844 117.200,125.224 117.200 C 125.604 117.200,126.018 116.930,126.145 116.600 C 126.271 116.270,126.709 116.000,127.118 116.000 C 127.526 116.000,128.283 115.550,128.800 115.000 C 129.317 114.450,130.046 114.000,130.421 114.000 C 130.795 114.000,131.326 113.730,131.600 113.400 C 131.874 113.070,132.354 112.800,132.666 112.800 C 132.979 112.800,133.720 112.350,134.313 111.800 C 134.907 111.250,135.597 110.800,135.847 110.800 C 136.097 110.800,136.526 110.530,136.800 110.200 C 137.074 109.870,137.602 109.600,137.974 109.600 C 138.346 109.600,139.168 109.060,139.800 108.400 C 140.432 107.740,141.265 107.200,141.651 107.200 C 142.037 107.200,142.464 107.020,142.600 106.800 C 142.736 106.580,143.152 106.397,143.524 106.393 C 143.896 106.389,144.617 105.947,145.127 105.409 C 146.087 104.397,148.178 103.200,148.987 103.200 C 149.242 103.200,149.968 102.660,150.600 102.000 C 151.232 101.340,152.054 100.800,152.426 100.800 C 152.798 100.800,153.326 100.530,153.600 100.200 C 153.874 99.870,154.370 99.600,154.703 99.600 C 155.036 99.600,155.725 99.150,156.235 98.600 C 156.745 98.050,157.418 97.600,157.732 97.600 C 158.045 97.600,158.526 97.330,158.800 97.000 C 159.074 96.670,159.605 96.400,159.979 96.400 C 160.354 96.400,161.083 95.950,161.600 95.400 C 162.117 94.850,162.846 94.400,163.221 94.400 C 163.595 94.400,164.126 94.130,164.400 93.800 C 164.674 93.470,165.191 93.192,165.549 93.183 C 165.907 93.174,166.642 92.634,167.181 91.983 C 167.721 91.332,168.475 90.800,168.858 90.800 C 169.240 90.800,169.664 90.620,169.800 90.400 C 169.936 90.180,170.363 90.000,170.749 90.000 C 171.135 90.000,171.968 89.460,172.600 88.800 C 173.232 88.140,174.054 87.600,174.426 87.600 C 174.798 87.600,175.326 87.330,175.600 87.000 C 175.874 86.670,176.425 86.400,176.825 86.400 C 177.225 86.400,177.664 86.220,177.800 86.000 C 178.214 85.329,179.433 85.552,180.238 86.446 C 180.657 86.911,181.360 87.451,181.800 87.645 C 182.240 87.839,182.870 88.166,183.200 88.370 C 183.530 88.575,184.070 88.844,184.400 88.969 C 184.730 89.093,185.270 89.348,185.600 89.535 C 187.218 90.453,188.043 90.800,188.607 90.800 C 188.947 90.800,189.329 91.070,189.455 91.400 C 189.615 91.817,190.267 92.000,191.594 92.000 C 192.802 92.000,193.685 92.220,194.000 92.600 C 194.411 93.095,195.842 93.200,202.200 93.200 C 208.558 93.200,209.989 93.095,210.400 92.600 C 210.700 92.239,211.575 92.000,212.600 92.000 C 213.625 92.000,214.500 91.761,214.800 91.400 C 215.074 91.070,215.625 90.800,216.025 90.800 C 216.425 90.800,216.864 90.620,217.000 90.400 C 217.136 90.180,217.575 90.000,217.975 90.000 C 218.375 90.000,218.926 89.730,219.200 89.400 C 219.474 89.070,220.017 88.800,220.406 88.800 C 220.796 88.800,221.218 88.530,221.345 88.200 C 221.471 87.870,221.909 87.600,222.318 87.600 C 222.726 87.600,223.483 87.150,224.000 86.600 C 224.960 85.578,228.000 85.122,228.000 86.000 C 228.000 86.220,228.338 86.400,228.751 86.400 C 229.164 86.400,229.726 86.670,230.000 87.000 C 230.274 87.330,230.802 87.600,231.174 87.600 C 231.546 87.600,232.368 88.140,233.000 88.800 C 233.632 89.460,234.476 90.000,234.875 90.000 C 235.274 90.000,235.600 90.180,235.600 90.400 C 235.600 90.620,235.926 90.800,236.325 90.800 C 236.724 90.800,237.568 91.340,238.200 92.000 C 238.832 92.660,239.654 93.200,240.026 93.200 C 240.398 93.200,240.926 93.470,241.200 93.800 C 241.474 94.130,242.023 94.400,242.420 94.400 C 242.817 94.400,243.496 94.850,243.929 95.400 C 244.361 95.950,244.982 96.400,245.309 96.400 C 245.635 96.400,246.126 96.670,246.400 97.000 C 246.674 97.330,247.205 97.600,247.579 97.600 C 247.954 97.600,248.683 98.050,249.200 98.600 C 249.717 99.150,250.446 99.600,250.821 99.600 C 251.195 99.600,251.726 99.870,252.000 100.200 C 252.274 100.530,252.791 100.803,253.149 100.807 C 253.507 100.811,254.217 101.253,254.727 101.791 C 255.687 102.803,257.778 104.000,258.587 104.000 C 258.842 104.000,259.568 104.540,260.200 105.200 C 260.832 105.860,261.665 106.400,262.051 106.400 C 262.437 106.400,262.864 106.580,263.000 106.800 C 263.136 107.020,263.560 107.200,263.942 107.200 C 264.325 107.200,265.079 107.732,265.619 108.383 C 266.158 109.034,266.893 109.574,267.251 109.583 C 267.609 109.592,268.126 109.870,268.400 110.200 C 268.674 110.530,269.205 110.800,269.579 110.800 C 269.954 110.800,270.683 111.250,271.200 111.800 C 271.717 112.350,272.446 112.800,272.821 112.800 C 273.195 112.800,273.726 113.070,274.000 113.400 C 274.274 113.730,274.811 114.000,275.193 114.000 C 275.575 114.000,276.226 114.450,276.639 115.000 C 277.052 115.550,277.685 116.000,278.046 116.000 C 278.407 116.000,278.926 116.270,279.200 116.600 C 279.474 116.930,280.002 117.200,280.374 117.200 C 280.746 117.200,281.568 117.740,282.200 118.400 C 282.832 119.060,283.665 119.600,284.051 119.600 C 284.437 119.600,284.864 119.780,285.000 120.000 C 285.136 120.220,285.560 120.400,285.942 120.400 C 286.325 120.400,287.079 120.932,287.619 121.583 C 288.158 122.234,288.893 122.774,289.251 122.783 C 289.609 122.792,290.126 123.070,290.400 123.400 C 290.674 123.730,291.226 124.000,291.626 124.000 C 293.110 124.000,293.600 125.506,293.600 130.065 C 293.600 132.538,293.772 134.459,294.007 134.604 C 294.230 134.742,294.320 135.006,294.206 135.190 C 294.092 135.375,294.359 135.431,294.799 135.316 C 295.240 135.201,295.600 134.948,295.600 134.753 C 295.600 134.559,296.125 134.400,296.767 134.400 C 297.408 134.400,297.993 134.265,298.067 134.100 C 298.140 133.935,299.010 133.510,300.000 133.156 C 301.539 132.604,301.779 132.373,301.653 131.556 C 301.266 129.037,301.198 121.070,301.553 119.786 C 302.020 118.093,301.778 117.200,300.851 117.200 C 300.486 117.200,299.013 116.514,297.578 115.675 C 296.143 114.836,294.705 114.024,294.384 113.871 C 294.063 113.717,293.260 113.238,292.600 112.807 C 291.940 112.375,290.770 111.656,290.000 111.207 C 289.230 110.759,288.330 110.219,288.000 110.007 C 287.670 109.796,284.070 107.632,280.000 105.200 C 275.930 102.768,272.330 100.606,272.000 100.397 C 271.670 100.188,270.320 99.376,269.000 98.592 C 267.680 97.809,266.330 97.001,266.000 96.798 C 261.926 94.286,247.653 85.690,247.200 85.476 C 246.870 85.319,246.060 84.835,245.400 84.400 C 244.740 83.965,243.930 83.485,243.600 83.334 C 243.270 83.183,242.443 82.641,241.762 82.129 C 241.081 81.618,240.416 81.200,240.284 81.200 C 239.743 81.200,230.102 75.172,228.856 74.055 L 227.512 72.850 228.728 70.725 C 230.138 68.258,231.332 64.958,231.062 64.274 C 230.959 64.013,230.745 64.385,230.587 65.100 C 230.429 65.815,230.174 66.400,230.021 66.400 C 229.867 66.400,229.353 67.178,228.879 68.128 C 228.404 69.078,227.607 70.245,227.108 70.720 C 226.609 71.195,225.210 72.538,224.000 73.705 C 211.422 85.837,193.783 86.272,181.537 74.752 C 180.513 73.789,178.983 72.361,178.137 71.581 C 177.292 70.800,176.182 69.315,175.672 68.281 C 175.162 67.246,174.577 66.400,174.372 66.400 C 174.167 66.400,174.000 65.860,174.000 65.200 C 174.000 64.540,173.820 64.000,173.600 64.000 C 172.566 64.000,173.815 67.423,176.471 71.871 L 177.230 73.142 176.028 74.371 C 175.368 75.047,174.749 75.600,174.654 75.600 C 174.558 75.600,173.517 76.250,172.340 77.045 C 171.163 77.839,169.840 78.652,169.400 78.850 C 168.960 79.049,168.060 79.567,167.400 80.002 C 166.740 80.436,165.930 80.912,165.600 81.061 C 165.270 81.209,164.464 81.706,163.808 82.165 C 162.459 83.111,161.280 83.834,160.400 84.257 C 160.070 84.415,157.100 86.189,153.800 88.197 C 150.500 90.206,147.530 91.972,147.200 92.122 C 146.573 92.407,146.466 92.473,142.682 94.900 C 141.396 95.725,140.273 96.400,140.186 96.400 C 140.100 96.400,135.658 99.066,130.315 102.324 C 124.972 105.582,120.330 108.374,120.000 108.528 C 119.670 108.683,118.860 109.162,118.200 109.593 C 117.540 110.025,116.370 110.748,115.600 111.200 C 114.830 111.652,113.660 112.375,113.000 112.807 C 112.340 113.238,111.530 113.716,111.200 113.870 C 110.870 114.023,109.520 114.799,108.200 115.595 C 106.880 116.391,105.201 117.286,104.469 117.583 C 102.602 118.340,101.859 119.578,102.407 121.019 C 103.520 123.947,102.695 130.833,100.539 136.600 C 94.074 153.896,69.147 159.831,54.056 147.668 C 51.974 145.991,51.013 145.015,48.602 142.131 C 44.351 137.046,41.962 127.304,43.218 120.173 C 43.819 116.763,45.577 111.599,46.408 110.800 C 46.523 110.690,46.814 110.150,47.055 109.600 C 49.384 104.294,58.241 97.936,66.226 95.838 C 70.640 94.678,81.101 95.368,82.654 96.921 C 82.808 97.074,83.286 97.200,83.716 97.200 C 84.146 97.200,85.833 98.010,87.464 99.000 C 90.975 101.132,90.537 101.073,92.342 99.653 C 93.144 99.023,96.680 96.768,100.200 94.644 C 103.720 92.519,106.870 90.600,107.200 90.379 C 107.530 90.158,108.115 89.871,108.500 89.742 C 108.885 89.612,109.200 89.348,109.200 89.153 C 109.200 88.959,109.457 88.800,109.771 88.800 C 110.086 88.800,110.581 88.565,110.871 88.278 C 111.162 87.990,111.670 87.631,112.000 87.480 C 112.330 87.329,112.870 87.029,113.200 86.814 C 116.119 84.910,128.502 77.600,128.807 77.600 C 129.023 77.600,129.200 77.423,129.200 77.208 C 129.200 76.992,129.650 76.702,130.200 76.564 C 130.750 76.426,131.200 76.174,131.200 76.003 C 131.200 75.833,131.515 75.584,131.900 75.451 C 132.285 75.318,133.140 74.850,133.800 74.411 C 134.460 73.971,135.360 73.427,135.800 73.201 C 137.563 72.294,140.270 70.648,141.473 69.750 C 142.174 69.228,142.843 68.800,142.961 68.800 C 143.079 68.800,145.926 67.123,149.288 65.073 C 152.650 63.022,155.670 61.224,156.000 61.075 C 156.713 60.754,157.762 60.105,159.400 58.972 C 160.060 58.515,160.870 58.017,161.200 57.865 C 161.530 57.714,162.700 57.042,163.800 56.373 C 166.089 54.980,170.591 52.800,171.177 52.800 C 171.840 52.800,172.271 51.549,172.797 48.093 C 173.074 46.274,173.458 44.688,173.650 44.569 C 173.843 44.450,174.000 44.016,174.000 43.605 C 174.000 41.768,177.595 36.064,180.800 32.816 C 188.477 25.035,200.666 21.909,210.633 25.165 M231.693 62.000 C 231.693 62.770,231.775 63.085,231.876 62.700 C 231.976 62.315,231.976 61.685,231.876 61.300 C 231.775 60.915,231.693 61.230,231.693 62.000 " stroke="none" fill="#730c4d" fill-rule="evenodd"></path></g></svg>