<svg id="svg" xmlns="http://www.w3.org/2000/svg" xmlns:xlink="http://www.w3.org/1999/xlink" width="400" height="176.1904761904762" viewBox="0, 0, 400,176.1904761904762"><g id="svgg"><path id="path0" d="M217.621 20.017 C 210.999 20.476,204.840 21.393,204.481 21.974 C 204.337 22.208,205.680 23.060,207.466 23.868 C 212.839 26.296,220.178 29.968,221.156 30.716 C 222.838 32.004,221.652 31.892,218.070 30.424 C 191.905 19.707,170.526 18.200,168.145 26.905 C 163.273 44.722,184.956 75.625,209.606 85.995 C 211.787 86.912,214.214 87.976,215.000 88.358 L 216.429 89.054 214.762 88.769 C 189.388 84.428,163.810 56.610,163.810 33.355 C 163.810 30.138,163.428 29.998,154.674 30.011 C 110.180 30.077,57.974 52.659,14.524 90.634 C 8.948 95.508,9.103 95.569,19.524 92.609 C 39.721 86.872,58.830 86.037,78.333 90.039 C 95.229 93.506,109.262 102.231,120.626 116.334 C 123.282 119.631,123.333 119.412,123.333 104.734 L 123.333 91.429 139.007 91.429 L 154.680 91.429 156.333 94.405 C 157.242 96.042,158.914 99.095,160.047 101.190 C 161.180 103.286,163.722 107.987,165.697 111.637 C 167.671 115.288,169.500 118.336,169.762 118.412 C 170.024 118.488,172.155 114.965,174.498 110.584 C 180.805 98.794,184.178 92.693,184.765 92.018 C 185.171 91.550,188.873 91.444,201.334 91.541 L 217.381 91.667 217.504 117.976 C 217.572 132.446,217.771 144.286,217.947 144.286 C 219.042 144.286,222.970 140.817,224.336 138.645 C 228.638 131.801,238.524 126.098,249.555 124.097 C 253.948 123.300,258.187 123.051,275.607 122.570 C 281.965 122.395,287.262 122.097,287.378 121.909 C 287.495 121.720,286.723 119.602,285.664 117.202 C 282.232 109.425,283.698 107.966,297.908 105.013 C 301.285 104.311,305.333 103.335,306.905 102.843 C 308.476 102.351,321.109 99.675,334.977 96.897 C 379.105 88.056,379.338 87.960,385.226 76.215 C 391.215 64.268,391.397 60.751,386.164 58.082 C 381.716 55.813,380.328 56.961,377.790 65.015 C 375.996 70.705,375.893 66.774,377.664 60.208 C 378.887 55.673,378.935 55.824,375.833 54.441 C 363.126 48.773,345.640 42.626,328.810 37.908 C 312.415 33.313,309.793 32.662,289.405 28.118 C 282.474 26.573,262.855 23.095,258.333 22.609 C 256.762 22.440,253.119 22.011,250.238 21.656 C 238.324 20.185,224.917 19.512,217.621 20.017 M188.149 36.449 C 198.046 40.131,205.493 44.445,211.567 50.013 C 215.580 53.692,215.378 53.943,210.248 51.657 C 205.153 49.387,205.056 49.518,208.282 54.337 C 211.430 59.039,211.423 59.066,207.557 56.978 C 200.211 53.012,199.296 53.486,203.864 58.895 C 209.988 66.145,210.060 66.288,206.929 64.980 C 202.812 63.259,202.840 64.109,207.086 69.691 C 211.294 75.224,211.560 75.969,208.716 74.256 C 193.818 65.284,178.969 47.748,178.205 38.224 C 177.786 33.007,178.538 32.873,188.149 36.449 M282.381 46.140 C 292.517 47.894,313.415 52.416,315.476 53.301 C 318.194 54.469,311.670 56.127,302.619 56.568 C 285.949 57.381,278.650 55.680,274.597 50.039 C 272.987 47.797,272.679 47.610,268.607 46.388 C 259.529 43.663,267.263 43.524,282.381 46.140 M311.805 87.401 C 311.663 87.543,307.717 88.830,303.036 90.261 C 276.344 98.419,272.181 101.972,274.611 114.514 C 274.848 115.736,274.786 115.851,274.171 115.341 C 272.848 114.243,270.927 109.159,270.629 105.968 L 270.337 102.840 272.315 101.013 C 276.761 96.909,292.260 90.685,304.361 88.144 C 308.673 87.239,312.333 86.874,311.805 87.401 M155.241 147.024 L 155.238 168.095 169.905 168.095 C 180.677 168.095,184.723 167.944,185.143 167.524 C 185.820 166.847,185.984 126.667,185.310 126.667 C 184.954 126.667,180.712 132.981,173.078 144.873 C 170.085 149.537,170.476 149.676,165.726 142.257 C 163.507 138.789,160.240 133.702,158.467 130.952 L 155.243 125.952 155.241 147.024 " stroke="none" fill="#007acc" fill-rule="evenodd"></path></g></svg>