<svg id="svg" xmlns="http://www.w3.org/2000/svg" xmlns:xlink="http://www.w3.org/1999/xlink" width="400" height="388.8" viewBox="0, 0, 400,388.8"><g id="svgg"><path id="path0" d="M197.040 0.098 C 186.388 0.676,175.849 1.922,167.280 3.617 C 132.954 10.408,100.848 26.455,74.960 49.758 C -8.380 124.779,-11.446 254.386,68.264 332.804 C 101.693 365.691,143.358 384.705,190.160 388.433 C 195.324 388.845,214.113 388.841,219.440 388.427 C 273.903 384.198,322.704 358.388,356.929 315.712 C 375.897 292.058,388.756 264.839,395.116 234.877 C 396.733 227.258,397.761 220.401,398.738 210.720 C 399.351 204.635,399.336 186.326,398.710 178.240 C 397.859 167.232,394.458 148.594,391.944 141.159 C 389.537 134.040,381.296 131.840,375.997 136.902 C 372.594 140.154,372.361 142.559,374.571 151.647 C 393.255 228.478,360.563 306.039,292.720 345.839 C 240.898 376.240,174.820 377.340,122.080 348.679 C 112.419 343.429,100.700 335.586,93.601 329.619 C 69.174 309.089,51.170 283.736,40.639 255.040 C 26.894 217.584,26.353 175.765,39.129 138.240 C 55.883 89.033,94.388 49.075,142.560 30.905 C 194.341 11.374,252.328 17.221,298.448 46.624 C 305.911 51.382,317.766 60.268,317.540 60.935 C 312.680 75.284,321.207 90.263,335.600 92.662 C 352.576 95.492,366.968 80.070,362.796 63.520 C 359.519 50.522,346.450 43.007,333.140 46.467 L 331.640 46.857 328.137 43.985 C 296.558 18.093,257.271 2.775,216.160 0.324 C 213.429 0.161,199.017 -0.009,197.040 0.098 M173.122 116.920 C 168.521 128.866,158.208 155.632,150.203 176.400 C 142.199 197.168,132.054 223.520,127.658 234.960 C 123.262 246.400,118.290 259.308,116.610 263.644 C 114.929 267.980,113.607 271.580,113.671 271.644 C 113.914 271.887,122.923 271.998,139.263 271.960 L 156.205 271.920 158.067 266.880 C 159.091 264.108,161.582 257.394,163.604 251.960 L 167.279 242.080 192.719 242.067 C 219.933 242.053,230.926 241.938,231.199 241.665 C 231.346 241.518,226.315 226.824,221.233 212.560 L 220.036 209.200 210.298 209.080 C 204.942 209.014,195.405 208.906,189.105 208.840 L 177.650 208.720 186.637 184.000 C 196.986 155.533,197.213 154.914,201.446 143.600 C 204.713 134.869,205.143 133.764,205.280 133.762 C 205.324 133.761,206.128 135.938,207.066 138.600 C 208.004 141.262,217.987 169.576,229.251 201.520 C 240.515 233.464,250.681 262.300,251.843 265.600 C 253.005 268.900,254.006 271.654,254.067 271.721 C 254.127 271.787,263.754 271.823,275.460 271.801 L 296.743 271.760 295.029 267.280 C 294.086 264.816,287.108 246.708,279.522 227.040 C 271.936 207.372,261.927 181.416,257.280 169.360 C 252.633 157.304,245.487 138.764,241.398 128.160 C 237.310 117.556,232.785 105.803,231.343 102.043 L 228.720 95.206 205.104 95.203 L 181.487 95.200 173.122 116.920 " stroke="none" fill="#fff" fill-rule="evenodd"></path></g></svg>