<svg id="svg" version="1.1" xmlns="http://www.w3.org/2000/svg" xmlns:xlink="http://www.w3.org/1999/xlink" width="400" height="400" viewBox="0, 0, 400,400"><g id="svgg"><path id="path0" d="M306.000 185.827 C 268.146 188.905,246.815 207.493,246.815 237.400 C 246.815 259.797,257.185 273.682,283.644 286.715 C 286.419 288.082,288.798 289.200,288.932 289.200 C 289.067 289.200,290.127 289.627,291.288 290.148 C 292.450 290.669,295.560 292.056,298.200 293.229 C 316.975 301.570,323.999 308.123,324.335 317.610 C 324.685 327.508,317.558 333.491,302.923 335.588 C 297.264 336.399,285.360 335.881,280.000 334.591 C 279.450 334.459,278.190 334.158,277.200 333.923 C 269.246 332.033,259.115 327.496,251.986 322.630 C 249.904 321.209,248.063 320.182,247.896 320.347 C 247.729 320.513,247.639 328.827,247.696 338.824 L 247.800 357.000 250.400 358.281 C 255.931 361.006,265.701 363.728,275.000 365.136 C 312.490 370.812,345.437 362.528,358.074 344.249 C 363.215 336.812,366.407 325.266,366.393 314.154 C 366.362 289.406,354.435 275.510,320.600 260.800 C 317.960 259.653,314.180 258.008,312.200 257.144 C 295.276 249.767,288.281 243.127,288.241 234.400 C 288.201 225.750,294.104 220.556,307.400 217.544 C 310.576 216.824,324.811 216.809,328.400 217.521 C 329.830 217.805,331.990 218.235,333.200 218.478 C 342.447 220.333,351.837 223.942,357.594 227.854 L 359.000 228.810 359.104 210.905 C 359.162 201.057,359.127 192.787,359.027 192.526 C 358.697 191.666,347.523 188.437,341.800 187.547 C 332.867 186.159,330.281 185.960,319.400 185.825 C 313.020 185.745,306.990 185.746,306.000 185.827 M92.183 190.501 C 92.077 190.777,92.037 197.932,92.095 206.401 L 92.200 221.800 117.099 221.903 L 141.998 222.006 142.099 293.303 L 142.200 364.600 162.100 364.704 L 182.000 364.807 182.000 293.404 L 182.000 222.000 207.000 222.000 L 232.000 222.000 232.000 206.000 L 232.000 190.000 162.187 190.000 C 106.624 190.000,92.336 190.102,92.183 190.501 " stroke="none" fill="#fbfbfb" fill-rule="evenodd"></path><path id="path1" d="M29.300 0.291 C 28.365 0.376,27.600 0.616,27.600 0.823 C 27.600 1.030,27.150 1.200,26.600 1.200 C 26.050 1.200,25.600 1.380,25.600 1.600 C 25.600 1.820,25.060 2.000,24.400 2.000 C 23.740 2.000,23.200 2.180,23.200 2.400 C 23.200 2.620,22.840 2.800,22.400 2.800 C 21.960 2.800,21.600 2.980,21.600 3.200 C 21.600 3.420,21.240 3.600,20.800 3.600 C 20.360 3.600,20.000 3.780,20.000 4.000 C 20.000 4.220,19.680 4.400,19.288 4.400 C 18.897 4.400,18.317 4.760,18.000 5.200 C 17.683 5.640,17.143 6.000,16.800 6.000 C 16.457 6.000,15.917 6.360,15.600 6.800 C 15.283 7.240,14.791 7.600,14.508 7.600 C 13.825 7.600,7.600 13.715,7.600 14.385 C 7.600 14.672,7.284 15.197,6.897 15.553 C 6.511 15.909,5.940 16.695,5.630 17.300 C 5.319 17.905,4.915 18.400,4.732 18.400 C 4.550 18.400,4.400 18.760,4.400 19.200 C 4.400 19.640,4.220 20.000,4.000 20.000 C 3.780 20.000,3.600 20.360,3.600 20.800 C 3.600 21.240,3.420 21.600,3.200 21.600 C 2.980 21.600,2.800 21.960,2.800 22.400 C 2.800 22.840,2.620 23.200,2.400 23.200 C 2.180 23.200,2.000 23.740,2.000 24.400 C 2.000 25.060,1.820 25.600,1.600 25.600 C 1.380 25.600,1.200 26.035,1.200 26.567 C 1.200 27.098,0.975 27.608,0.700 27.700 C -0.036 27.945,-0.036 372.055,0.700 372.300 C 0.975 372.392,1.200 372.891,1.200 373.410 C 1.200 373.928,1.380 374.464,1.600 374.600 C 1.820 374.736,2.000 375.287,2.000 375.824 C 2.000 376.361,2.180 376.800,2.400 376.800 C 2.620 376.800,2.800 377.160,2.800 377.600 C 2.800 378.040,2.980 378.400,3.200 378.400 C 3.420 378.400,3.600 378.760,3.600 379.200 C 3.600 379.640,3.780 380.000,4.000 380.000 C 4.220 380.000,4.400 380.320,4.400 380.712 C 4.400 381.103,4.760 381.683,5.200 382.000 C 5.640 382.317,6.000 382.857,6.000 383.200 C 6.000 383.543,6.360 384.083,6.800 384.400 C 7.240 384.717,7.600 385.188,7.600 385.446 C 7.600 386.147,12.549 391.334,13.861 392.009 C 14.487 392.331,15.291 392.911,15.647 393.297 C 16.003 393.684,16.548 394.000,16.859 394.000 C 17.169 394.000,17.683 394.360,18.000 394.800 C 18.317 395.240,18.897 395.600,19.288 395.600 C 19.680 395.600,20.000 395.780,20.000 396.000 C 20.000 396.220,20.360 396.400,20.800 396.400 C 21.240 396.400,21.600 396.580,21.600 396.800 C 21.600 397.020,21.960 397.200,22.400 397.200 C 22.840 397.200,23.200 397.380,23.200 397.600 C 23.200 397.820,23.740 398.000,24.400 398.000 C 25.060 398.000,25.600 398.180,25.600 398.400 C 25.600 398.620,26.035 398.800,26.567 398.800 C 27.098 398.800,27.608 399.025,27.700 399.300 C 27.945 400.036,372.055 400.036,372.300 399.300 C 372.392 399.025,372.891 398.800,373.410 398.800 C 373.928 398.800,374.464 398.620,374.600 398.400 C 374.736 398.180,375.287 398.000,375.824 398.000 C 376.361 398.000,376.800 397.820,376.800 397.600 C 376.800 397.380,377.160 397.200,377.600 397.200 C 378.040 397.200,378.400 397.020,378.400 396.800 C 378.400 396.580,378.760 396.400,379.200 396.400 C 379.640 396.400,380.000 396.220,380.000 396.000 C 380.000 395.780,380.320 395.600,380.712 395.600 C 381.103 395.600,381.683 395.240,382.000 394.800 C 382.317 394.360,382.857 394.000,383.200 394.000 C 383.543 394.000,384.083 393.640,384.400 393.200 C 384.717 392.760,385.203 392.400,385.481 392.400 C 386.196 392.400,391.316 387.486,392.013 386.131 C 392.333 385.509,392.911 384.709,393.297 384.353 C 393.684 383.997,394.000 383.452,394.000 383.141 C 394.000 382.831,394.360 382.317,394.800 382.000 C 395.240 381.683,395.600 381.103,395.600 380.712 C 395.600 380.320,395.780 380.000,396.000 380.000 C 396.220 380.000,396.400 379.640,396.400 379.200 C 396.400 378.760,396.580 378.400,396.800 378.400 C 397.020 378.400,397.200 378.040,397.200 377.600 C 397.200 377.160,397.380 376.800,397.600 376.800 C 397.820 376.800,398.000 376.361,398.000 375.824 C 398.000 375.287,398.180 374.736,398.400 374.600 C 398.620 374.464,398.800 373.928,398.800 373.410 C 398.800 372.891,399.025 372.392,399.300 372.300 C 400.036 372.055,400.036 27.945,399.300 27.700 C 399.025 27.608,398.800 27.098,398.800 26.567 C 398.800 26.035,398.620 25.600,398.400 25.600 C 398.180 25.600,398.000 25.060,398.000 24.400 C 398.000 23.740,397.820 23.200,397.600 23.200 C 397.380 23.200,397.200 22.840,397.200 22.400 C 397.200 21.960,397.020 21.600,396.800 21.600 C 396.580 21.600,396.400 21.240,396.400 20.800 C 396.400 20.360,396.220 20.000,396.000 20.000 C 395.780 20.000,395.600 19.680,395.600 19.288 C 395.600 18.897,395.240 18.317,394.800 18.000 C 394.360 17.683,394.000 17.169,394.000 16.859 C 394.000 16.548,393.684 16.003,393.297 15.647 C 392.911 15.291,392.331 14.487,392.009 13.861 C 391.365 12.609,386.161 7.600,385.504 7.600 C 385.279 7.600,384.803 7.284,384.447 6.897 C 384.091 6.511,383.305 5.940,382.700 5.630 C 382.095 5.319,381.600 4.915,381.600 4.732 C 381.600 4.550,381.240 4.400,380.800 4.400 C 380.360 4.400,380.000 4.220,380.000 4.000 C 380.000 3.780,379.640 3.600,379.200 3.600 C 378.760 3.600,378.400 3.420,378.400 3.200 C 378.400 2.980,378.040 2.800,377.600 2.800 C 377.160 2.800,376.800 2.620,376.800 2.400 C 376.800 2.180,376.361 2.000,375.824 2.000 C 375.287 2.000,374.736 1.820,374.600 1.600 C 374.464 1.380,373.928 1.200,373.410 1.200 C 372.891 1.200,372.392 0.975,372.300 0.700 C 372.143 0.229,34.399 -0.174,29.300 0.291 M335.200 186.572 C 342.603 187.634,344.130 187.903,347.800 188.794 C 353.093 190.080,358.819 191.983,359.027 192.526 C 359.127 192.787,359.162 201.057,359.104 210.905 L 359.000 228.810 357.594 227.854 C 351.837 223.942,342.447 220.333,333.200 218.478 C 331.990 218.235,329.830 217.805,328.400 217.521 C 324.811 216.809,310.576 216.824,307.400 217.544 C 294.104 220.556,288.201 225.750,288.241 234.400 C 288.281 243.127,295.276 249.767,312.200 257.144 C 314.180 258.008,317.960 259.653,320.600 260.800 C 354.435 275.510,366.362 289.406,366.393 314.154 C 366.438 349.908,341.189 367.968,293.000 366.651 C 283.416 366.389,277.770 365.795,269.400 364.168 C 262.804 362.886,254.567 360.334,250.400 358.281 L 247.800 357.000 247.696 338.824 C 247.639 328.827,247.729 320.513,247.896 320.347 C 248.063 320.182,249.904 321.209,251.986 322.630 C 259.115 327.496,269.246 332.033,277.200 333.923 C 278.190 334.158,279.450 334.459,280.000 334.591 C 285.360 335.881,297.264 336.399,302.923 335.588 C 317.558 333.491,324.685 327.508,324.335 317.610 C 323.999 308.123,316.975 301.570,298.200 293.229 C 295.560 292.056,292.450 290.669,291.288 290.148 C 290.127 289.627,289.067 289.200,288.932 289.200 C 288.798 289.200,286.419 288.082,283.644 286.715 C 257.185 273.682,246.815 259.797,246.815 237.400 C 246.815 207.493,268.146 188.905,306.000 185.827 C 310.400 185.469,331.216 186.000,335.200 186.572 M232.000 206.000 L 232.000 222.000 207.000 222.000 L 182.000 222.000 182.000 293.404 L 182.000 364.807 162.100 364.704 L 142.200 364.600 142.099 293.303 L 141.998 222.006 117.099 221.903 L 92.200 221.800 92.095 206.401 C 92.037 197.932,92.077 190.777,92.183 190.501 C 92.336 190.102,106.624 190.000,162.187 190.000 L 232.000 190.000 232.000 206.000 " stroke="none" fill="#2c7bc4" fill-rule="evenodd"></path></g></svg>